<svg width="146" height="42" viewBox="0 0 146 42" fill="none" xmlns="http://www.w3.org/2000/svg">
<path d="M28.2653 19.7986C28.2305 16.0454 31.4263 14.2195 31.5725 14.1345C29.7625 11.5692 26.9572 11.2186 25.9714 11.1907C23.6153 10.9496 21.3298 12.5613 20.1296 12.5613C18.9054 12.5613 17.0571 11.214 15.0651 11.2536C12.5018 11.292 10.1037 12.7348 8.78849 14.9753C6.07421 19.5435 8.09854 26.2568 10.699 29.9494C11.9999 31.7578 13.5199 33.777 15.5095 33.706C17.456 33.628 18.1831 32.4996 20.532 32.4996C22.8594 32.4996 23.5422 33.706 25.5713 33.6606C27.6603 33.628 28.9756 31.844 30.2309 30.0193C31.7342 27.9465 32.3379 25.9051 32.3618 25.8003C32.3127 25.784 28.3048 24.297 28.2653 19.7986Z" fill="url(#paint0_linear_2_1321)"/>
<path d="M24.4322 8.76158C25.4791 7.4888 26.1954 5.75721 25.9966 4C24.4813 4.06521 22.5863 5.01892 21.4951 6.26376C20.5297 7.3607 19.6672 9.15867 19.89 10.8495C21.5921 10.9729 23.3398 10.0146 24.4322 8.76158Z" fill="url(#paint1_linear_2_1321)"/>
<path d="M50.9302 8.41595C50.9302 9.78655 50.5074 10.8183 49.6629 11.5111C48.8807 12.1505 47.7691 12.4707 46.3293 12.4707C45.6154 12.4707 45.0045 12.4404 44.4931 12.3799V4.89105C45.1603 4.78625 45.879 4.73268 46.6551 4.73268C48.0267 4.73268 49.0604 5.02264 49.7575 5.60255C50.5385 6.25815 50.9302 7.19557 50.9302 8.41595ZM49.6066 8.44972C49.6066 7.56121 49.3646 6.87999 48.8807 6.40488C48.3968 5.93093 47.6901 5.69338 46.7594 5.69338C46.3641 5.69338 46.0275 5.719 45.7484 5.77256V11.4657C45.9029 11.489 46.1856 11.4995 46.5965 11.4995C47.5571 11.4995 48.2986 11.2398 48.8208 10.7205C49.3431 10.2011 49.6066 9.44419 49.6066 8.44972Z" fill="url(#paint2_linear_2_1321)"/>
<path d="M57.948 9.61278C57.948 10.457 57.7 11.1487 57.2041 11.6914C56.6842 12.2492 55.9955 12.5275 55.1355 12.5275C54.3066 12.5275 53.6465 12.2608 53.1542 11.7252C52.6631 11.1907 52.4176 10.5164 52.4176 9.70361C52.4176 8.85354 52.6703 8.15601 53.1782 7.61453C53.6861 7.07304 54.3688 6.80172 55.2289 6.80172C56.0578 6.80172 56.7238 7.06839 57.2281 7.60288C57.7072 8.12224 57.948 8.79299 57.948 9.61278ZM56.6459 9.65238C56.6459 9.14583 56.5333 8.71147 56.3093 8.34932C56.0458 7.91147 55.6709 7.69255 55.1834 7.69255C54.6791 7.69255 54.2958 7.91147 54.0322 8.34932C53.8071 8.71147 53.6957 9.15281 53.6957 9.6745C53.6957 10.1811 53.8083 10.6154 54.0322 10.9776C54.3042 11.4154 54.6827 11.6343 55.1714 11.6343C55.6505 11.6343 56.0266 11.4119 56.2974 10.9659C56.5297 10.5968 56.6459 10.1589 56.6459 9.65238Z" fill="url(#paint3_linear_2_1321)"/>
<path d="M67.3582 6.9136L65.5914 12.403H64.4414L63.7096 10.0193C63.5239 9.42423 63.373 8.83267 63.2556 8.24577H63.2328C63.1238 8.84897 62.9729 9.43937 62.7788 10.0193L62.0014 12.403H60.8383L59.177 6.9136H60.467L61.1055 9.52321C61.26 10.1404 61.387 10.7285 61.4888 11.2851H61.5115C61.605 10.8263 61.7595 10.2417 61.9775 9.53486L62.7788 6.91476H63.8018L64.5696 9.47896C64.7553 10.1043 64.9062 10.7063 65.0224 11.2862H65.0571C65.1422 10.7215 65.2703 10.1194 65.4404 9.47896L66.1256 6.91476H67.3582V6.9136Z" fill="url(#paint4_linear_2_1321)"/>
<path d="M73.8662 12.4033H72.6109V9.25921C72.6109 8.29036 72.2324 7.80593 71.4729 7.80593C71.1004 7.80593 70.7998 7.93868 70.5662 8.20535C70.335 8.47202 70.2176 8.78643 70.2176 9.14626V12.4022H68.9623V8.4825C68.9623 8.0004 68.9467 7.47755 68.9168 6.91161H70.02L70.0787 7.76983H70.1134C70.2596 7.50317 70.4776 7.28308 70.7638 7.10724C71.104 6.90229 71.4849 6.79865 71.9018 6.79865C72.4288 6.79865 72.8672 6.96401 73.2158 7.29589C73.6494 7.70229 73.8662 8.30899 73.8662 9.11482V12.4033Z" fill="url(#paint5_linear_2_1321)"/>
<path d="M77.3284 12.4037H76.0743V4.3955H77.3284V12.4037Z" fill="url(#paint6_linear_2_1321)"/>
<path d="M84.7188 9.61278C84.7188 10.457 84.4709 11.1487 83.975 11.6914C83.4551 12.2492 82.7652 12.5275 81.9063 12.5275C81.0762 12.5275 80.4162 12.2608 79.9251 11.7252C79.434 11.1907 79.1884 10.5164 79.1884 9.70361C79.1884 8.85354 79.4412 8.15601 79.9491 7.61453C80.457 7.07304 81.1397 6.80172 81.9986 6.80172C82.8287 6.80172 83.4935 7.06839 83.9989 7.60288C84.4781 8.12224 84.7188 8.79299 84.7188 9.61278ZM83.4156 9.65238C83.4156 9.14583 83.303 8.71147 83.079 8.34932C82.8167 7.91147 82.4406 7.69255 81.9542 7.69255C81.4488 7.69255 81.0655 7.91147 80.8031 8.34932C80.5779 8.71147 80.4665 9.15281 80.4665 9.6745C80.4665 10.1811 80.5791 10.6154 80.8031 10.9776C81.075 11.4154 81.4536 11.6343 81.9423 11.6343C82.4214 11.6343 82.7963 11.4119 83.067 10.9659C83.3006 10.5968 83.4156 10.1589 83.4156 9.65238Z" fill="url(#paint7_linear_2_1321)"/>
<path d="M90.794 12.4029H89.6669L89.5734 11.7706H89.5387C89.153 12.2748 88.6032 12.5275 87.8893 12.5275C87.3563 12.5275 86.925 12.361 86.6004 12.0303C86.3058 11.7298 86.1584 11.356 86.1584 10.9124C86.1584 10.2416 86.4459 9.7304 87.0245 9.37639C87.6018 9.02239 88.4139 8.84888 89.4596 8.85703V8.75456C89.4596 8.03141 89.0691 7.67042 88.287 7.67042C87.73 7.67042 87.2389 7.80667 86.8148 8.07683L86.5597 7.27566C87.0843 6.96009 87.7324 6.80172 88.4966 6.80172C89.9723 6.80172 90.7126 7.55863 90.7126 9.07246V11.094C90.7126 11.6425 90.7401 12.0792 90.794 12.4029ZM89.4908 10.5164V9.66985C88.1061 9.64656 87.4137 10.0157 87.4137 10.7761C87.4137 11.0626 87.4928 11.2768 87.6545 11.4201C87.8162 11.5633 88.0223 11.6343 88.2678 11.6343C88.5433 11.6343 88.8008 11.5493 89.0356 11.3805C89.2716 11.2105 89.4165 10.995 89.4704 10.7307C89.4836 10.6713 89.4908 10.5991 89.4908 10.5164Z" fill="url(#paint8_linear_2_1321)"/>
<path d="M97.9276 12.4037H96.8136L96.7549 11.5222H96.7202C96.3644 12.1929 95.7583 12.5283 94.9067 12.5283C94.2263 12.5283 93.6597 12.2686 93.2106 11.7492C92.7614 11.2299 92.5374 10.5556 92.5374 9.72768C92.5374 8.83918 92.7805 8.11953 93.2693 7.56989C93.7424 7.05752 94.3221 6.80133 95.0121 6.80133C95.7703 6.80133 96.301 7.04936 96.6028 7.5466H96.6268V4.3955H97.8833V10.9248C97.8833 11.4593 97.8977 11.9518 97.9276 12.4037ZM96.6268 10.0887V9.17339C96.6268 9.01502 96.6148 8.88692 96.592 8.78911C96.5214 8.49566 96.3692 8.24878 96.1381 8.04966C95.9045 7.85053 95.623 7.75038 95.2984 7.75038C94.83 7.75038 94.4635 7.93088 94.194 8.29303C93.9269 8.65519 93.7915 9.11749 93.7915 9.68226C93.7915 10.2249 93.9197 10.6651 94.1772 11.004C94.4491 11.3649 94.8157 11.5454 95.2744 11.5454C95.6865 11.5454 96.0159 11.3952 96.2662 11.0936C96.5082 10.8153 96.6268 10.4799 96.6268 10.0887Z" fill="url(#paint9_linear_2_1321)"/>
<path d="M108.664 9.61278C108.664 10.457 108.416 11.1487 107.92 11.6914C107.4 12.2492 106.712 12.5275 105.851 12.5275C105.024 12.5275 104.364 12.2608 103.87 11.7252C103.379 11.1907 103.133 10.5164 103.133 9.70361C103.133 8.85354 103.386 8.15601 103.894 7.61453C104.402 7.07304 105.085 6.80172 105.946 6.80172C106.774 6.80172 107.441 7.06839 107.944 7.60288C108.423 8.12224 108.664 8.79299 108.664 9.61278ZM107.363 9.65238C107.363 9.14583 107.25 8.71147 107.026 8.34932C106.762 7.91147 106.388 7.69255 105.899 7.69255C105.396 7.69255 105.013 7.91147 104.748 8.34932C104.523 8.71147 104.411 9.15281 104.411 9.6745C104.411 10.1811 104.524 10.6154 104.748 10.9776C105.02 11.4154 105.398 11.6343 105.887 11.6343C106.366 11.6343 106.744 11.4119 107.014 10.9659C107.246 10.5968 107.363 10.1589 107.363 9.65238Z" fill="url(#paint10_linear_2_1321)"/>
<path d="M115.413 12.4033H114.159V9.25921C114.159 8.29036 113.78 7.80593 113.02 7.80593C112.647 7.80593 112.346 7.93868 112.114 8.20535C111.882 8.47202 111.765 8.78643 111.765 9.14626V12.4022H110.509V8.4825C110.509 8.0004 110.495 7.47755 110.465 6.91161H111.567L111.625 7.76983H111.66C111.807 7.50317 112.025 7.28308 112.31 7.10724C112.652 6.90229 113.032 6.79865 113.45 6.79865C113.975 6.79865 114.414 6.96401 114.762 7.29589C115.197 7.70229 115.413 8.30899 115.413 9.11482V12.4033Z" fill="url(#paint11_linear_2_1321)"/>
<path d="M123.862 7.82926H122.479V10.4959C122.479 11.1737 122.725 11.5125 123.211 11.5125C123.436 11.5125 123.623 11.4939 123.771 11.4555L123.803 12.3812C123.555 12.4721 123.229 12.5175 122.828 12.5175C122.332 12.5175 121.946 12.3708 121.667 12.0773C121.387 11.7839 121.248 11.2901 121.248 10.5972V7.82926H120.423V6.91514H121.248V5.90902L122.478 5.54803V6.91398H123.86V7.82926H123.862Z" fill="url(#paint12_linear_2_1321)"/>
<path d="M130.507 12.4037H129.251V9.28285C129.251 8.29886 128.872 7.80628 128.114 7.80628C127.532 7.80628 127.134 8.09158 126.916 8.66218C126.879 8.78212 126.858 8.92884 126.858 9.10119V12.4025H125.603V4.3955H126.858V7.70381H126.882C127.277 7.10177 127.843 6.80133 128.578 6.80133C129.098 6.80133 129.528 6.96669 129.869 7.29856C130.294 7.71196 130.507 8.3268 130.507 9.13962V12.4037Z" fill="url(#paint13_linear_2_1321)"/>
<path d="M137.362 9.3998C137.362 9.61873 137.345 9.80272 137.315 9.95293H133.551C133.567 10.4956 133.747 10.909 134.096 11.1954C134.414 11.4516 134.825 11.5797 135.328 11.5797C135.885 11.5797 136.393 11.4935 136.851 11.32L137.047 12.1678C136.512 12.3937 135.882 12.5066 135.152 12.5066C134.278 12.5066 133.589 12.2563 133.091 11.7556C132.59 11.2548 132.342 10.5829 132.342 9.73983C132.342 8.91189 132.573 8.22251 133.039 7.67287C133.526 7.08597 134.183 6.79252 135.013 6.79252C135.825 6.79252 136.442 7.08597 136.859 7.67287C137.196 8.13867 137.362 8.71509 137.362 9.3998ZM136.164 9.08423C136.174 8.72207 136.091 8.40999 135.921 8.14682C135.703 7.80795 135.371 7.63794 134.922 7.63794C134.513 7.63794 134.178 7.8033 133.923 8.13517C133.715 8.39951 133.591 8.71509 133.551 9.08423H136.164Z" fill="url(#paint14_linear_2_1321)"/>
<path d="M56.4352 33.4464H53.7149L52.2248 28.8944H47.0454L45.6259 33.4464H42.9775L48.109 17.9494H51.2785L56.4352 33.4464ZM51.7756 26.9847L50.428 22.9381C50.2855 22.5247 50.0184 21.5512 49.6243 20.0187H49.5764C49.4195 20.6778 49.1667 21.6513 48.8194 22.9381L47.4958 26.9847H51.7756Z" fill="url(#paint15_linear_2_1321)"/>
<path d="M69.6313 27.7223C69.6313 29.6227 69.1031 31.1249 68.0466 32.2276C67.1003 33.2093 65.9252 33.6996 64.5226 33.6996C63.0085 33.6996 61.9209 33.1709 61.2585 32.1135H61.2106V38H58.6568V25.9511C58.6568 24.7563 58.6245 23.5301 58.5622 22.2725H60.8081L60.9506 24.0436H60.9986C61.8502 22.7091 63.1427 22.0431 64.8771 22.0431C66.2331 22.0431 67.365 22.5636 68.2706 23.6058C69.1786 24.6492 69.6313 26.0209 69.6313 27.7223ZM67.0296 27.8131C67.0296 26.7255 66.7781 25.8288 66.2726 25.1231C65.7204 24.3872 64.979 24.0192 64.0494 24.0192C63.4194 24.0192 62.8468 24.2241 62.3353 24.6282C61.8227 25.0358 61.4873 25.568 61.3304 26.2271C61.2513 26.5345 61.2118 26.786 61.2118 26.984V28.8471C61.2118 29.66 61.4681 30.3458 61.9808 30.906C62.4935 31.4661 63.1595 31.7456 63.9788 31.7456C64.9406 31.7456 65.6893 31.3846 66.2247 30.6649C66.7613 29.9441 67.0296 28.9939 67.0296 27.8131Z" fill="url(#paint16_linear_2_1321)"/>
<path d="M82.8523 27.7223C82.8523 29.6227 82.324 31.1249 81.2663 32.2276C80.3213 33.2093 79.1462 33.6996 77.7435 33.6996C76.2294 33.6996 75.1418 33.1709 74.4806 32.1135H74.4327V38H71.8789V25.9511C71.8789 24.7563 71.8466 23.5301 71.7843 22.2725H74.0302L74.1728 24.0436H74.2207C75.0711 22.7091 76.3636 22.0431 78.0993 22.0431C79.454 22.0431 80.586 22.5636 81.4939 23.6058C82.3983 24.6492 82.8523 26.0209 82.8523 27.7223ZM80.2506 27.8131C80.2506 26.7255 79.9978 25.8288 79.4923 25.1231C78.9401 24.3872 78.2011 24.0192 77.2704 24.0192C76.6391 24.0192 76.0677 24.2241 75.5551 24.6282C75.0424 25.0358 74.7082 25.568 74.5513 26.2271C74.4734 26.5345 74.4327 26.786 74.4327 26.984V28.8471C74.4327 29.66 74.689 30.3458 75.1993 30.906C75.712 31.4649 76.378 31.7456 77.1997 31.7456C78.1616 31.7456 78.9102 31.3846 79.4456 30.6649C79.9823 29.9441 80.2506 28.9939 80.2506 27.8131Z" fill="url(#paint17_linear_2_1321)"/>
<path d="M97.6333 29.1008C97.6333 30.419 97.1626 31.4915 96.2175 32.3194C95.1789 33.2242 93.7332 33.6761 91.8753 33.6761C90.16 33.6761 88.7849 33.3547 87.744 32.7107L88.3357 30.6414C89.4569 31.3005 90.6871 31.6312 92.0274 31.6312C92.9893 31.6312 93.7379 31.4193 94.2758 30.9977C94.8112 30.5762 95.0783 30.0103 95.0783 29.3046C95.0783 28.6757 94.8579 28.1459 94.4159 27.7162C93.9763 27.2865 93.242 26.8871 92.2167 26.518C89.4258 25.506 88.0315 24.0236 88.0315 22.0743C88.0315 20.8003 88.5202 19.7558 89.4988 18.943C90.4739 18.129 91.7747 17.7226 93.4014 17.7226C94.8519 17.7226 96.057 17.9683 97.0188 18.4586L96.3804 20.4824C95.482 20.0073 94.4662 19.7698 93.3295 19.7698C92.4311 19.7698 91.7292 19.9852 91.2261 20.4137C90.8009 20.7968 90.5876 21.2638 90.5876 21.8169C90.5876 22.4294 90.8308 22.936 91.3195 23.3343C91.7448 23.7022 92.5174 24.1005 93.6385 24.5302C95.01 25.067 96.0174 25.6947 96.6655 26.4143C97.3111 27.1316 97.6333 28.0295 97.6333 29.1008Z" fill="url(#paint18_linear_2_1321)"/>
<path d="M106.077 24.1356H103.262V29.561C103.262 30.9409 103.758 31.6303 104.752 31.6303C105.209 31.6303 105.587 31.5918 105.887 31.515L105.957 33.4003C105.454 33.5831 104.792 33.6751 103.971 33.6751C102.963 33.6751 102.175 33.3758 101.606 32.7784C101.039 32.1799 100.754 31.1761 100.754 29.7659V24.1333H99.077V22.2701H100.754V20.2241L103.262 19.4882V22.2701H106.077V24.1356Z" fill="url(#paint19_linear_2_1321)"/>
<path d="M118.778 27.768C118.778 29.4857 118.272 30.8958 117.264 31.9986C116.206 33.134 114.802 33.6999 113.052 33.6999C111.366 33.6999 110.023 33.1561 109.022 32.0685C108.02 30.9809 107.52 29.6079 107.52 27.9532C107.52 26.2216 108.035 24.8033 109.068 23.7005C110.1 22.5966 111.492 22.0446 113.242 22.0446C114.928 22.0446 116.285 22.5884 117.309 23.6772C118.289 24.7334 118.778 26.097 118.778 27.768ZM116.128 27.8484C116.128 26.8178 115.902 25.934 115.443 25.1969C114.908 24.3049 114.142 23.86 113.151 23.86C112.124 23.86 111.344 24.306 110.809 25.1969C110.35 25.9351 110.124 26.833 110.124 27.895C110.124 28.9255 110.35 29.8094 110.809 30.5453C111.361 31.4373 112.132 31.8822 113.128 31.8822C114.103 31.8822 114.868 31.428 115.42 30.522C115.891 29.771 116.128 28.8778 116.128 27.8484Z" fill="url(#paint20_linear_2_1321)"/>
<path d="M127.078 24.4559C126.825 24.4105 126.556 24.3872 126.273 24.3872C125.375 24.3872 124.68 24.7167 124.191 25.377C123.766 25.9592 123.553 26.6952 123.553 27.5837V33.4469H121L121.024 25.7915C121.024 24.5036 120.992 23.331 120.928 22.2736H123.153L123.246 24.4116H123.317C123.586 23.6768 124.012 23.0853 124.594 22.6416C125.163 22.2422 125.777 22.0431 126.44 22.0431C126.676 22.0431 126.889 22.0594 127.078 22.0885V24.4559Z" fill="url(#paint21_linear_2_1321)"/>
<path d="M138.5 27.3305C138.5 27.7753 138.47 28.1503 138.407 28.4565H130.745C130.775 29.5605 131.145 30.4047 131.857 30.987C132.503 31.5075 133.337 31.7683 134.363 31.7683C135.497 31.7683 136.532 31.5925 137.463 31.2397L137.863 32.9631C136.775 33.4242 135.491 33.6536 134.009 33.6536C132.227 33.6536 130.828 33.1436 129.81 32.1247C128.794 31.1057 128.285 29.7375 128.285 28.021C128.285 26.336 128.758 24.9328 129.706 23.8137C130.697 22.619 132.038 22.0216 133.724 22.0216C135.381 22.0216 136.635 22.619 137.487 23.8137C138.161 24.7628 138.5 25.9366 138.5 27.3305ZM136.065 26.6865C136.082 25.9506 135.915 25.3148 135.569 24.7779C135.127 24.0874 134.448 23.7427 133.534 23.7427C132.699 23.7427 132.02 24.0792 131.501 24.7546C131.076 25.2915 130.823 25.9354 130.745 26.6854H136.065V26.6865Z" fill="url(#paint22_linear_2_1321)"/>
<defs>
<linearGradient id="paint0_linear_2_1321" x1="72.9998" y1="4" x2="72.9998" y2="38.7154" gradientUnits="userSpaceOnUse">
<stop stop-color="white"/>
<stop offset="0.270829" stop-color="#ECF3F7"/>
<stop offset="0.619793" stop-color="#E0E7ED"/>
<stop offset="1" stop-color="#99AAC2"/>
</linearGradient>
<linearGradient id="paint1_linear_2_1321" x1="72.9998" y1="4" x2="72.9998" y2="38.7154" gradientUnits="userSpaceOnUse">
<stop stop-color="white"/>
<stop offset="0.270829" stop-color="#ECF3F7"/>
<stop offset="0.619793" stop-color="#E0E7ED"/>
<stop offset="1" stop-color="#99AAC2"/>
</linearGradient>
<linearGradient id="paint2_linear_2_1321" x1="72.9998" y1="4" x2="72.9998" y2="38.7154" gradientUnits="userSpaceOnUse">
<stop stop-color="white"/>
<stop offset="0.270829" stop-color="#ECF3F7"/>
<stop offset="0.619793" stop-color="#E0E7ED"/>
<stop offset="1" stop-color="#99AAC2"/>
</linearGradient>
<linearGradient id="paint3_linear_2_1321" x1="72.9998" y1="4" x2="72.9998" y2="38.7154" gradientUnits="userSpaceOnUse">
<stop stop-color="white"/>
<stop offset="0.270829" stop-color="#ECF3F7"/>
<stop offset="0.619793" stop-color="#E0E7ED"/>
<stop offset="1" stop-color="#99AAC2"/>
</linearGradient>
<linearGradient id="paint4_linear_2_1321" x1="72.9998" y1="4" x2="72.9998" y2="38.7154" gradientUnits="userSpaceOnUse">
<stop stop-color="white"/>
<stop offset="0.270829" stop-color="#ECF3F7"/>
<stop offset="0.619793" stop-color="#E0E7ED"/>
<stop offset="1" stop-color="#99AAC2"/>
</linearGradient>
<linearGradient id="paint5_linear_2_1321" x1="72.9998" y1="4" x2="72.9998" y2="38.7154" gradientUnits="userSpaceOnUse">
<stop stop-color="white"/>
<stop offset="0.270829" stop-color="#ECF3F7"/>
<stop offset="0.619793" stop-color="#E0E7ED"/>
<stop offset="1" stop-color="#99AAC2"/>
</linearGradient>
<linearGradient id="paint6_linear_2_1321" x1="72.9998" y1="4" x2="72.9998" y2="38.7154" gradientUnits="userSpaceOnUse">
<stop stop-color="white"/>
<stop offset="0.270829" stop-color="#ECF3F7"/>
<stop offset="0.619793" stop-color="#E0E7ED"/>
<stop offset="1" stop-color="#99AAC2"/>
</linearGradient>
<linearGradient id="paint7_linear_2_1321" x1="72.9998" y1="4" x2="72.9998" y2="38.7154" gradientUnits="userSpaceOnUse">
<stop stop-color="white"/>
<stop offset="0.270829" stop-color="#ECF3F7"/>
<stop offset="0.619793" stop-color="#E0E7ED"/>
<stop offset="1" stop-color="#99AAC2"/>
</linearGradient>
<linearGradient id="paint8_linear_2_1321" x1="72.9998" y1="4" x2="72.9998" y2="38.7154" gradientUnits="userSpaceOnUse">
<stop stop-color="white"/>
<stop offset="0.270829" stop-color="#ECF3F7"/>
<stop offset="0.619793" stop-color="#E0E7ED"/>
<stop offset="1" stop-color="#99AAC2"/>
</linearGradient>
<linearGradient id="paint9_linear_2_1321" x1="72.9998" y1="4" x2="72.9998" y2="38.7154" gradientUnits="userSpaceOnUse">
<stop stop-color="white"/>
<stop offset="0.270829" stop-color="#ECF3F7"/>
<stop offset="0.619793" stop-color="#E0E7ED"/>
<stop offset="1" stop-color="#99AAC2"/>
</linearGradient>
<linearGradient id="paint10_linear_2_1321" x1="72.9998" y1="4" x2="72.9998" y2="38.7154" gradientUnits="userSpaceOnUse">
<stop stop-color="white"/>
<stop offset="0.270829" stop-color="#ECF3F7"/>
<stop offset="0.619793" stop-color="#E0E7ED"/>
<stop offset="1" stop-color="#99AAC2"/>
</linearGradient>
<linearGradient id="paint11_linear_2_1321" x1="72.9998" y1="4" x2="72.9998" y2="38.7154" gradientUnits="userSpaceOnUse">
<stop stop-color="white"/>
<stop offset="0.270829" stop-color="#ECF3F7"/>
<stop offset="0.619793" stop-color="#E0E7ED"/>
<stop offset="1" stop-color="#99AAC2"/>
</linearGradient>
<linearGradient id="paint12_linear_2_1321" x1="72.9998" y1="4" x2="72.9998" y2="38.7154" gradientUnits="userSpaceOnUse">
<stop stop-color="white"/>
<stop offset="0.270829" stop-color="#ECF3F7"/>
<stop offset="0.619793" stop-color="#E0E7ED"/>
<stop offset="1" stop-color="#99AAC2"/>
</linearGradient>
<linearGradient id="paint13_linear_2_1321" x1="72.9998" y1="4" x2="72.9998" y2="38.7154" gradientUnits="userSpaceOnUse">
<stop stop-color="white"/>
<stop offset="0.270829" stop-color="#ECF3F7"/>
<stop offset="0.619793" stop-color="#E0E7ED"/>
<stop offset="1" stop-color="#99AAC2"/>
</linearGradient>
<linearGradient id="paint14_linear_2_1321" x1="72.9998" y1="4" x2="72.9998" y2="38.7154" gradientUnits="userSpaceOnUse">
<stop stop-color="white"/>
<stop offset="0.270829" stop-color="#ECF3F7"/>
<stop offset="0.619793" stop-color="#E0E7ED"/>
<stop offset="1" stop-color="#99AAC2"/>
</linearGradient>
<linearGradient id="paint15_linear_2_1321" x1="72.9998" y1="4" x2="72.9998" y2="38.7154" gradientUnits="userSpaceOnUse">
<stop stop-color="white"/>
<stop offset="0.270829" stop-color="#ECF3F7"/>
<stop offset="0.619793" stop-color="#E0E7ED"/>
<stop offset="1" stop-color="#99AAC2"/>
</linearGradient>
<linearGradient id="paint16_linear_2_1321" x1="72.9998" y1="4" x2="72.9998" y2="38.7154" gradientUnits="userSpaceOnUse">
<stop stop-color="white"/>
<stop offset="0.270829" stop-color="#ECF3F7"/>
<stop offset="0.619793" stop-color="#E0E7ED"/>
<stop offset="1" stop-color="#99AAC2"/>
</linearGradient>
<linearGradient id="paint17_linear_2_1321" x1="72.9998" y1="4" x2="72.9998" y2="38.7154" gradientUnits="userSpaceOnUse">
<stop stop-color="white"/>
<stop offset="0.270829" stop-color="#ECF3F7"/>
<stop offset="0.619793" stop-color="#E0E7ED"/>
<stop offset="1" stop-color="#99AAC2"/>
</linearGradient>
<linearGradient id="paint18_linear_2_1321" x1="72.9998" y1="4" x2="72.9998" y2="38.7154" gradientUnits="userSpaceOnUse">
<stop stop-color="white"/>
<stop offset="0.270829" stop-color="#ECF3F7"/>
<stop offset="0.619793" stop-color="#E0E7ED"/>
<stop offset="1" stop-color="#99AAC2"/>
</linearGradient>
<linearGradient id="paint19_linear_2_1321" x1="72.9998" y1="4" x2="72.9998" y2="38.7154" gradientUnits="userSpaceOnUse">
<stop stop-color="white"/>
<stop offset="0.270829" stop-color="#ECF3F7"/>
<stop offset="0.619793" stop-color="#E0E7ED"/>
<stop offset="1" stop-color="#99AAC2"/>
</linearGradient>
<linearGradient id="paint20_linear_2_1321" x1="72.9998" y1="4" x2="72.9998" y2="38.7154" gradientUnits="userSpaceOnUse">
<stop stop-color="white"/>
<stop offset="0.270829" stop-color="#ECF3F7"/>
<stop offset="0.619793" stop-color="#E0E7ED"/>
<stop offset="1" stop-color="#99AAC2"/>
</linearGradient>
<linearGradient id="paint21_linear_2_1321" x1="72.9998" y1="4" x2="72.9998" y2="38.7154" gradientUnits="userSpaceOnUse">
<stop stop-color="white"/>
<stop offset="0.270829" stop-color="#ECF3F7"/>
<stop offset="0.619793" stop-color="#E0E7ED"/>
<stop offset="1" stop-color="#99AAC2"/>
</linearGradient>
<linearGradient id="paint22_linear_2_1321" x1="72.9998" y1="4" x2="72.9998" y2="38.7154" gradientUnits="userSpaceOnUse">
<stop stop-color="white"/>
<stop offset="0.270829" stop-color="#ECF3F7"/>
<stop offset="0.619793" stop-color="#E0E7ED"/>
<stop offset="1" stop-color="#99AAC2"/>
</linearGradient>
</defs>
</svg>
