<svg width="1440" height="986" viewBox="0 0 1440 986" fill="none" xmlns="http://www.w3.org/2000/svg">
<g opacity="0.1">
<circle cx="979.5" cy="979.5" r="979.3" transform="matrix(-1 0 0 1 2306 -988)" stroke="#ECF7FF" stroke-width="0.4"/>
<circle cx="304.5" cy="304.5" r="304.3" transform="matrix(-1 0 0 1 488 -421)" stroke="#ECF7FF" stroke-width="0.4"/>
<circle cx="155.5" cy="155.5" r="155.3" transform="matrix(-1 0 0 1 644 -164)" stroke="#ECF7FF" stroke-width="0.4"/>
<circle cx="99.5" cy="99.5" r="99.3" transform="matrix(-1 0 0 1 57 -4)" stroke="#ECF7FF" stroke-width="0.4"/>
<circle cx="210.5" cy="210.5" r="210.3" transform="matrix(-1 0 0 1 856 504)" stroke="#ECF7FF" stroke-width="0.4"/>
<circle cx="363" cy="363" r="362.8" transform="matrix(-1 0 0 1 1409 18)" stroke="#ECF7FF" stroke-width="0.4"/>
<circle cx="45.5" cy="45.5" r="45.3" transform="matrix(-1 0 0 1 871 784)" stroke="#ECF7FF" stroke-width="0.4"/>
<circle cx="118.5" cy="118.5" r="118.3" transform="matrix(-1 0 0 1 827 749)" stroke="#ECF7FF" stroke-width="0.4"/>
<circle cx="722.5" cy="722.5" r="722.3" transform="matrix(-1 0 0 1 39 -956)" stroke="#ECF7FF" stroke-width="0.4"/>
</g>
</svg>
