<svg width="146" height="42" viewBox="0 0 146 42" fill="none" xmlns="http://www.w3.org/2000/svg">
<path d="M7.49179 8.21333C7.18028 8.53139 7 9.02658 7 9.66787V32.5423C7 33.1836 7.18028 33.6788 7.49179 33.9969L7.56868 34.0667L20.7106 21.2538V20.9512L7.56868 8.13834L7.49179 8.21333Z" fill="url(#paint0_linear_2_1323)"/>
<path d="M26.6771 25.525L22.3014 21.2519V20.9494L26.6824 16.6763L26.7805 16.7319L31.9689 19.6112C33.4496 20.4283 33.4496 21.773 31.9689 22.5953L26.7805 25.4694L26.6771 25.525Z" fill="url(#paint1_linear_2_1323)"/>
<path d="M25.985 26.266L21.5058 21.8972L8.287 34.7916C8.7788 35.2958 9.58078 35.3566 10.4928 34.8523L25.985 26.266Z" fill="url(#paint2_linear_2_1323)"/>
<path d="M25.985 15.9365L10.4928 7.35015C9.58078 6.85108 8.7788 6.91184 8.287 7.41608L21.5058 20.3053L25.985 15.9365Z" fill="url(#paint3_linear_2_1323)"/>
<path d="M50.3232 9.72482C50.3232 10.6453 50.0405 11.3826 49.4834 11.9324C48.843 12.5842 48.0088 12.9122 46.9866 12.9122C46.0097 12.9122 45.1755 12.5787 44.4912 11.9214C43.8055 11.2544 43.4634 10.4359 43.4634 9.45611C43.4634 8.47633 43.8055 7.65777 44.4912 6.99632C45.1755 6.33348 46.0097 6 46.9866 6C47.473 6 47.9367 6.09784 48.3792 6.27974C48.8203 6.46302 49.1794 6.71106 49.4396 7.01699L48.8486 7.59852C48.3948 7.07624 47.7769 6.81855 46.9866 6.81855C46.2741 6.81855 45.6562 7.06109 45.1317 7.55029C44.6128 8.04087 44.3527 8.67614 44.3527 9.45611C44.3527 10.2361 44.6128 10.8769 45.1317 11.3674C45.6562 11.8511 46.2741 12.0992 46.9866 12.0992C47.743 12.0992 48.3792 11.8511 48.8811 11.3619C49.212 11.0381 49.4 10.5916 49.4495 10.0211H46.9866V9.2246H50.2723C50.3119 9.39685 50.3232 9.56359 50.3232 9.72482Z" fill="url(#paint4_linear_2_1323)"/>
<path d="M55.5358 6.96341H52.4495V9.05802H55.2319V9.85452H52.4495V11.9491H55.5358V12.7608H51.5758V6.15175H55.5358V6.96341Z" fill="url(#paint5_linear_2_1323)"/>
<path d="M59.2143 12.7608H58.3405V6.96341H56.4475V6.15175H61.1088V6.96341H59.2143V12.7608Z" fill="url(#paint6_linear_2_1323)"/>
<path d="M64.4822 12.7608V6.15175H65.3545V12.7608H64.4822Z" fill="url(#paint7_linear_2_1323)"/>
<path d="M69.2212 12.7608H68.3545V6.96341H66.4543V6.15175H71.1213V6.96341H69.2212V12.7608Z" fill="url(#paint8_linear_2_1323)"/>
<path d="M79.9464 11.9104C79.2777 12.5787 78.4492 12.9122 77.4609 12.9122C76.467 12.9122 75.6385 12.5787 74.9698 11.9104C74.3025 11.2434 73.9702 10.4249 73.9702 9.45611C73.9702 8.48735 74.3025 7.6688 74.9698 7.00183C75.6385 6.33348 76.467 6 77.4609 6C78.4435 6 79.272 6.33348 79.9408 7.00734C80.6137 7.67982 80.946 8.49286 80.946 9.45611C80.946 10.4249 80.6137 11.2434 79.9464 11.9104ZM75.6159 11.3564C76.1192 11.8511 76.7314 12.0992 77.4609 12.0992C78.1848 12.0992 78.8027 11.8511 79.3003 11.3564C79.8022 10.8617 80.0567 10.2264 80.0567 9.45611C80.0567 8.68579 79.8022 8.05051 79.3003 7.5558C78.8027 7.06109 78.1848 6.81304 77.4609 6.81304C76.7314 6.81304 76.1192 7.06109 75.6159 7.5558C75.114 8.05051 74.8595 8.68579 74.8595 9.45611C74.8595 10.2264 75.114 10.8617 75.6159 11.3564Z" fill="url(#paint9_linear_2_1323)"/>
<path d="M82.1725 12.7608V6.15175H83.2328L86.5298 11.2918H86.568L86.5298 10.0213V6.15175H87.4022V12.7608H86.4917L83.0391 7.36717H83.001L83.0391 8.64323V12.7608H82.1725Z" fill="url(#paint10_linear_2_1323)"/>
<path d="M73.7555 22.4126C71.099 22.4126 68.9288 24.3832 68.9288 27.102C68.9288 29.7988 71.099 31.7901 73.7555 31.7901C76.4177 31.7901 78.5879 29.7988 78.5879 27.102C78.5879 24.3832 76.4177 22.4126 73.7555 22.4126ZM73.7555 29.9435C72.2979 29.9435 71.0438 28.7708 71.0438 27.102C71.0438 25.4112 72.2979 24.2592 73.7555 24.2592C75.2132 24.2592 76.4729 25.4112 76.4729 27.102C76.4729 28.7708 75.2132 29.9435 73.7555 29.9435ZM63.2241 22.4126C60.5619 22.4126 58.3973 24.3832 58.3973 27.102C58.3973 29.7988 60.5619 31.7901 63.2241 31.7901C65.8848 31.7901 68.0508 29.7988 68.0508 27.102C68.0508 24.3832 65.8848 22.4126 63.2241 22.4126ZM63.2241 29.9435C61.765 29.9435 60.5067 28.7708 60.5067 27.102C60.5067 25.4112 61.765 24.2592 63.2241 24.2592C64.6817 24.2592 65.9357 25.4112 65.9357 27.102C65.9357 28.7708 64.6817 29.9435 63.2241 29.9435ZM50.6921 23.8499V25.8425H55.5739C55.4311 26.956 55.0494 27.7745 54.4641 28.345C53.7515 29.034 52.6417 29.7988 50.6921 29.7988C47.6877 29.7988 45.3351 27.4355 45.3351 24.5072C45.3351 21.5789 47.6877 19.2156 50.6921 19.2156C52.3165 19.2156 53.4985 19.8343 54.3708 20.6363L55.8115 19.2321C54.5913 18.0966 52.9683 17.2243 50.6921 17.2243C46.5722 17.2243 43.1098 20.4916 43.1098 24.5072C43.1098 28.5228 46.5722 31.7901 50.6921 31.7901C52.9188 31.7901 54.5913 31.079 55.9062 29.7451C57.2535 28.4318 57.6734 26.5853 57.6734 25.0942C57.6734 24.6312 57.6339 24.2054 57.5632 23.8499H50.6921ZM101.937 25.3947C101.54 24.346 100.314 22.4126 97.8172 22.4126C95.343 22.4126 93.2831 24.3129 93.2831 27.102C93.2831 29.7286 95.3218 31.7901 98.0547 31.7901C100.264 31.7901 101.54 30.4768 102.064 29.712L100.424 28.6468C99.8771 29.4268 99.132 29.9435 98.0547 29.9435C96.9844 29.9435 96.2167 29.4654 95.7247 28.5228L102.159 25.928L101.937 25.3947ZM95.3769 26.956C95.3218 25.148 96.8176 24.2219 97.8893 24.2219C98.7291 24.2219 99.4416 24.6312 99.6791 25.2169L95.3769 26.956ZM90.1472 31.5049H92.2623V17.7245H90.1472V31.5049ZM86.6834 23.4571H86.6127C86.1377 22.9087 85.2314 22.4126 84.0834 22.4126C81.6743 22.4126 79.4716 24.4741 79.4716 27.1172C79.4716 29.7451 81.6743 31.7901 84.0834 31.7901C85.2314 31.7901 86.1377 31.2899 86.6127 30.7249H86.6834V31.3974C86.6834 33.1902 85.7008 34.1534 84.1159 34.1534C82.8237 34.1534 82.0221 33.2439 81.6912 32.4791L79.8519 33.2274C80.3821 34.4704 81.786 36 84.1159 36C86.5957 36 88.6882 34.5779 88.6882 31.1176V22.6978H86.6834V23.4571ZM84.2644 29.9435C82.8067 29.9435 81.5866 28.7543 81.5866 27.1172C81.5866 25.4649 82.8067 24.2592 84.2644 24.2592C85.7008 24.2592 86.8333 25.4649 86.8333 27.1172C86.8333 28.7543 85.7008 29.9435 84.2644 29.9435ZM111.839 17.7245H106.781V31.5049H108.89V26.2835H111.839C114.182 26.2835 116.479 24.6312 116.479 22.0033C116.479 19.3768 114.176 17.7245 111.839 17.7245ZM111.894 24.3666H108.89V19.6414H111.894C113.469 19.6414 114.369 20.916 114.369 22.0033C114.369 23.0699 113.469 24.3666 111.894 24.3666ZM124.934 22.3864C123.41 22.3864 121.825 23.0424 121.173 24.4962L123.045 25.261C123.448 24.4962 124.189 24.2481 124.972 24.2481C126.066 24.2481 127.176 24.8889 127.193 26.0203V26.165C126.812 25.95 125.994 25.6317 124.989 25.6317C122.973 25.6317 120.919 26.7134 120.919 28.7323C120.919 30.5788 122.57 31.7681 124.426 31.7681C125.846 31.7681 126.629 31.1438 127.121 30.4176H127.193V31.4828H129.231V26.1967C129.231 23.7534 127.359 22.3864 124.934 22.3864ZM124.68 29.938C123.99 29.938 123.028 29.6045 123.028 28.7708C123.028 27.7042 124.227 27.295 125.265 27.295C126.194 27.295 126.629 27.4948 127.193 27.758C127.028 29.034 125.901 29.938 124.68 29.938ZM136.653 22.6882L134.228 28.662H134.156L131.65 22.6882H129.375L133.141 31.0363L130.992 35.6817H133.196L139 22.6882H136.653ZM117.639 31.5049H119.754V17.7245H117.639V31.5049Z" fill="url(#paint11_linear_2_1323)"/>
<defs>
<linearGradient id="paint0_linear_2_1323" x1="73" y1="6" x2="73" y2="36.6313" gradientUnits="userSpaceOnUse">
<stop stop-color="white"/>
<stop offset="0.270829" stop-color="#ECF3F7"/>
<stop offset="0.619793" stop-color="#E0E7ED"/>
<stop offset="1" stop-color="#99AAC2"/>
</linearGradient>
<linearGradient id="paint1_linear_2_1323" x1="73" y1="6" x2="73" y2="36.6313" gradientUnits="userSpaceOnUse">
<stop stop-color="white"/>
<stop offset="0.270829" stop-color="#ECF3F7"/>
<stop offset="0.619793" stop-color="#E0E7ED"/>
<stop offset="1" stop-color="#99AAC2"/>
</linearGradient>
<linearGradient id="paint2_linear_2_1323" x1="73" y1="6" x2="73" y2="36.6313" gradientUnits="userSpaceOnUse">
<stop stop-color="white"/>
<stop offset="0.270829" stop-color="#ECF3F7"/>
<stop offset="0.619793" stop-color="#E0E7ED"/>
<stop offset="1" stop-color="#99AAC2"/>
</linearGradient>
<linearGradient id="paint3_linear_2_1323" x1="73" y1="6" x2="73" y2="36.6313" gradientUnits="userSpaceOnUse">
<stop stop-color="white"/>
<stop offset="0.270829" stop-color="#ECF3F7"/>
<stop offset="0.619793" stop-color="#E0E7ED"/>
<stop offset="1" stop-color="#99AAC2"/>
</linearGradient>
<linearGradient id="paint4_linear_2_1323" x1="73" y1="6" x2="73" y2="36.6313" gradientUnits="userSpaceOnUse">
<stop stop-color="white"/>
<stop offset="0.270829" stop-color="#ECF3F7"/>
<stop offset="0.619793" stop-color="#E0E7ED"/>
<stop offset="1" stop-color="#99AAC2"/>
</linearGradient>
<linearGradient id="paint5_linear_2_1323" x1="73" y1="6" x2="73" y2="36.6313" gradientUnits="userSpaceOnUse">
<stop stop-color="white"/>
<stop offset="0.270829" stop-color="#ECF3F7"/>
<stop offset="0.619793" stop-color="#E0E7ED"/>
<stop offset="1" stop-color="#99AAC2"/>
</linearGradient>
<linearGradient id="paint6_linear_2_1323" x1="73" y1="6" x2="73" y2="36.6313" gradientUnits="userSpaceOnUse">
<stop stop-color="white"/>
<stop offset="0.270829" stop-color="#ECF3F7"/>
<stop offset="0.619793" stop-color="#E0E7ED"/>
<stop offset="1" stop-color="#99AAC2"/>
</linearGradient>
<linearGradient id="paint7_linear_2_1323" x1="73" y1="6" x2="73" y2="36.6313" gradientUnits="userSpaceOnUse">
<stop stop-color="white"/>
<stop offset="0.270829" stop-color="#ECF3F7"/>
<stop offset="0.619793" stop-color="#E0E7ED"/>
<stop offset="1" stop-color="#99AAC2"/>
</linearGradient>
<linearGradient id="paint8_linear_2_1323" x1="73" y1="6" x2="73" y2="36.6313" gradientUnits="userSpaceOnUse">
<stop stop-color="white"/>
<stop offset="0.270829" stop-color="#ECF3F7"/>
<stop offset="0.619793" stop-color="#E0E7ED"/>
<stop offset="1" stop-color="#99AAC2"/>
</linearGradient>
<linearGradient id="paint9_linear_2_1323" x1="73" y1="6" x2="73" y2="36.6313" gradientUnits="userSpaceOnUse">
<stop stop-color="white"/>
<stop offset="0.270829" stop-color="#ECF3F7"/>
<stop offset="0.619793" stop-color="#E0E7ED"/>
<stop offset="1" stop-color="#99AAC2"/>
</linearGradient>
<linearGradient id="paint10_linear_2_1323" x1="73" y1="6" x2="73" y2="36.6313" gradientUnits="userSpaceOnUse">
<stop stop-color="white"/>
<stop offset="0.270829" stop-color="#ECF3F7"/>
<stop offset="0.619793" stop-color="#E0E7ED"/>
<stop offset="1" stop-color="#99AAC2"/>
</linearGradient>
<linearGradient id="paint11_linear_2_1323" x1="73" y1="6" x2="73" y2="36.6313" gradientUnits="userSpaceOnUse">
<stop stop-color="white"/>
<stop offset="0.270829" stop-color="#ECF3F7"/>
<stop offset="0.619793" stop-color="#E0E7ED"/>
<stop offset="1" stop-color="#99AAC2"/>
</linearGradient>
</defs>
</svg>
