<svg width="720" height="126" viewBox="0 0 720 126" fill="none" xmlns="http://www.w3.org/2000/svg">
<path fill-rule="evenodd" clip-rule="evenodd" d="M683.02 12.534V6.267C683.02 2.07601 682.904 0 682.671 0C682.479 0 682.413 0.148413 682.526 0.329842C682.641 0.51723 682.329 0.676192 681.803 0.697935C681.225 0.72169 681.098 0.793602 681.465 0.889269C681.995 1.02713 681.979 1.10065 681.299 1.63536C680.885 1.9619 679.953 2.56159 679.229 2.96826C678.504 3.37492 677.244 4.25429 676.428 4.92259C675.612 5.59081 674.166 6.69943 673.213 7.38585C672.261 8.07251 671.558 8.75893 671.652 8.91105C671.746 9.06341 671.487 9.29034 671.077 9.41499C669.83 9.79404 666.943 12.1801 666.99 12.7919C667.027 13.2567 666.708 13.3712 665.222 13.4292C664.225 13.4678 661.741 13.6713 659.701 13.8807C656.066 14.2545 655.993 14.2782 655.993 15.0876C655.993 15.7839 655.916 15.8489 655.499 15.5026C655.094 15.1661 655.004 15.1889 655.004 15.6272C655.004 15.9215 655.046 16.1623 655.096 16.1623C655.147 16.1623 657.26 15.8677 659.793 15.5079C662.326 15.1477 665.047 14.8508 665.84 14.8482C667.28 14.8429 667.281 14.8442 667.076 15.8736C666.962 16.4406 666.87 21.9325 666.87 28.0778V39.2512H661.307C656.765 39.2512 655.669 39.1605 655.334 38.7564C655.108 38.4843 654.806 38.2617 654.661 38.2617C654.427 38.2617 652.731 36.7843 650.873 34.9616C650.504 34.5998 650.103 34.3036 649.981 34.3036C649.86 34.3036 649.406 33.9695 648.971 33.5614C646.591 31.3244 645.419 30.3455 645.121 30.3455C644.937 30.3455 644.787 30.2238 644.787 30.0746C644.787 29.9259 643.786 29.0063 642.562 28.0309C641.339 27.056 640.144 25.9902 639.907 25.663C639.67 25.3358 639.355 25.068 639.207 25.068C639.058 25.068 638.371 24.5485 637.678 23.9135C636.985 23.2786 636.299 22.7591 636.153 22.7591C636.007 22.7591 635.888 26.4698 635.888 31.0051V39.2512H632.303C629.518 39.2512 628.626 39.3617 628.307 39.746C628.082 40.0181 627.466 40.2407 626.938 40.2407C626.378 40.2407 625.898 40.4525 625.784 40.7497C625.631 41.1501 625.265 41.2154 624.065 41.0557C622.946 40.9073 622.671 40.9462 623.034 41.2016C623.732 41.6934 625.248 41.6429 628.039 41.0343C631.6 40.2576 636.833 39.9267 637.974 40.4056C638.836 40.7671 638.671 40.8272 635.832 41.1867C627.291 42.2692 625.842 42.8313 631.521 42.8587L635.888 42.8795V51.4313C635.888 59.2984 635.934 59.9949 636.465 60.1338C637.014 60.2773 637.014 60.2865 636.465 60.3228C636.035 60.3512 635.888 60.6494 635.888 61.4924C635.888 62.4038 635.744 62.6519 635.146 62.7669L634.405 62.9101L635.146 62.955C635.86 62.9982 635.888 63.1169 635.888 66.1333V69.2668L629.049 69.2889C623.071 69.3081 622.376 69.3628 623.528 69.7237C624.253 69.9506 626.033 70.3233 627.483 70.5522C628.934 70.7808 630.832 71.1044 631.702 71.2716C632.572 71.4388 633.797 71.5757 634.424 71.5757C635.157 71.5757 635.767 71.8116 636.129 72.2354C636.747 72.9571 637.536 73.1154 637.536 72.5177C637.536 72.2472 638.296 72.2041 640.223 72.3647C643.302 72.6216 643.908 72.8453 643.464 73.5594C643.213 73.9628 643.041 73.9767 642.494 73.6372C642.129 73.4106 641.392 73.2249 640.858 73.2249C640.323 73.2249 639.506 73.0801 639.041 72.9033C638.37 72.648 638.195 72.682 638.195 73.0682C638.195 73.6567 637.114 73.6896 633.221 73.221C631.697 73.0372 629.115 72.7364 627.483 72.552C618.814 71.5724 612.876 70.5786 610.75 69.7507C609.003 69.0706 592.638 69.0451 594.196 69.7246C595.959 70.4935 602.456 71.5863 611.004 72.552C612.635 72.7364 615.231 73.0524 616.772 73.2543C618.312 73.4561 623.244 73.6999 627.731 73.7959L635.888 73.9704V78.6617C635.888 81.242 635.98 84.2383 636.093 85.3199L636.299 87.2865L632.056 87.6901C629.722 87.9125 626.107 88.2538 624.023 88.4494C615.996 89.2015 616.281 89.3406 625.671 89.2566C630.837 89.21 635.287 89.0709 635.558 88.9469C635.993 88.7492 636.053 90.1389 636.057 100.388L636.06 112.055L631.772 112.448C629.413 112.665 626.149 112.982 624.517 113.154C622.886 113.326 619.326 113.688 616.607 113.959C603.196 115.296 600.95 115.757 608.532 115.619C612.067 115.554 615.775 115.354 616.772 115.174C617.769 114.994 620.364 114.679 622.539 114.473C630.963 113.677 633.139 113.475 634.624 113.352L636.162 113.223L636.051 119.466C635.947 125.343 635.976 125.703 636.538 125.607C636.866 125.551 639.82 122.516 643.102 118.863L649.069 112.221L652.284 111.867C654.052 111.672 657.427 111.354 659.784 111.161C662.14 110.968 665.551 110.671 667.364 110.502C669.177 110.332 672.44 110.028 674.615 109.825C676.791 109.623 678.867 109.414 679.23 109.362C681.12 109.091 664.61 109.239 662.091 109.515C660.459 109.695 657.567 109.991 655.664 110.173C653.76 110.355 651.758 110.593 651.214 110.701L650.225 110.898L652.368 108.652V89.4848L654.922 89.274C656.327 89.1579 659.33 88.9129 661.596 88.7298C663.862 88.5464 666.019 88.3274 666.39 88.243C667.046 88.0932 667.06 88.1958 666.927 92.2017C666.823 95.3319 666.888 96.3139 667.2 96.3139C667.425 96.3139 669.802 94.3164 672.482 91.8749L677.354 87.4355L680.929 87.0997C682.895 86.9147 686.209 86.6172 688.293 86.4384C705.297 84.9785 706.452 84.7816 697.028 84.9475C692.858 85.021 688.335 85.2166 686.975 85.3822C685.615 85.5482 683.242 85.7863 681.702 85.9119L678.9 86.1399L683.02 82.3979V73.9704L674.862 73.7959C670.376 73.6999 665.444 73.4561 663.904 73.2543C662.363 73.0524 659.767 72.7364 658.136 72.552C649.588 71.5863 643.091 70.4935 641.328 69.7246C640.463 69.3477 641.103 69.2909 646.353 69.2797L652.368 69.2668V66.1564C652.368 63.1928 652.333 63.039 651.626 62.9029L650.885 62.7597L651.626 62.7148C652.315 62.6733 652.368 62.5173 652.368 60.501V58.3323L654.699 60.4056C656.657 62.1469 656.934 62.5173 656.43 62.7165C655.949 62.9059 656.005 62.9583 656.711 62.9767C657.339 62.9932 658.618 63.9039 661.145 66.1333L664.696 69.2668H683.02V66.1564C683.02 63.1928 682.985 63.039 682.278 62.9029L681.537 62.7597L683.02 62.67V39.9109H667.529V41.3952C667.529 42.2116 667.381 42.8795 667.199 42.8795C667.004 42.8795 666.87 44.1134 666.87 45.9216C666.87 48.7688 666.837 48.9166 666.357 48.2305C666.075 47.8271 665.711 47.4972 665.548 47.4972C665.385 47.4972 664.896 47.1635 664.462 46.7551C661.511 43.9828 660.985 43.5391 660.651 43.5391C660.446 43.5391 660.278 43.3907 660.278 43.2093C660.278 42.9989 657.209 42.8689 651.791 42.8501C643.836 42.8224 643.407 42.7907 644.952 42.3458C645.858 42.0849 647.712 41.7442 649.072 41.5891C650.431 41.4337 653.323 41.0713 655.499 40.7836C664.324 39.6157 669.265 39.2459 676.016 39.2485L683.02 39.2512V13.2735L688.788 12.6303L683.02 12.534ZM638.195 39.9379C638.195 39.7647 638.677 39.5629 639.266 39.4896C639.855 39.4168 640.507 39.333 640.714 39.3039C641.139 39.2446 641.552 40.0702 641.249 40.3734C640.907 40.7147 639.843 40.5874 639.843 40.2051C639.843 39.9798 639.527 39.9188 639.019 40.0464C638.566 40.1603 638.195 40.1114 638.195 39.9379ZM648.413 39.777C644.655 40.3126 642.161 40.2661 642.392 39.6648C642.509 39.3584 643.715 39.2614 647.047 39.2908L651.544 39.3304L648.413 39.777ZM639.601 60.2635C639.195 60.3416 638.454 60.3436 637.953 60.2681C637.452 60.1922 637.783 60.1282 638.69 60.1255C639.596 60.1233 640.006 60.1853 639.601 60.2635ZM646.125 73.5548C645.933 73.5548 645.776 73.4064 645.776 73.2249C645.776 73.0435 645.841 72.8951 645.921 72.8951C646.001 72.8951 646.158 73.0435 646.27 73.2249C646.382 73.4064 646.317 73.5548 646.125 73.5548ZM652.368 73.9225L651.132 73.7794C650.452 73.7005 651.082 73.691 652.532 73.7583C653.983 73.8256 657.802 73.8816 661.02 73.8826L666.87 73.8846V84.7694H664.049C662.497 84.7694 660.236 84.9082 659.023 85.0785C657.81 85.2483 655.816 85.4749 654.592 85.5821L652.368 85.7774V73.9225ZM659.289 86.7178C661.736 86.5143 663.801 86.2896 663.876 86.2184C663.952 86.1471 664.73 86.0888 665.607 86.0888C666.938 86.0888 667.199 86.189 667.199 86.7006C667.199 87.2162 666.849 87.3444 664.975 87.515C664.381 87.5691 663.437 87.6545 662.385 87.7496C661.27 87.8502 660.032 87.9617 658.96 88.0579C656.875 88.2453 654.539 88.4894 653.768 88.6005C652.524 88.7799 652.368 88.7295 652.368 88.1483C652.368 87.3639 652.945 87.2449 659.289 86.7178Z" fill="url(#paint0_linear_20_2158)"/>
<path d="M679.003 0.555159C679.241 0.650423 679.525 0.638586 679.635 0.529068C679.744 0.41955 679.55 0.34168 679.202 0.355933C678.818 0.371716 678.74 0.449909 679.003 0.555159Z" fill="url(#paint1_linear_20_2158)"/>
<path fill-rule="evenodd" clip-rule="evenodd" d="M62.5074 5.92427C62.3551 5.91702 60.9713 4.80381 59.4322 3.45046C57.7814 1.99854 56.3621 1.00571 55.9715 1.02874C55.607 1.05024 54.9354 1.4582 54.4785 1.93581C54.0218 2.4131 52.9994 3.32314 52.206 3.9581C51.413 4.59307 50.3454 5.52091 49.8343 6.01962C49.3227 6.51865 48.804 6.92668 48.6817 6.92668C48.559 6.92668 48.0336 7.372 47.5142 7.91621C46.9944 8.46042 46.4965 8.90573 46.4075 8.90573C46.3188 8.90573 45.6349 9.49947 44.8876 10.2251C44.1404 10.9507 43.4045 11.5445 43.2525 11.5445C43.1003 11.5445 42.4018 12.1075 41.7005 12.7956C40.9988 13.4839 39.9919 14.384 39.4622 14.7963C38.0058 15.9304 35.6838 17.8857 34.8041 18.7185C34.373 19.1266 33.9016 19.4607 33.7563 19.4607C33.611 19.4607 32.9577 19.9802 32.3045 20.6151L31.1167 21.7696L26.7333 21.7979C21.6392 21.8309 22.1718 22.295 27.7056 22.6453L31.084 22.8594V42.8349C31.084 48.6867 31.1624 54.5433 31.1347 60.3977L31.0734 73.1801L31.9851 73.285C32.4864 73.3427 28.5214 73.3645 23.1737 73.3332C16.475 73.2942 14.2197 73.3628 15.9227 73.5532C19.5445 73.9585 25.5705 74.5301 28.7725 74.7719C30.4015 74.8949 31.7533 75.167 32.0095 75.4233C32.3763 75.7905 32.3361 75.8637 31.7665 75.8637C31.1202 75.8637 31.084 76.0444 31.084 79.2713C31.084 82.6594 31.0893 82.6815 31.9904 83.1304C33.2178 83.7423 35.0539 85.468 34.842 85.811C34.7478 85.9638 34.8844 86.0888 35.146 86.0888C35.4076 86.0888 35.6989 86.3856 35.7939 86.7485C35.8885 87.1113 36.1776 87.4081 36.4355 87.4081C36.694 87.4081 37.0902 87.7542 37.3163 88.177C37.5424 88.5999 38.1237 89.1801 38.608 89.4663C39.4893 89.9878 42.0581 92.3795 42.5324 93.1207C42.6711 93.3371 43.3778 93.9505 44.1029 94.4843C44.8281 95.0179 45.4955 95.5513 45.5861 95.6696C45.6767 95.7881 45.9371 95.9445 46.1648 96.017C46.3925 96.0896 42.5364 96.1192 37.5954 96.0833C29.2825 96.0226 28.7841 96.0506 30.9192 96.4577C32.1882 96.6994 34.9319 97.0741 37.0167 97.2899C39.1014 97.5056 41.9194 97.8084 43.2789 97.9631C44.6385 98.1175 47.679 98.4133 50.0356 98.6208C52.3922 98.8283 55.4934 99.1363 56.9271 99.3052C58.3607 99.4741 60.1766 99.6123 60.9619 99.6123H62.3904L62.1805 103.994C61.9979 107.803 62.0413 108.446 62.5124 108.918C62.8107 109.216 63.0546 109.583 63.0546 109.733C63.0546 109.882 63.5253 110.449 64.1003 110.992L65.1462 111.98L61.8755 112.356C60.0766 112.563 56.9735 112.903 54.9795 113.112C46.3982 114.013 39.2364 114.89 36.1927 115.414C33.8009 115.825 43.417 115.861 46.2453 115.451C49.5494 114.973 64.7757 113.346 74.5079 112.432L78.5454 112.053V102.581L69.152 102.527L70.4276 101.932C71.1289 101.605 71.7963 101.199 71.9108 101.029C72.1549 100.666 78.0655 101.128 87.4445 102.243C88.9853 102.426 93.8056 102.557 98.1562 102.534C103.837 102.503 105.416 102.42 103.759 102.237C94.8418 101.254 91.0496 100.879 83.8299 100.263C81.5697 100.07 79.0704 99.767 78.2762 99.5889C77.4818 99.4107 76.3273 99.3596 75.7109 99.4754C74.7865 99.6489 74.5903 99.5856 74.5903 99.1139C74.5903 98.6191 74.6642 98.603 75.1385 98.9948C75.5656 99.3478 75.7169 99.3567 75.825 99.0351C75.9011 98.8085 76.3097 98.6228 76.7327 98.6228C77.1556 98.6228 77.5679 98.8085 77.6489 99.0351C78.1306 100.384 78.3932 98.0277 78.4854 91.5258L78.5902 84.153L82.0062 83.5285L78.5454 83.45V75.8637L86.6205 75.769L83.9837 75.5223C82.5336 75.3867 79.5672 75.1113 77.3919 74.9108C68.3787 74.0789 66.3611 73.8886 63.2193 73.5729C61.4066 73.3908 57.0681 73.2381 53.5787 73.2335L47.2341 73.2249V28.6775L49.9004 26.0479C51.3672 24.6019 52.702 23.4188 52.8668 23.4188C53.0319 23.4188 53.1667 23.2704 53.1667 23.0889C53.1667 22.9036 52.1918 22.7502 50.942 22.739C49.7182 22.7278 47.6791 22.5216 46.4101 22.2812L44.1029 21.8435L49.5412 21.7686C55.701 21.6838 56.1444 21.7079 56.6954 22.1601C56.9143 22.3392 57.2376 22.3966 57.4143 22.2874C57.5908 22.1779 57.8285 22.2396 57.9426 22.4239C58.0591 22.6129 57.8179 22.7637 57.3885 22.77L56.6275 22.7812L57.3691 23.4003C57.777 23.7407 58.1106 24.1213 58.1106 24.2464C58.1106 24.3713 58.5556 24.8895 59.0994 25.3978C59.6432 25.9061 60.0882 26.4824 60.0882 26.6783C60.0882 26.8742 60.4501 27.1256 60.8927 27.2367C61.4267 27.3706 61.7526 27.7335 61.8614 28.315C62.0347 29.2401 62.228 44.9924 62.1258 49.8748L62.0658 52.747L56.9571 52.9417L62.245 53.5063L61.9925 73.2249H78.5454V59.0763L82.0062 58.834L78.5454 58.7119V56.0731L89.5868 56.0197L88.2684 55.3953C87.5433 55.052 86.5513 54.7673 86.0641 54.7623C85.577 54.7577 84.2422 54.5456 83.0978 54.2913C81.9534 54.0367 80.4614 53.7332 79.7814 53.6165L78.5454 53.4044V22.7591H71.5966C66.1841 22.7591 64.6777 22.6681 64.7846 22.3468C64.8871 22.0387 66.6418 21.912 71.7337 21.8454L78.5454 21.756L78.5398 20.691C78.5342 19.6695 77.4073 18.1413 76.6595 18.1413C76.4892 18.1413 76.1512 17.7702 75.9087 17.3167C75.6662 16.8632 75.3573 16.4921 75.2225 16.4921C74.9196 16.4921 64.0865 7.45905 63.3314 6.57671C63.0304 6.2248 62.6596 5.9312 62.5074 5.92427ZM34.6271 73.8964C34.1287 73.8899 33.7207 73.7362 33.7207 73.5548C33.7207 73.1263 42.3409 73.1335 46.7397 73.566C50.1763 73.9034 54.647 74.322 61.077 74.9078C63.1617 75.0978 65.9797 75.3699 67.3393 75.5124C69.7958 75.7697 69.7864 75.7716 65.9055 75.8175L61.9995 75.8637L62.2306 84.4408L61.2418 84.5824C60.698 84.6605 58.9922 84.8841 57.4515 85.0798C55.9107 85.2754 54.2791 85.4881 53.8259 85.5521C53.3727 85.6164 55.0233 85.6893 57.4936 85.7141L61.9853 85.7589L62.1372 91.9435C62.2207 95.3451 62.2655 98.1633 62.2368 98.2062C62.1844 98.2837 60.5823 98.1118 52.3428 97.1448C49.9862 96.868 47.8728 96.6421 47.6461 96.6427C47.325 96.6434 47.2341 94.3463 47.2341 86.2537V75.8637L51.1068 75.8175C54.9697 75.7716 54.9732 75.7707 52.5076 75.5124C51.148 75.3702 48.2558 75.0908 46.0805 74.8919C43.9051 74.6933 40.6422 74.3906 38.8294 74.2194C37.0167 74.0482 35.1255 73.9027 34.6271 73.8964ZM37.9316 75.7736C37.2566 75.8445 36.07 75.8455 35.2948 75.7756C34.5196 75.706 35.0721 75.6479 36.5223 75.647C37.9725 75.6457 38.6067 75.7027 37.9316 75.7736ZM65.6089 102.548C64.5941 102.517 64.5809 102.501 65.3617 102.251C66.5248 101.878 66.6801 101.878 66.6801 102.251C66.6801 102.432 66.1982 102.566 65.6089 102.548Z" fill="url(#paint2_linear_20_2158)"/>
<path d="M684.338 1.06603C683.704 1.06603 683.444 1.13399 683.761 1.21678C684.079 1.29988 684.598 1.29988 684.915 1.21678C685.232 1.13399 684.973 1.06603 684.338 1.06603Z" fill="url(#paint3_linear_20_2158)"/>
<path d="M686.567 1.55258C686.977 1.63141 687.57 1.62843 687.885 1.54597C688.2 1.46351 687.865 1.39885 687.14 1.40247C686.415 1.4061 686.157 1.47374 686.567 1.55258Z" fill="url(#paint4_linear_20_2158)"/>
<path d="M700.159 2.90722C701.51 2.89337 700.881 2.73803 697.687 2.29665C692.118 1.52753 690.043 1.54597 694.721 2.32339C696.715 2.6546 699.162 2.91744 700.159 2.90722Z" fill="url(#paint5_linear_20_2158)"/>
<path d="M712.848 9.49351C716.292 9.49681 719.481 9.38069 719.934 9.23558C720.994 8.89615 708.908 8.89615 707.575 9.23558C707.016 9.37771 709.31 9.48988 712.848 9.49351Z" fill="url(#paint6_linear_20_2158)"/>
<path d="M83.5587 11.219C83.5946 11.0165 82.8332 10.6723 81.5539 10.08C80.9426 9.79694 80.4234 9.58587 80.4004 9.61059C80.3774 9.63564 78.8992 9.78478 77.1154 9.94245C75.2986 10.1027 73.5792 10.4346 73.205 10.6968C72.8376 10.954 72.3467 11.0916 72.1137 11.0022C71.881 10.9128 71.59 11.0028 71.4671 11.2021C71.3073 11.4607 73.1022 11.5544 77.7514 11.53C81.8404 11.5085 83.5075 11.5073 83.5587 11.219Z" fill="url(#paint7_linear_20_2158)"/>
<path d="M85.1178 11.5445C85.3097 11.5445 85.4669 11.3961 85.4669 11.2146C85.4669 11.0332 85.4016 10.8848 85.3216 10.8848C85.2414 10.8848 85.0845 11.0332 84.9725 11.2146C84.8605 11.3961 84.926 11.5445 85.1178 11.5445Z" fill="url(#paint8_linear_20_2158)"/>
<path d="M650.618 16.1573C651.337 16.1533 651.433 16.0808 651.049 15.8324C650.416 15.4228 650.149 15.4228 649.896 15.8324C649.778 16.0227 650.084 16.1602 650.618 16.1573Z" fill="url(#paint9_linear_20_2158)"/>
<path fill-rule="evenodd" clip-rule="evenodd" d="M560.411 83.2426V61.0821C560.411 46.5282 560.298 38.9214 560.081 38.9214C559.9 38.9214 559.752 39.052 559.752 39.2116C559.752 39.5632 556.691 41.9071 554.869 42.9504C553.397 43.7935 552.53 44.4113 550.071 46.3702C549.142 47.111 547.668 48.2592 546.796 48.9222L545.211 50.127L544.159 49.3892C543.581 48.9835 542.989 48.4663 542.844 48.2394C542.699 48.0128 542.369 47.8271 542.11 47.8271C541.852 47.8271 541.155 47.5309 540.561 47.1687C539.968 46.8066 539.171 46.5097 538.791 46.509C538.411 46.5084 537.595 46.2501 536.978 45.9351C535.363 45.1105 527.771 45.1152 526.232 45.9414C525.652 46.2528 524.857 46.5077 524.464 46.5077C523.85 46.5077 522.309 47.1684 520.53 48.1945C520.258 48.3516 519.48 48.7813 518.8 49.1498C518.12 49.5182 517.564 49.9651 517.564 50.1426C517.564 50.3204 517.374 50.4658 517.143 50.4658C516.911 50.4658 516.481 50.7254 516.186 51.043C515.892 51.3607 515.228 51.9934 514.712 52.4488C513.426 53.5848 511.302 56.2225 511.302 56.6843C511.302 56.8924 511.153 57.0627 510.972 57.0627C510.791 57.0627 510.642 57.2141 510.642 57.3991C510.642 57.5842 510.292 58.2914 509.864 58.9704C508.951 60.4162 507.529 64.5046 507.199 66.6281C506.975 68.0744 506.891 68.7282 506.521 69.0256C506.197 69.2859 505.654 69.2731 504.605 69.2797C502.653 69.2922 502.609 69.3104 503.556 69.7125C505.444 70.5136 511.633 71.5457 520.695 72.5702C522.508 72.775 525.029 73.0894 526.298 73.2688C527.567 73.4479 532.35 73.6802 536.928 73.7847C543.703 73.939 545.25 74.0594 545.25 74.4308C545.25 74.6818 544.874 75.8119 544.416 76.9423C543.288 79.7212 540.233 82.7274 537.48 83.767C533.479 85.278 528.59 84.0612 525.759 80.8499C524.379 79.2854 522.771 76.3984 522.384 74.7917L522.166 73.8846L515.992 73.8761C512.597 73.8714 508.41 73.7279 506.687 73.5574C500.797 72.9739 497.078 72.5649 495.785 72.3581C494.557 72.1615 494.492 72.1942 494.492 73.0178V73.8846H506.687V74.8527C506.687 77.8517 508.646 83.7307 510.145 85.2305C510.6 85.686 510.972 86.2092 510.972 86.3932C510.972 86.5772 511.194 86.6426 511.465 86.5387C511.735 86.4345 511.88 86.224 511.785 86.071C511.69 85.9176 512.138 85.6936 512.779 85.5732C513.421 85.4528 514.012 85.248 514.092 85.1177C514.266 84.8353 516.842 84.932 517.613 85.25C517.912 85.3734 518.255 85.315 518.375 85.12C518.642 84.6869 528.77 84.7054 528.77 85.1389C528.77 85.2985 528.659 85.4413 528.523 85.4565C527.75 85.5425 526.816 85.6952 525.721 85.9146C524.778 86.1036 524.484 86.0558 524.48 85.7131C524.477 85.4096 524.397 85.3825 524.233 85.6296C523.856 86.1986 517.636 86.889 517.076 86.4239C516.732 86.1382 516.391 86.1673 515.661 86.5446C515.133 86.8183 512.934 87.2056 510.776 87.4055C499.422 88.457 493.364 89.0937 493.201 89.2526C493.126 89.3268 497.433 89.3872 502.772 89.3872H512.48L514.116 91.0512C517.179 94.1679 522.148 97.0306 526.133 97.9746C528.901 98.6303 534.493 98.5466 536.68 97.8166C539.689 96.8129 542.442 95.3392 544.223 93.7807L545.909 92.3046V95.2792C545.909 96.9155 546.04 98.3351 546.201 98.4344C546.362 98.5337 548.372 96.5388 550.668 94.001L554.844 89.3872L545.185 89.3466C535.263 89.3047 535.093 89.1603 544.096 88.4211C546.634 88.2126 550.268 87.9039 552.171 87.7353C554.075 87.5664 557.56 87.2676 559.917 87.0717C562.273 86.8754 565.685 86.5829 567.497 86.4216C569.31 86.2603 572.87 85.9522 575.408 85.7369C584.096 84.9999 583.395 84.8469 571.148 84.808L558.978 84.7694L560.411 83.2426ZM525.948 62.8223C526.866 61.908 528.284 60.8321 529.1 60.431C530.327 59.8278 531.147 59.7017 533.85 59.7017C536.779 59.7014 537.273 59.7914 538.629 60.5718C539.461 61.0505 540.41 61.6759 540.739 61.9618C541.317 62.4638 541.317 62.4892 540.739 62.7175C540.266 62.9042 540.327 62.9583 541.033 62.9767C542.179 63.0064 543.369 64.4765 544.617 67.4036C545.651 69.8295 546.11 72.4699 545.624 73.1942C545.278 73.7085 543.11 73.5267 529.759 71.8623C525.711 71.3577 519.87 70.2266 518.719 69.7246C517.783 69.3163 517.859 69.2919 520.118 69.2797C522.059 69.2692 522.508 69.1702 522.508 68.7516C522.508 67.6097 524.378 64.3865 525.948 62.8223ZM532.89 85.1181C531.057 85.4977 529.759 85.4898 529.759 85.0992C529.759 84.9082 530.695 84.7853 531.984 84.8073C534.044 84.8426 534.111 84.8654 532.89 85.1181Z" fill="url(#paint10_linear_20_2158)"/>
<path d="M544.199 39.4765C544.437 39.5718 544.721 39.5599 544.831 39.4504C544.94 39.3409 544.746 39.263 544.398 39.2773C544.015 39.2931 543.936 39.3713 544.199 39.4765Z" fill="url(#paint11_linear_20_2158)"/>
<path d="M625.855 39.9109C626.137 39.9109 626.277 39.7625 626.165 39.581C626.053 39.3996 625.822 39.2512 625.651 39.2512C625.481 39.2512 625.341 39.3996 625.341 39.581C625.341 39.7625 625.572 39.9109 625.855 39.9109Z" fill="url(#paint12_linear_20_2158)"/>
<path d="M541.054 39.8096C541.374 39.8934 541.819 39.8878 542.043 39.7974C542.266 39.7071 542.003 39.6388 541.459 39.6454C540.916 39.652 540.733 39.7258 541.054 39.8096Z" fill="url(#paint13_linear_20_2158)"/>
<path d="M302.179 54.6927C302.368 54.5054 297.966 49.2969 291.027 41.4958L289.65 39.9472L261.14 39.9396C237.366 39.9329 232.726 40.0045 233.207 40.3701C233.524 40.6112 233.784 40.969 233.784 41.1656C233.784 41.3618 234.118 41.758 234.526 42.0453C235.155 42.4892 235.192 42.6159 234.773 42.8837C234.338 43.1611 234.52 43.3419 235.151 43.2595C235.515 43.212 238.438 45.9183 238.238 46.1182C237.914 46.4424 237.08 46.4642 237.08 46.1489C237.08 45.9832 236.774 45.848 236.401 45.848C236.028 45.848 235.808 45.7099 235.912 45.541C236.017 45.372 235.961 45.1471 235.79 45.0409C235.618 44.9347 235.39 44.9895 235.283 45.163C234.932 45.7313 236.84 47.1674 237.946 47.1674C238.735 47.1674 239.348 47.527 240.504 48.6672C241.34 49.4918 242.024 50.3217 242.024 50.511C242.024 50.7003 242.951 51.7278 244.084 52.7942L246.144 54.7333L261.305 54.7535L261.158 80.9762L262.235 82.2131C262.827 82.8936 263.454 83.45 263.628 83.45C263.802 83.45 264.463 84.1242 265.097 84.9478C265.731 85.7718 266.434 86.6518 266.661 86.9035C266.888 87.1551 267.073 87.4349 267.073 87.5249C267.073 87.6152 267.815 88.4389 268.721 89.3555C269.627 90.2722 270.369 91.1739 270.369 91.3593C270.369 91.5444 270.573 91.6961 270.823 91.6961C271.073 91.6961 271.462 92.1414 271.687 92.6856C271.912 93.2298 272.234 93.6751 272.402 93.6751C272.57 93.6751 273.732 94.7141 274.983 95.984C276.235 97.2539 277.359 98.2929 277.482 98.2929C277.605 98.2929 277.595 88.5108 277.46 76.555L277.216 54.8171L289.584 54.8679C296.387 54.8959 302.055 54.8171 302.179 54.6927Z" fill="url(#paint14_linear_20_2158)"/>
<path d="M537.92 40.1441C538.33 40.2229 538.924 40.2199 539.239 40.1375C539.554 40.055 539.218 39.9904 538.493 39.994C537.768 39.9976 537.51 40.0653 537.92 40.1441Z" fill="url(#paint15_linear_20_2158)"/>
<path d="M523.826 42.1087C525.367 41.8042 528.556 41.2751 530.913 40.9327C533.269 40.5904 534.604 40.312 533.879 40.3139C533.154 40.3163 531.819 40.4324 530.913 40.5722C530.006 40.7124 527.633 40.9967 525.639 41.2049C521.809 41.604 518.162 42.1357 516.246 42.575C513.949 43.1011 520.998 42.6677 523.826 42.1087Z" fill="url(#paint16_linear_20_2158)"/>
<path d="M185.018 42.9345C185.192 42.8738 185.334 42.6143 185.334 42.3573C185.334 41.9823 184.665 41.8962 181.955 41.9213C178.597 41.9526 177.16 42.2854 174.596 43.6265C173.016 44.4535 169.93 47.7262 169.456 49.0791C169.028 50.2973 169.026 50.2916 168.731 47.2499L168.434 44.1988H154.43L154.246 46.92C154.145 48.4166 154.054 56.7767 154.044 65.498L154.026 81.3552L154.848 82.0706C155.3 82.4641 155.67 82.9355 155.67 83.1179C155.67 83.3006 155.864 83.45 156.1 83.45C156.336 83.45 157.033 83.9695 157.648 84.6045C158.263 85.2394 158.641 85.7589 158.488 85.7589C158.334 85.7589 158.676 86.2055 159.247 86.7514C159.818 87.297 160.285 87.8412 160.285 87.9606C160.285 88.0801 160.649 88.5613 161.093 89.03C164.07 92.1668 164.899 93.1514 164.899 93.5514C164.899 93.8008 165.035 94.005 165.201 94.005C165.367 94.005 165.922 94.4503 166.436 94.9945C166.949 95.5387 167.49 95.984 167.638 95.984C167.786 95.984 168.282 96.4293 168.74 96.9736C169.197 97.5178 169.707 97.9631 169.872 97.9631C170.049 97.9631 170.173 91.4018 170.174 82.0482C170.176 66.512 170.277 64.7038 171.259 62.6756C171.717 61.7302 173.248 60.0312 173.643 60.0312C173.79 60.0312 174.15 59.8149 174.442 59.5503C174.761 59.2614 176.059 58.9784 177.692 58.8422C179.187 58.7175 180.484 58.4955 180.575 58.3493C180.665 58.2033 181.003 57.0076 181.326 55.6925L181.914 53.3018L183.706 53.379C186.182 53.4859 192.766 54.6842 194.562 55.3548C195.851 55.8357 197.859 55.9178 209.888 55.9814L223.731 56.0547L222.436 55.4042C221.724 55.0463 220.807 54.7538 220.397 54.7538C219.988 54.7538 218.642 54.5173 217.407 54.228C213.281 53.2616 209.65 53.0237 195.85 52.8159L182.141 52.6098L183.422 47.8271C184.127 45.1966 184.845 42.9949 185.018 42.9345Z" fill="url(#paint17_linear_20_2158)"/>
<path d="M4.59757 44.3005C4.57247 43.9936 4.9225 43.5507 5.37569 43.3158C6.10472 42.9385 5.84208 42.8887 3.09992 42.8844L0 42.8795L0.627966 43.6216C1.5807 44.7477 1.73954 44.8044 2.82504 44.4047C3.60316 44.1177 3.86258 44.1272 3.9717 44.4462C4.17962 45.0561 4.65052 44.9466 4.59757 44.3005Z" fill="url(#paint18_linear_20_2158)"/>
<path d="M142.341 44.8585C141.386 44.8585 141.493 44.1919 142.553 43.5454L143.64 42.8818L138.861 42.9068C134.105 42.9316 133.075 43.0886 131.033 44.1012C129.64 44.7922 129.681 45.1092 131.198 45.3753C133.112 45.7115 136.174 46.7871 135.294 46.8141C134.172 46.8484 127.381 45.2342 126.304 44.6768C125.583 44.3038 123.857 44.1988 118.443 44.1988C111.563 44.1988 110.135 44.4449 112.741 45.1811C114.592 45.704 115.85 46.0708 117.131 46.33C120.262 46.9638 123.524 46.9543 135.895 47.0107C145.04 47.0523 151.268 46.9705 150.067 46.8247C148.889 46.6816 147.109 46.331 146.112 46.0452C145.115 45.7596 143.965 45.5242 143.558 45.5221C143.15 45.5198 142.816 45.3698 142.816 45.1884C142.816 45.0069 142.603 44.8585 142.341 44.8585Z" fill="url(#paint19_linear_20_2158)"/>
<path d="M196.88 45.5076C197.663 45.4908 196.204 44.5287 195.397 44.5287C195.018 44.5287 194.381 44.2991 193.981 44.0184C193.38 43.5972 193.285 43.5909 193.434 43.9815C193.62 44.467 196.013 45.5264 196.88 45.5076Z" fill="url(#paint20_linear_20_2158)"/>
<path d="M228.84 44.6936C229.021 44.5814 229.17 44.4245 229.17 44.3443C229.17 44.297 229.118 44.2549 229.039 44.2283C228.983 44.2099 228.914 44.1988 228.84 44.1988C228.659 44.1988 228.51 44.3562 228.51 44.5482C228.51 44.7401 228.659 44.8058 228.84 44.6936Z" fill="url(#paint21_linear_20_2158)"/>
<path d="M341.231 47.0319C344.205 47.1252 344.255 47.1159 342.22 46.8481C341.042 46.6931 338.626 46.2053 336.852 45.7643C335.078 45.3229 333.565 45.0604 333.491 45.1808C333.153 45.7277 338.21 46.9372 341.231 47.0319Z" fill="url(#paint22_linear_20_2158)"/>
<path d="M356.228 46.1987C355.14 45.9899 352.248 45.6033 349.801 45.3394C345.305 44.8549 344.175 44.8116 343.127 45.0858C342.125 45.3476 342.491 45.6933 344.445 46.3296C346.075 46.8607 347.585 46.9586 355.239 47.0286C361.47 47.0853 363.249 47.0299 361.172 46.8438C359.54 46.6977 357.316 46.4071 356.228 46.1987Z" fill="url(#paint23_linear_20_2158)"/>
<path fill-rule="evenodd" clip-rule="evenodd" d="M384.342 45.3206C382.249 45.7867 381.392 45.8197 379.087 45.5238C375.569 45.0719 369.235 44.8708 367.105 45.1429L365.457 45.3533L367.022 45.8084C367.883 46.0588 368.588 46.3927 368.588 46.5506C368.588 46.7082 369.341 46.8376 370.261 46.8376H371.935L368.861 48.4753C367.17 49.3757 365.172 50.4025 364.422 50.7568C363.671 51.111 362.958 51.5616 362.837 51.7578C362.715 51.9544 362.35 52.115 362.026 52.115C361.517 52.115 361.406 52.5319 361.221 55.1344C361.103 56.7948 361.007 60.654 361.007 63.7103V69.2668H366.259C369.285 69.2668 371.904 69.4202 372.439 69.6286C375.111 70.6707 377.023 70.9675 382.183 71.143L387.704 71.3304V77.0191C387.704 80.148 387.792 83.1463 387.899 83.6815L388.093 84.6556L384.191 85.0679C382.044 85.2945 379.992 85.5227 379.629 85.5745C379.266 85.6267 381.232 85.6893 383.996 85.7141C388.264 85.752 389.023 85.6843 389.023 85.2642C389.023 84.992 388.865 84.7694 388.672 84.7694C388.377 84.7694 391.149 81.6329 399.143 72.9215L400.529 71.4108L397.677 71.3145C396.108 71.2617 394.65 71.0734 394.437 70.8965C394.224 70.7195 393.836 70.6568 393.575 70.7571C393.314 70.8577 392.294 70.725 391.309 70.4631C387.346 69.4093 387.627 69.3229 395.09 69.3031C402.063 69.2846 402.337 69.2589 403.082 68.5583C403.618 68.0546 403.854 67.4645 403.854 66.6304C403.854 63.741 405.31 60.968 407.551 59.5916C408.722 58.8715 409.611 58.8979 411.27 59.7014C413.342 60.7051 414.131 62.3765 414.33 66.1821C414.443 68.3532 414.614 69.2668 414.905 69.2668C415.337 69.2668 415.72 69.9759 415.72 70.7782C415.72 71.0355 415.409 71.2459 415.03 71.2459C414.347 71.2459 414.342 71.3135 414.454 79.2788L414.566 87.3115L410.446 87.703C408.18 87.918 404.621 88.2522 402.536 88.4455C400.451 88.6391 397.93 88.9119 396.933 89.0524C394.153 89.4436 402.34 89.47 405.676 89.0801C407.121 88.9112 409.731 88.6764 411.475 88.5576L414.647 88.3423L414.482 90.6446C414.289 93.3407 414.676 98.7019 415.053 98.5575C415.196 98.5027 417.548 95.9897 420.279 92.9729C423.177 89.7724 424.255 88.3824 425.672 87.6988C427.024 87.047 428.685 87.0374 432.529 86.7132C442.219 85.8952 442.436 85.8028 434.438 85.9004L426.624 85.9961L428.095 84.2726C429.377 82.7712 429.766 82.5222 431.118 82.3368C433.036 82.0739 434.506 81.4459 434.506 80.8904C434.506 80.4442 432.959 79.6578 431.458 79.3409C430.651 79.1707 430.551 79.0038 430.551 77.8252V76.5006L432.117 76.6659C443.151 77.8315 447.808 78.443 452.538 79.3475C455.176 79.8518 457.248 80.6157 457.248 81.084C457.248 81.5004 456.564 82.0254 455.765 82.2217C455.403 82.3111 458.591 82.3899 462.851 82.3969C470.588 82.4097 473.012 82.1363 473.319 81.2157C473.587 80.4099 470.106 79.4256 463.84 78.5351C458.36 77.7563 456.593 77.5346 452.964 77.1708C450.879 76.9617 448.135 76.6507 446.866 76.4798C445.597 76.3086 441.428 76.0788 437.6 75.9689L430.642 75.769L430.456 68.807C430.347 64.7074 430.058 60.6929 429.752 59.0417C429.467 57.4997 429.234 56.2008 429.233 56.1556C429.233 56.1104 438.688 56.0672 450.245 56.0599C468.814 56.0484 471.154 55.991 470.374 55.5672C468.638 54.6238 464.787 54.4368 446.701 54.417L428.409 54.3969L427.656 52.7895C426.929 51.2363 424.013 47.8271 423.412 47.8271C423.25 47.8271 422.863 47.5303 422.553 47.1674C422.242 46.8045 421.796 46.5077 421.56 46.5077C421.325 46.5077 420.582 46.227 419.91 45.8844C417.451 44.6292 406.959 44.6939 405.547 45.9727C405.222 46.2669 404.714 46.5077 404.42 46.5077C403.71 46.5077 401.676 47.8578 400.176 49.3243L398.97 50.5034L397.287 48.8717C393.931 45.6175 389.038 44.2753 384.342 45.3206ZM375.839 51.5058V47.1674L377.734 47.1783C379.581 47.1891 379.612 47.204 378.941 47.7651C378.562 48.082 377.71 49.0531 377.046 49.9236L375.839 51.5058ZM377.223 66.5456C377.416 63.0031 378.329 61.1906 380.683 59.6822C381.913 58.8933 382.926 58.9032 384.614 59.7212C386.605 60.686 387.465 62.5727 387.647 66.3761L387.785 69.2668H377.074L377.223 66.5456ZM418.502 69.9265C418.219 69.9265 418.079 69.7781 418.192 69.5967C418.304 69.4152 418.535 69.2668 418.705 69.2668C418.876 69.2668 419.016 69.4152 419.016 69.5967C419.016 69.7781 418.784 69.9265 418.502 69.9265ZM417.12 70.1449C416.894 70.2365 416.523 70.2365 416.296 70.1449C416.07 70.0535 416.255 69.9786 416.708 69.9786C417.162 69.9786 417.347 70.0535 417.12 70.1449Z" fill="url(#paint24_linear_20_2158)"/>
<path d="M13.6155 46.8138C12.256 46.6677 10.2596 46.3164 9.17921 46.0331C8.09886 45.7501 7.02333 45.5182 6.78966 45.5182C6.1324 45.5182 6.28609 46.0855 7.0972 46.6538C7.67464 47.0589 8.70188 47.1581 11.9587 47.1235C15.9834 47.0807 16.0252 47.0731 13.6155 46.8138Z" fill="url(#paint25_linear_20_2158)"/>
<path d="M6.19967 47.1674C6.49306 47.1674 6.64128 47.019 6.52927 46.8376C6.41726 46.6561 6.26887 46.5077 6.19967 46.5077C6.13047 46.5077 5.98209 46.6561 5.87008 46.8376C5.75807 47.019 5.90629 47.1674 6.19967 47.1674Z" fill="url(#paint26_linear_20_2158)"/>
<path d="M113.647 54.1383C111.472 53.782 108.209 53.3282 106.396 53.1296C102.729 52.7275 87.691 52.7058 89.2572 53.1046C89.801 53.2431 90.9876 53.3714 91.894 53.3899C94.0936 53.435 100.752 54.6419 102.606 55.332C103.815 55.7819 105.631 55.9036 112.438 55.9894C122.779 56.1203 123.066 55.68 113.647 54.1383Z" fill="url(#paint27_linear_20_2158)"/>
<path d="M320.389 53.0079C320.799 53.0868 321.392 53.0838 321.707 53.0013C322.022 52.9189 321.687 52.8542 320.961 52.8578C320.236 52.8614 319.979 52.9291 320.389 53.0079Z" fill="url(#paint28_linear_20_2158)"/>
<path d="M324.34 52.9931C324.567 53.0848 324.937 53.0848 325.164 52.9931C325.266 52.9519 325.284 52.914 325.232 52.885C325.169 52.8495 325.001 52.8268 324.752 52.8268C324.299 52.8268 324.113 52.9017 324.34 52.9931Z" fill="url(#paint29_linear_20_2158)"/>
<path d="M327.58 53.5641C328.272 53.8299 328.377 53.8177 328.377 53.473C328.377 53.3127 328.081 53.1039 327.718 53.0089C326.94 52.8054 326.824 53.2734 327.58 53.5641Z" fill="url(#paint30_linear_20_2158)"/>
<path d="M337.834 54.7208C339.726 54.6927 339.897 54.6469 338.924 54.4282C337.259 54.0535 335.062 53.7543 335.548 53.9681C335.776 54.0683 335.878 54.2861 335.776 54.452C335.67 54.6241 336.553 54.7396 337.834 54.7208Z" fill="url(#paint31_linear_20_2158)"/>
<path d="M314.205 55.2485C314.386 55.1364 314.534 54.9794 314.534 54.8992C314.534 54.8615 314.502 54.8271 314.448 54.8013C314.388 54.7721 314.301 54.7538 314.205 54.7538C314.095 54.7538 313.998 54.8114 313.938 54.8994C313.898 54.9568 313.875 55.0272 313.875 55.1031C313.875 55.2951 314.023 55.3607 314.205 55.2485Z" fill="url(#paint32_linear_20_2158)"/>
<path d="M310.395 55.6997C310.86 56.1662 310.96 56.1632 311.453 55.6698C311.959 55.1631 311.923 55.1272 310.939 55.1549C309.98 55.1823 309.929 55.2334 310.395 55.6997Z" fill="url(#paint33_linear_20_2158)"/>
<path d="M104.913 58.8554C100.29 58.8554 98.3994 58.9015 100.711 58.9583C103.022 59.015 106.804 59.015 109.115 58.9583C111.426 58.9015 109.535 58.8554 104.913 58.8554Z" fill="url(#paint34_linear_20_2158)"/>
<path d="M575.968 60.2766C577.545 60.337 580.214 60.3373 581.9 60.2773C583.586 60.2173 582.296 60.1678 579.033 60.1675C575.77 60.1672 574.391 60.2163 575.968 60.2766Z" fill="url(#paint35_linear_20_2158)"/>
<path d="M133.752 71.0388C133.39 70.9668 132.277 70.7366 131.28 70.5272C130.283 70.3177 129.06 69.9446 128.561 69.698C127.674 69.2593 127.655 69.2704 127.655 70.2478V71.2459L131.033 71.2076C132.891 71.1865 134.115 71.1107 133.752 71.0388Z" fill="url(#paint36_linear_20_2158)"/>
<path d="M240.87 71.0388C237.827 70.4358 236.459 70.0835 235.696 69.7065C235.02 69.373 232.832 69.2747 226.632 69.2998L218.458 69.3328L220.396 69.9592C223.68 71.021 226.089 71.2422 233.949 71.205C238.118 71.1855 241.233 71.1107 240.87 71.0388Z" fill="url(#paint37_linear_20_2158)"/>
<path d="M338.265 70.5272C337.268 70.3177 336.052 69.9482 335.562 69.7065C334.893 69.376 332.649 69.2668 326.526 69.2668C322.046 69.2668 318.465 69.3523 318.57 69.4571C318.674 69.5617 319.848 69.9519 321.179 70.3246C323.293 70.9167 324.722 71.015 332.497 71.1024C337.392 71.1575 341.1 71.1364 340.737 71.0552C340.374 70.9744 339.262 70.7366 338.265 70.5272Z" fill="url(#paint38_linear_20_2158)"/>
<path d="M371.372 71.2459C365.454 71.2459 361.639 70.7247 360.192 69.7191C359.689 69.3694 357.933 69.2692 352.446 69.2767C346.896 69.2846 345.495 69.3704 346.011 69.6702C347.481 70.5248 352.286 71.2347 356.64 71.2402L361.007 71.2459L361.057 77.4304C361.084 80.8321 361.081 86.2125 361.051 89.3872C361.02 92.5619 361.109 95.9711 361.248 96.9636L361.501 98.7679L377.157 81.4535V71.2459H371.372Z" fill="url(#paint39_linear_20_2158)"/>
<path d="M483.781 70.6066C482.33 70.2831 480.726 69.849 480.216 69.6425C479.611 69.3974 476.628 69.2714 471.647 69.2797C465.08 69.2909 464.144 69.3529 464.994 69.7216C467.572 70.8402 471.345 71.2462 478.926 71.2208L486.417 71.1954L483.781 70.6066Z" fill="url(#paint40_linear_20_2158)"/>
<path d="M667.238 70.916C667.42 70.916 667.476 70.7676 667.364 70.5862C667.252 70.4048 667.012 70.2563 666.831 70.2563C666.65 70.2563 666.593 70.4048 666.705 70.5862C666.817 70.7676 667.057 70.916 667.238 70.916Z" fill="url(#paint41_linear_20_2158)"/>
<path d="M108.533 84.2696C110.978 83.9758 113.042 83.671 113.12 83.5926C113.478 83.2346 96.6045 83.5757 94.0363 83.9781C92.4955 84.2199 89.7516 84.5906 87.9389 84.8024C86.1261 85.0144 83.6789 85.3047 82.5006 85.4479C81.2319 85.6019 84.3228 85.6633 90.0812 85.5979C95.4289 85.5372 100.768 85.3337 101.947 85.1461C103.125 84.9581 106.089 84.5639 108.533 84.2696Z" fill="url(#paint42_linear_20_2158)"/>
<path d="M199.177 84.4254C201.08 84.2037 203.157 83.9088 203.791 83.7693C204.456 83.6235 201.943 83.515 197.858 83.513C193.961 83.5111 190.327 83.6341 189.783 83.7861C189.239 83.9385 186.347 84.3667 183.356 84.7374C180.365 85.1085 177.473 85.4782 176.929 85.5594C176.385 85.6405 179.352 85.6534 183.521 85.588C187.69 85.5227 192.14 85.3249 193.409 85.1487C194.678 84.9722 197.273 84.6467 199.177 84.4254Z" fill="url(#paint43_linear_20_2158)"/>
<path d="M306.624 84.4211C308.528 84.1971 310.678 83.9032 311.403 83.768C312.18 83.6232 309.801 83.5074 305.608 83.4863C301.695 83.4662 298.432 83.5117 298.357 83.5866C298.155 83.7874 293.817 84.4043 285.365 85.4344C283.787 85.6266 285.505 85.6768 290.804 85.5934C295.064 85.526 299.587 85.3265 300.856 85.1494C302.125 84.9726 304.721 84.6447 306.624 84.4211Z" fill="url(#paint44_linear_20_2158)"/>
<path d="M12.8739 96.2024C13.1007 96.2941 13.4715 96.2941 13.6979 96.2024C13.9247 96.111 13.7391 96.0361 13.2859 96.0361C12.8327 96.0361 12.6475 96.111 12.8739 96.2024Z" fill="url(#paint45_linear_20_2158)"/>
<path d="M14.8515 96.5323C15.0783 96.6239 15.4491 96.6239 15.6755 96.5323C15.9022 96.4409 15.7167 96.366 15.2635 96.366C14.8103 96.366 14.6251 96.4409 14.8515 96.5323Z" fill="url(#paint46_linear_20_2158)"/>
<path d="M689.282 103.907C688.648 103.756 687.165 103.45 685.986 103.228C684.713 102.989 680.035 102.786 674.451 102.729C668.592 102.669 665.739 102.736 666.87 102.907C667.867 103.058 669.647 103.361 670.825 103.581C673.248 104.034 691.132 104.349 689.282 103.907Z" fill="url(#paint47_linear_20_2158)"/>
<path d="M77.8863 126C78.5171 126 78.5454 125.78 78.5454 120.887V115.775H68.2852L70.1194 117.61C71.1283 118.62 71.9536 119.557 71.9536 119.691C71.9536 119.827 73.1401 121.172 74.5903 122.681C76.0405 124.19 77.2271 125.554 77.2271 125.712C77.2271 125.87 77.5237 126 77.8863 126Z" fill="url(#paint48_linear_20_2158)"/>
<path d="M614.135 121.86C607.52 121.012 602.591 119.989 601.375 119.21C600.858 118.879 599.608 118.746 597.09 118.753C593.261 118.764 593.173 118.991 596.666 119.85C600.711 120.845 612.695 122.387 615.948 122.331C617.145 122.311 616.65 122.182 614.135 121.86Z" fill="url(#paint49_linear_20_2158)"/>
<path d="M55.2314 122.608C55.7324 122.684 56.4739 122.682 56.8793 122.604C57.2847 122.525 56.8747 122.463 55.9683 122.466C55.0619 122.468 54.7304 122.532 55.2314 122.608Z" fill="url(#paint50_linear_20_2158)"/>
<defs>
<linearGradient id="paint0_linear_20_2158" x1="360" y1="0" x2="360" y2="128.651" gradientUnits="userSpaceOnUse">
<stop stop-color="white"/>
<stop offset="0.270829" stop-color="#ECF3F7"/>
<stop offset="0.619793" stop-color="#E0E7ED"/>
<stop offset="1" stop-color="#99AAC2"/>
</linearGradient>
<linearGradient id="paint1_linear_20_2158" x1="360" y1="0" x2="360" y2="128.651" gradientUnits="userSpaceOnUse">
<stop stop-color="white"/>
<stop offset="0.270829" stop-color="#ECF3F7"/>
<stop offset="0.619793" stop-color="#E0E7ED"/>
<stop offset="1" stop-color="#99AAC2"/>
</linearGradient>
<linearGradient id="paint2_linear_20_2158" x1="360" y1="0" x2="360" y2="128.651" gradientUnits="userSpaceOnUse">
<stop stop-color="white"/>
<stop offset="0.270829" stop-color="#ECF3F7"/>
<stop offset="0.619793" stop-color="#E0E7ED"/>
<stop offset="1" stop-color="#99AAC2"/>
</linearGradient>
<linearGradient id="paint3_linear_20_2158" x1="360" y1="0" x2="360" y2="128.651" gradientUnits="userSpaceOnUse">
<stop stop-color="white"/>
<stop offset="0.270829" stop-color="#ECF3F7"/>
<stop offset="0.619793" stop-color="#E0E7ED"/>
<stop offset="1" stop-color="#99AAC2"/>
</linearGradient>
<linearGradient id="paint4_linear_20_2158" x1="360" y1="0" x2="360" y2="128.651" gradientUnits="userSpaceOnUse">
<stop stop-color="white"/>
<stop offset="0.270829" stop-color="#ECF3F7"/>
<stop offset="0.619793" stop-color="#E0E7ED"/>
<stop offset="1" stop-color="#99AAC2"/>
</linearGradient>
<linearGradient id="paint5_linear_20_2158" x1="360" y1="0" x2="360" y2="128.651" gradientUnits="userSpaceOnUse">
<stop stop-color="white"/>
<stop offset="0.270829" stop-color="#ECF3F7"/>
<stop offset="0.619793" stop-color="#E0E7ED"/>
<stop offset="1" stop-color="#99AAC2"/>
</linearGradient>
<linearGradient id="paint6_linear_20_2158" x1="360" y1="0" x2="360" y2="128.651" gradientUnits="userSpaceOnUse">
<stop stop-color="white"/>
<stop offset="0.270829" stop-color="#ECF3F7"/>
<stop offset="0.619793" stop-color="#E0E7ED"/>
<stop offset="1" stop-color="#99AAC2"/>
</linearGradient>
<linearGradient id="paint7_linear_20_2158" x1="360" y1="0" x2="360" y2="128.651" gradientUnits="userSpaceOnUse">
<stop stop-color="white"/>
<stop offset="0.270829" stop-color="#ECF3F7"/>
<stop offset="0.619793" stop-color="#E0E7ED"/>
<stop offset="1" stop-color="#99AAC2"/>
</linearGradient>
<linearGradient id="paint8_linear_20_2158" x1="360" y1="0" x2="360" y2="128.651" gradientUnits="userSpaceOnUse">
<stop stop-color="white"/>
<stop offset="0.270829" stop-color="#ECF3F7"/>
<stop offset="0.619793" stop-color="#E0E7ED"/>
<stop offset="1" stop-color="#99AAC2"/>
</linearGradient>
<linearGradient id="paint9_linear_20_2158" x1="360" y1="0" x2="360" y2="128.651" gradientUnits="userSpaceOnUse">
<stop stop-color="white"/>
<stop offset="0.270829" stop-color="#ECF3F7"/>
<stop offset="0.619793" stop-color="#E0E7ED"/>
<stop offset="1" stop-color="#99AAC2"/>
</linearGradient>
<linearGradient id="paint10_linear_20_2158" x1="360" y1="0" x2="360" y2="128.651" gradientUnits="userSpaceOnUse">
<stop stop-color="white"/>
<stop offset="0.270829" stop-color="#ECF3F7"/>
<stop offset="0.619793" stop-color="#E0E7ED"/>
<stop offset="1" stop-color="#99AAC2"/>
</linearGradient>
<linearGradient id="paint11_linear_20_2158" x1="360" y1="0" x2="360" y2="128.651" gradientUnits="userSpaceOnUse">
<stop stop-color="white"/>
<stop offset="0.270829" stop-color="#ECF3F7"/>
<stop offset="0.619793" stop-color="#E0E7ED"/>
<stop offset="1" stop-color="#99AAC2"/>
</linearGradient>
<linearGradient id="paint12_linear_20_2158" x1="360" y1="0" x2="360" y2="128.651" gradientUnits="userSpaceOnUse">
<stop stop-color="white"/>
<stop offset="0.270829" stop-color="#ECF3F7"/>
<stop offset="0.619793" stop-color="#E0E7ED"/>
<stop offset="1" stop-color="#99AAC2"/>
</linearGradient>
<linearGradient id="paint13_linear_20_2158" x1="360" y1="0" x2="360" y2="128.651" gradientUnits="userSpaceOnUse">
<stop stop-color="white"/>
<stop offset="0.270829" stop-color="#ECF3F7"/>
<stop offset="0.619793" stop-color="#E0E7ED"/>
<stop offset="1" stop-color="#99AAC2"/>
</linearGradient>
<linearGradient id="paint14_linear_20_2158" x1="360" y1="0" x2="360" y2="128.651" gradientUnits="userSpaceOnUse">
<stop stop-color="white"/>
<stop offset="0.270829" stop-color="#ECF3F7"/>
<stop offset="0.619793" stop-color="#E0E7ED"/>
<stop offset="1" stop-color="#99AAC2"/>
</linearGradient>
<linearGradient id="paint15_linear_20_2158" x1="360" y1="0" x2="360" y2="128.651" gradientUnits="userSpaceOnUse">
<stop stop-color="white"/>
<stop offset="0.270829" stop-color="#ECF3F7"/>
<stop offset="0.619793" stop-color="#E0E7ED"/>
<stop offset="1" stop-color="#99AAC2"/>
</linearGradient>
<linearGradient id="paint16_linear_20_2158" x1="360" y1="0" x2="360" y2="128.651" gradientUnits="userSpaceOnUse">
<stop stop-color="white"/>
<stop offset="0.270829" stop-color="#ECF3F7"/>
<stop offset="0.619793" stop-color="#E0E7ED"/>
<stop offset="1" stop-color="#99AAC2"/>
</linearGradient>
<linearGradient id="paint17_linear_20_2158" x1="360" y1="0" x2="360" y2="128.651" gradientUnits="userSpaceOnUse">
<stop stop-color="white"/>
<stop offset="0.270829" stop-color="#ECF3F7"/>
<stop offset="0.619793" stop-color="#E0E7ED"/>
<stop offset="1" stop-color="#99AAC2"/>
</linearGradient>
<linearGradient id="paint18_linear_20_2158" x1="360" y1="0" x2="360" y2="128.651" gradientUnits="userSpaceOnUse">
<stop stop-color="white"/>
<stop offset="0.270829" stop-color="#ECF3F7"/>
<stop offset="0.619793" stop-color="#E0E7ED"/>
<stop offset="1" stop-color="#99AAC2"/>
</linearGradient>
<linearGradient id="paint19_linear_20_2158" x1="360" y1="0" x2="360" y2="128.651" gradientUnits="userSpaceOnUse">
<stop stop-color="white"/>
<stop offset="0.270829" stop-color="#ECF3F7"/>
<stop offset="0.619793" stop-color="#E0E7ED"/>
<stop offset="1" stop-color="#99AAC2"/>
</linearGradient>
<linearGradient id="paint20_linear_20_2158" x1="360" y1="0" x2="360" y2="128.651" gradientUnits="userSpaceOnUse">
<stop stop-color="white"/>
<stop offset="0.270829" stop-color="#ECF3F7"/>
<stop offset="0.619793" stop-color="#E0E7ED"/>
<stop offset="1" stop-color="#99AAC2"/>
</linearGradient>
<linearGradient id="paint21_linear_20_2158" x1="360" y1="0" x2="360" y2="128.651" gradientUnits="userSpaceOnUse">
<stop stop-color="white"/>
<stop offset="0.270829" stop-color="#ECF3F7"/>
<stop offset="0.619793" stop-color="#E0E7ED"/>
<stop offset="1" stop-color="#99AAC2"/>
</linearGradient>
<linearGradient id="paint22_linear_20_2158" x1="360" y1="0" x2="360" y2="128.651" gradientUnits="userSpaceOnUse">
<stop stop-color="white"/>
<stop offset="0.270829" stop-color="#ECF3F7"/>
<stop offset="0.619793" stop-color="#E0E7ED"/>
<stop offset="1" stop-color="#99AAC2"/>
</linearGradient>
<linearGradient id="paint23_linear_20_2158" x1="360" y1="0" x2="360" y2="128.651" gradientUnits="userSpaceOnUse">
<stop stop-color="white"/>
<stop offset="0.270829" stop-color="#ECF3F7"/>
<stop offset="0.619793" stop-color="#E0E7ED"/>
<stop offset="1" stop-color="#99AAC2"/>
</linearGradient>
<linearGradient id="paint24_linear_20_2158" x1="360" y1="0" x2="360" y2="128.651" gradientUnits="userSpaceOnUse">
<stop stop-color="white"/>
<stop offset="0.270829" stop-color="#ECF3F7"/>
<stop offset="0.619793" stop-color="#E0E7ED"/>
<stop offset="1" stop-color="#99AAC2"/>
</linearGradient>
<linearGradient id="paint25_linear_20_2158" x1="360" y1="0" x2="360" y2="128.651" gradientUnits="userSpaceOnUse">
<stop stop-color="white"/>
<stop offset="0.270829" stop-color="#ECF3F7"/>
<stop offset="0.619793" stop-color="#E0E7ED"/>
<stop offset="1" stop-color="#99AAC2"/>
</linearGradient>
<linearGradient id="paint26_linear_20_2158" x1="360" y1="0" x2="360" y2="128.651" gradientUnits="userSpaceOnUse">
<stop stop-color="white"/>
<stop offset="0.270829" stop-color="#ECF3F7"/>
<stop offset="0.619793" stop-color="#E0E7ED"/>
<stop offset="1" stop-color="#99AAC2"/>
</linearGradient>
<linearGradient id="paint27_linear_20_2158" x1="360" y1="0" x2="360" y2="128.651" gradientUnits="userSpaceOnUse">
<stop stop-color="white"/>
<stop offset="0.270829" stop-color="#ECF3F7"/>
<stop offset="0.619793" stop-color="#E0E7ED"/>
<stop offset="1" stop-color="#99AAC2"/>
</linearGradient>
<linearGradient id="paint28_linear_20_2158" x1="360" y1="0" x2="360" y2="128.651" gradientUnits="userSpaceOnUse">
<stop stop-color="white"/>
<stop offset="0.270829" stop-color="#ECF3F7"/>
<stop offset="0.619793" stop-color="#E0E7ED"/>
<stop offset="1" stop-color="#99AAC2"/>
</linearGradient>
<linearGradient id="paint29_linear_20_2158" x1="360" y1="0" x2="360" y2="128.651" gradientUnits="userSpaceOnUse">
<stop stop-color="white"/>
<stop offset="0.270829" stop-color="#ECF3F7"/>
<stop offset="0.619793" stop-color="#E0E7ED"/>
<stop offset="1" stop-color="#99AAC2"/>
</linearGradient>
<linearGradient id="paint30_linear_20_2158" x1="360" y1="0" x2="360" y2="128.651" gradientUnits="userSpaceOnUse">
<stop stop-color="white"/>
<stop offset="0.270829" stop-color="#ECF3F7"/>
<stop offset="0.619793" stop-color="#E0E7ED"/>
<stop offset="1" stop-color="#99AAC2"/>
</linearGradient>
<linearGradient id="paint31_linear_20_2158" x1="360" y1="0" x2="360" y2="128.651" gradientUnits="userSpaceOnUse">
<stop stop-color="white"/>
<stop offset="0.270829" stop-color="#ECF3F7"/>
<stop offset="0.619793" stop-color="#E0E7ED"/>
<stop offset="1" stop-color="#99AAC2"/>
</linearGradient>
<linearGradient id="paint32_linear_20_2158" x1="360" y1="0" x2="360" y2="128.651" gradientUnits="userSpaceOnUse">
<stop stop-color="white"/>
<stop offset="0.270829" stop-color="#ECF3F7"/>
<stop offset="0.619793" stop-color="#E0E7ED"/>
<stop offset="1" stop-color="#99AAC2"/>
</linearGradient>
<linearGradient id="paint33_linear_20_2158" x1="360" y1="0" x2="360" y2="128.651" gradientUnits="userSpaceOnUse">
<stop stop-color="white"/>
<stop offset="0.270829" stop-color="#ECF3F7"/>
<stop offset="0.619793" stop-color="#E0E7ED"/>
<stop offset="1" stop-color="#99AAC2"/>
</linearGradient>
<linearGradient id="paint34_linear_20_2158" x1="360" y1="0" x2="360" y2="128.651" gradientUnits="userSpaceOnUse">
<stop stop-color="white"/>
<stop offset="0.270829" stop-color="#ECF3F7"/>
<stop offset="0.619793" stop-color="#E0E7ED"/>
<stop offset="1" stop-color="#99AAC2"/>
</linearGradient>
<linearGradient id="paint35_linear_20_2158" x1="360" y1="0" x2="360" y2="128.651" gradientUnits="userSpaceOnUse">
<stop stop-color="white"/>
<stop offset="0.270829" stop-color="#ECF3F7"/>
<stop offset="0.619793" stop-color="#E0E7ED"/>
<stop offset="1" stop-color="#99AAC2"/>
</linearGradient>
<linearGradient id="paint36_linear_20_2158" x1="360" y1="0" x2="360" y2="128.651" gradientUnits="userSpaceOnUse">
<stop stop-color="white"/>
<stop offset="0.270829" stop-color="#ECF3F7"/>
<stop offset="0.619793" stop-color="#E0E7ED"/>
<stop offset="1" stop-color="#99AAC2"/>
</linearGradient>
<linearGradient id="paint37_linear_20_2158" x1="360" y1="0" x2="360" y2="128.651" gradientUnits="userSpaceOnUse">
<stop stop-color="white"/>
<stop offset="0.270829" stop-color="#ECF3F7"/>
<stop offset="0.619793" stop-color="#E0E7ED"/>
<stop offset="1" stop-color="#99AAC2"/>
</linearGradient>
<linearGradient id="paint38_linear_20_2158" x1="360" y1="0" x2="360" y2="128.651" gradientUnits="userSpaceOnUse">
<stop stop-color="white"/>
<stop offset="0.270829" stop-color="#ECF3F7"/>
<stop offset="0.619793" stop-color="#E0E7ED"/>
<stop offset="1" stop-color="#99AAC2"/>
</linearGradient>
<linearGradient id="paint39_linear_20_2158" x1="360" y1="0" x2="360" y2="128.651" gradientUnits="userSpaceOnUse">
<stop stop-color="white"/>
<stop offset="0.270829" stop-color="#ECF3F7"/>
<stop offset="0.619793" stop-color="#E0E7ED"/>
<stop offset="1" stop-color="#99AAC2"/>
</linearGradient>
<linearGradient id="paint40_linear_20_2158" x1="360" y1="0" x2="360" y2="128.651" gradientUnits="userSpaceOnUse">
<stop stop-color="white"/>
<stop offset="0.270829" stop-color="#ECF3F7"/>
<stop offset="0.619793" stop-color="#E0E7ED"/>
<stop offset="1" stop-color="#99AAC2"/>
</linearGradient>
<linearGradient id="paint41_linear_20_2158" x1="360" y1="0" x2="360" y2="128.651" gradientUnits="userSpaceOnUse">
<stop stop-color="white"/>
<stop offset="0.270829" stop-color="#ECF3F7"/>
<stop offset="0.619793" stop-color="#E0E7ED"/>
<stop offset="1" stop-color="#99AAC2"/>
</linearGradient>
<linearGradient id="paint42_linear_20_2158" x1="360" y1="0" x2="360" y2="128.651" gradientUnits="userSpaceOnUse">
<stop stop-color="white"/>
<stop offset="0.270829" stop-color="#ECF3F7"/>
<stop offset="0.619793" stop-color="#E0E7ED"/>
<stop offset="1" stop-color="#99AAC2"/>
</linearGradient>
<linearGradient id="paint43_linear_20_2158" x1="360" y1="0" x2="360" y2="128.651" gradientUnits="userSpaceOnUse">
<stop stop-color="white"/>
<stop offset="0.270829" stop-color="#ECF3F7"/>
<stop offset="0.619793" stop-color="#E0E7ED"/>
<stop offset="1" stop-color="#99AAC2"/>
</linearGradient>
<linearGradient id="paint44_linear_20_2158" x1="360" y1="0" x2="360" y2="128.651" gradientUnits="userSpaceOnUse">
<stop stop-color="white"/>
<stop offset="0.270829" stop-color="#ECF3F7"/>
<stop offset="0.619793" stop-color="#E0E7ED"/>
<stop offset="1" stop-color="#99AAC2"/>
</linearGradient>
<linearGradient id="paint45_linear_20_2158" x1="360" y1="0" x2="360" y2="128.651" gradientUnits="userSpaceOnUse">
<stop stop-color="white"/>
<stop offset="0.270829" stop-color="#ECF3F7"/>
<stop offset="0.619793" stop-color="#E0E7ED"/>
<stop offset="1" stop-color="#99AAC2"/>
</linearGradient>
<linearGradient id="paint46_linear_20_2158" x1="360" y1="0" x2="360" y2="128.651" gradientUnits="userSpaceOnUse">
<stop stop-color="white"/>
<stop offset="0.270829" stop-color="#ECF3F7"/>
<stop offset="0.619793" stop-color="#E0E7ED"/>
<stop offset="1" stop-color="#99AAC2"/>
</linearGradient>
<linearGradient id="paint47_linear_20_2158" x1="360" y1="0" x2="360" y2="128.651" gradientUnits="userSpaceOnUse">
<stop stop-color="white"/>
<stop offset="0.270829" stop-color="#ECF3F7"/>
<stop offset="0.619793" stop-color="#E0E7ED"/>
<stop offset="1" stop-color="#99AAC2"/>
</linearGradient>
<linearGradient id="paint48_linear_20_2158" x1="360" y1="0" x2="360" y2="128.651" gradientUnits="userSpaceOnUse">
<stop stop-color="white"/>
<stop offset="0.270829" stop-color="#ECF3F7"/>
<stop offset="0.619793" stop-color="#E0E7ED"/>
<stop offset="1" stop-color="#99AAC2"/>
</linearGradient>
<linearGradient id="paint49_linear_20_2158" x1="360" y1="0" x2="360" y2="128.651" gradientUnits="userSpaceOnUse">
<stop stop-color="white"/>
<stop offset="0.270829" stop-color="#ECF3F7"/>
<stop offset="0.619793" stop-color="#E0E7ED"/>
<stop offset="1" stop-color="#99AAC2"/>
</linearGradient>
<linearGradient id="paint50_linear_20_2158" x1="360" y1="0" x2="360" y2="128.651" gradientUnits="userSpaceOnUse">
<stop stop-color="white"/>
<stop offset="0.270829" stop-color="#ECF3F7"/>
<stop offset="0.619793" stop-color="#E0E7ED"/>
<stop offset="1" stop-color="#99AAC2"/>
</linearGradient>
</defs>
</svg>
