<svg width="88" height="88" viewBox="0 0 88 88" fill="none" xmlns="http://www.w3.org/2000/svg">
<g filter="url(#filter0_d_21_27360)">
<circle cx="44" cy="44" r="24" fill="url(#paint0_linear_21_27360)"/>
<circle cx="44" cy="44" r="23.75" stroke="#ECF7FF" stroke-width="0.5"/>
</g>
<mask id="mask0_21_27360" style="mask-type:alpha" maskUnits="userSpaceOnUse" x="20" y="20" width="48" height="48">
<circle cx="44" cy="44" r="24" fill="black"/>
</mask>
<g mask="url(#mask0_21_27360)">
<circle cx="66" cy="66" r="15.75" stroke="#ECF7FF" stroke-width="0.5"/>
<circle cx="22" cy="66" r="15.75" stroke="#ECF7FF" stroke-width="0.5"/>
<circle cx="44" cy="12" r="15.75" stroke="#ECF7FF" stroke-width="0.5"/>
<path d="M44.9238 -2L45.3012 -1.67197L-0.622949 51.1577L-1.0003 50.8297L44.9238 -2Z" fill="url(#paint1_linear_21_27360)" fill-opacity="0.33"/>
<path d="M46.0559 -1.01591L46.4332 -0.687882L0.509115 52.1418L0.131761 51.8138L46.0559 -1.01591Z" fill="url(#paint2_linear_21_27360)" fill-opacity="0.33"/>
<path d="M47.188 -0.0318229L47.5653 0.296207L1.64118 53.1259L1.26382 52.7978L47.188 -0.0318229Z" fill="url(#paint3_linear_21_27360)" fill-opacity="0.33"/>
<path d="M48.32 0.952266L48.6974 1.2803L2.77324 54.11L2.39589 53.7819L48.32 0.952266Z" fill="url(#paint4_linear_21_27360)" fill-opacity="0.33"/>
<path d="M49.4521 1.93635L49.8294 2.26438L3.90531 55.0941L3.52795 54.766L49.4521 1.93635Z" fill="url(#paint5_linear_21_27360)" fill-opacity="0.33"/>
<path d="M50.5841 2.92044L50.9615 3.24847L5.03737 56.0781L4.66002 55.7501L50.5841 2.92044Z" fill="url(#paint6_linear_21_27360)" fill-opacity="0.33"/>
<path d="M51.7162 3.90453L52.0936 4.23256L6.16944 57.0622L5.79208 56.7342L51.7162 3.90453Z" fill="url(#paint7_linear_21_27360)" fill-opacity="0.33"/>
<path d="M52.8483 4.88862L53.2256 5.21665L7.3015 58.0463L6.92415 57.7183L52.8483 4.88862Z" fill="url(#paint8_linear_21_27360)" fill-opacity="0.33"/>
<path d="M53.9803 5.87271L54.3577 6.20074L8.43357 59.0304L8.05621 58.7024L53.9803 5.87271Z" fill="url(#paint9_linear_21_27360)" fill-opacity="0.33"/>
<path d="M55.1124 6.8568L55.4898 7.18483L9.56563 60.0145L9.18828 59.6865L55.1124 6.8568Z" fill="url(#paint10_linear_21_27360)" fill-opacity="0.33"/>
<path d="M56.2445 7.84089L56.6218 8.16891L10.6977 60.9986L10.3203 60.6706L56.2445 7.84089Z" fill="url(#paint11_linear_21_27360)" fill-opacity="0.33"/>
<path d="M57.3765 8.82497L57.7539 9.153L11.8298 61.9827L11.4524 61.6546L57.3765 8.82497Z" fill="url(#paint12_linear_21_27360)" fill-opacity="0.33"/>
<path d="M58.5086 9.80906L58.886 10.1371L12.9618 62.9668L12.5845 62.6387L58.5086 9.80906Z" fill="url(#paint13_linear_21_27360)" fill-opacity="0.33"/>
<path d="M59.6407 10.7932L60.018 11.1212L14.0939 63.9508L13.7165 63.6228L59.6407 10.7932Z" fill="url(#paint14_linear_21_27360)" fill-opacity="0.33"/>
<path d="M60.7727 11.7772L61.1501 12.1053L15.226 64.9349L14.8486 64.6069L60.7727 11.7772Z" fill="url(#paint15_linear_21_27360)" fill-opacity="0.33"/>
<path d="M61.9048 12.7613L62.2821 13.0894L16.358 65.919L15.9807 65.591L61.9048 12.7613Z" fill="url(#paint16_linear_21_27360)" fill-opacity="0.33"/>
<path d="M63.0369 13.7454L63.4142 14.0734L17.4901 66.9031L17.1127 66.5751L63.0369 13.7454Z" fill="url(#paint17_linear_21_27360)" fill-opacity="0.33"/>
<path d="M64.1689 14.7295L64.5463 15.0575L18.6221 67.8872L18.2448 67.5592L64.1689 14.7295Z" fill="url(#paint18_linear_21_27360)" fill-opacity="0.33"/>
<path d="M65.301 15.7136L65.6783 16.0416L19.7542 68.8713L19.3769 68.5433L65.301 15.7136Z" fill="url(#paint19_linear_21_27360)" fill-opacity="0.33"/>
<path d="M66.4331 16.6977L66.8104 17.0257L20.8863 69.8554L20.5089 69.5274L66.4331 16.6977Z" fill="url(#paint20_linear_21_27360)" fill-opacity="0.33"/>
<path d="M67.5651 17.6818L67.9425 18.0098L22.0183 70.8395L21.641 70.5114L67.5651 17.6818Z" fill="url(#paint21_linear_21_27360)" fill-opacity="0.33"/>
<path d="M68.6972 18.6659L69.0745 18.9939L23.1504 71.8236L22.773 71.4955L68.6972 18.6659Z" fill="url(#paint22_linear_21_27360)" fill-opacity="0.33"/>
<path d="M69.8292 19.6499L70.2066 19.978L24.2825 72.8076L23.9051 72.4796L69.8292 19.6499Z" fill="url(#paint23_linear_21_27360)" fill-opacity="0.33"/>
<path d="M70.9613 20.634L71.3387 20.9621L25.4145 73.7917L25.0372 73.4637L70.9613 20.634Z" fill="url(#paint24_linear_21_27360)" fill-opacity="0.33"/>
<path d="M72.0934 21.6181L72.4707 21.9462L26.5466 74.7758L26.1692 74.4478L72.0934 21.6181Z" fill="url(#paint25_linear_21_27360)" fill-opacity="0.33"/>
<path d="M73.2254 22.6022L73.6028 22.9302L27.6787 75.7599L27.3013 75.4319L73.2254 22.6022Z" fill="url(#paint26_linear_21_27360)" fill-opacity="0.33"/>
<path d="M74.3575 23.5863L74.7349 23.9143L28.8107 76.744L28.4334 76.416L74.3575 23.5863Z" fill="url(#paint27_linear_21_27360)" fill-opacity="0.33"/>
<path d="M75.4896 24.5704L75.8669 24.8984L29.9428 77.7281L29.5654 77.4001L75.4896 24.5704Z" fill="url(#paint28_linear_21_27360)" fill-opacity="0.33"/>
<path d="M76.6216 25.5545L76.999 25.8825L31.0749 78.7122L30.6975 78.3841L76.6216 25.5545Z" fill="url(#paint29_linear_21_27360)" fill-opacity="0.33"/>
<path d="M77.7537 26.5386L78.131 26.8666L32.2069 79.6963L31.8296 79.3682L77.7537 26.5386Z" fill="url(#paint30_linear_21_27360)" fill-opacity="0.33"/>
<path d="M78.8858 27.5227L79.2631 27.8507L33.339 80.6804L32.9616 80.3523L78.8858 27.5227Z" fill="url(#paint31_linear_21_27360)" fill-opacity="0.33"/>
<path d="M80.0178 28.5067L80.3952 28.8348L34.471 81.6644L34.0937 81.3364L80.0178 28.5067Z" fill="url(#paint32_linear_21_27360)" fill-opacity="0.33"/>
<path d="M81.1499 29.4908L81.5272 29.8189L35.6031 82.6485L35.2258 82.3205L81.1499 29.4908Z" fill="url(#paint33_linear_21_27360)" fill-opacity="0.33"/>
<path d="M82.282 30.4749L82.6593 30.803L36.7352 83.6326L36.3578 83.3046L82.282 30.4749Z" fill="url(#paint34_linear_21_27360)" fill-opacity="0.33"/>
<path d="M83.414 31.459L83.7914 31.787L37.8672 84.6167L37.4899 84.2887L83.414 31.459Z" fill="url(#paint35_linear_21_27360)" fill-opacity="0.33"/>
<path d="M84.5461 32.4431L84.9234 32.7711L38.9993 85.6008L38.6219 85.2728L84.5461 32.4431Z" fill="url(#paint36_linear_21_27360)" fill-opacity="0.33"/>
<path d="M85.6781 33.4272L86.0555 33.7552L40.1314 86.5849L39.754 86.2569L85.6781 33.4272Z" fill="url(#paint37_linear_21_27360)" fill-opacity="0.33"/>
<path d="M86.8102 34.4113L87.1876 34.7393L41.2634 87.569L40.8861 87.2409L86.8102 34.4113Z" fill="url(#paint38_linear_21_27360)" fill-opacity="0.33"/>
<path d="M87.9423 35.3954L88.3196 35.7234L42.3955 88.5531L42.0181 88.225L87.9423 35.3954Z" fill="url(#paint39_linear_21_27360)" fill-opacity="0.33"/>
<path d="M89.0743 36.3795L89.4517 36.7075L43.5276 89.5372L43.1502 89.2091L89.0743 36.3795Z" fill="url(#paint40_linear_21_27360)" fill-opacity="0.33"/>
</g>
<path fill-rule="evenodd" clip-rule="evenodd" d="M35.8105 25.748C28.8483 28.8768 24 35.8722 24 43.9999C24 46.1944 24.3534 48.3064 25.0065 50.2819C25.1972 50.3182 25.3866 50.3578 25.5749 50.4008C24.8784 48.3958 24.5 46.242 24.5 43.9999C24.5 35.9451 29.3838 29.0309 36.3517 26.057C36.1691 25.9574 35.9887 25.8544 35.8105 25.748ZM51.6483 26.057C58.6162 29.0309 63.5 35.9451 63.5 43.9999C63.5 46.242 63.1216 48.3958 62.4251 50.4008C62.6134 50.3578 62.8028 50.3182 62.9935 50.2819C63.6466 48.3064 64 46.1944 64 43.9999C64 35.8722 59.1517 28.8768 52.1895 25.748C52.0113 25.8544 51.8309 25.9574 51.6483 26.057ZM50.4009 62.4251C48.3959 63.1215 46.2421 63.4999 44 63.4999C41.7579 63.4999 39.6041 63.1215 37.5991 62.4251C37.6421 62.6133 37.6817 62.8027 37.718 62.9934C39.6936 63.6465 41.8055 63.9999 44 63.9999C46.1945 63.9999 48.3064 63.6465 50.282 62.9934C50.3183 62.8027 50.3579 62.6133 50.4009 62.4251Z" fill="#ECF7FF"/>
<path fill-rule="evenodd" clip-rule="evenodd" d="M22.2514 44.2451L22.0014 44.2479C22.0005 44.1654 22 44.0827 22 43.9999C22 43.9172 22.0005 43.8345 22.0014 43.752L22.2514 43.7547L22.5013 43.7575C22.5004 43.8382 22.5 43.919 22.5 43.9999C22.5 44.0809 22.5004 44.1617 22.5013 44.2424L22.2514 44.2451ZM22.3592 41.8065L22.1105 41.7816C22.1269 41.6171 22.1452 41.4532 22.1653 41.2898L22.4134 41.3203L22.6615 41.3508C22.6419 41.5104 22.6241 41.6707 22.608 41.8314L22.3592 41.8065ZM22.7381 39.3962L22.4937 39.3436C22.5285 39.1824 22.565 39.0218 22.6032 38.8619L22.8464 38.9201L23.0895 38.9783C23.0521 39.1345 23.0164 39.2914 22.9825 39.4489L22.7381 39.3962ZM23.3858 37.0445L23.1489 36.9646C23.2015 36.8087 23.2558 36.6535 23.3118 36.4991L23.5468 36.5844L23.7818 36.6696C23.7271 36.8204 23.6741 36.9721 23.6227 37.1244L23.3858 37.0445ZM24.2945 34.7813L24.0681 34.6752C24.138 34.5261 24.2095 34.3779 24.2826 34.2306L24.5066 34.3417L24.7305 34.4529C24.659 34.5968 24.5892 34.7417 24.5209 34.8874L24.2945 34.7813ZM25.4521 32.6344L25.2391 32.5036C25.3253 32.3633 25.413 32.2239 25.5022 32.0857L25.7123 32.2212L25.9223 32.3568C25.8351 32.4919 25.7494 32.6281 25.6652 32.7653L25.4521 32.6344ZM26.8431 30.6303L26.646 30.4765C26.7473 30.3468 26.8499 30.2182 26.954 30.0908L27.1476 30.249L27.3412 30.4071C27.2395 30.5316 27.1391 30.6573 27.0402 30.7841L26.8431 30.6303ZM28.4488 28.7939L28.2701 28.6191C28.3851 28.5014 28.5015 28.3851 28.6192 28.27L28.794 28.4487L28.9688 28.6275C28.8538 28.7399 28.74 28.8537 28.6275 28.9687L28.4488 28.7939ZM30.249 27.1476L30.0909 26.954C30.2183 26.8499 30.3468 26.7472 30.4766 26.6459L30.6304 26.843L30.7842 27.0401C30.6574 27.1391 30.5317 27.2394 30.4072 27.3412L30.249 27.1476ZM32.2213 25.7122L32.0857 25.5022C32.224 25.4129 32.3633 25.3252 32.5037 25.239L32.6345 25.4521L32.7653 25.6651C32.6282 25.7493 32.492 25.8351 32.3569 25.9223L32.2213 25.7122ZM55.9143 25.5022C55.776 25.4129 55.6367 25.3252 55.4963 25.239L55.3655 25.4521L55.2347 25.6651C55.3718 25.7493 55.508 25.8351 55.6431 25.9223L55.7787 25.7122L55.9143 25.5022ZM57.3696 26.843L57.5234 26.6459C57.6532 26.7472 57.7817 26.8499 57.9091 26.954L57.751 27.1476L57.5928 27.3412C57.4683 27.2394 57.3426 27.1391 57.2158 27.0401L57.3696 26.843ZM59.206 28.4487L59.3808 28.27C59.4985 28.3851 59.6149 28.5014 59.7299 28.6191L59.5512 28.7939L59.3725 28.9687C59.26 28.8537 59.1462 28.7399 59.0312 28.6275L59.206 28.4487ZM60.8524 30.249L61.046 30.0908C61.1501 30.2182 61.2527 30.3468 61.354 30.4765L61.1569 30.6303L60.9598 30.7841C60.8609 30.6573 60.7605 30.5316 60.6588 30.4071L60.8524 30.249ZM62.2877 32.2212L62.4978 32.0857C62.587 32.2239 62.6747 32.3633 62.7609 32.5036L62.5479 32.6344L62.3348 32.7653C62.2506 32.6281 62.1649 32.4919 62.0777 32.3568L62.2877 32.2212ZM63.4934 34.3417L63.7174 34.2306C63.7905 34.3779 63.862 34.5261 63.9319 34.6752L63.7055 34.7813L63.4791 34.8874C63.4108 34.7417 63.341 34.5968 63.2695 34.4529L63.4934 34.3417ZM64.4532 36.5844L64.6882 36.4991C64.7442 36.6535 64.7985 36.8087 64.8511 36.9646L64.6142 37.0445L64.3773 37.1244C64.3259 36.9721 64.2729 36.8204 64.2182 36.6696L64.4532 36.5844ZM65.1536 38.9201L65.3968 38.8619C65.435 39.0218 65.4715 39.1824 65.5063 39.3436L65.2619 39.3962L65.0175 39.4489C64.9836 39.2914 64.9479 39.1345 64.9105 38.9783L65.1536 38.9201ZM65.5866 41.3203L65.8347 41.2898C65.8548 41.4532 65.8731 41.6171 65.8895 41.7816L65.6408 41.8065L65.392 41.8314C65.3759 41.6706 65.3581 41.5104 65.3385 41.3508L65.5866 41.3203ZM66 43.9999C66 43.9172 65.9995 43.8345 65.9986 43.752L65.7486 43.7547L65.4987 43.7575C65.4996 43.8382 65.5 43.919 65.5 43.9999C65.5 44.0809 65.4996 44.1617 65.4987 44.2424L65.7486 44.2451L65.9986 44.2479C65.9995 44.1653 66 44.0827 66 43.9999ZM65.6408 46.1934L65.8895 46.2183C65.8731 46.3828 65.8548 46.5467 65.8347 46.7101L65.5866 46.6796L65.3385 46.6491C65.3581 46.4894 65.3759 46.3292 65.392 46.1685L65.6408 46.1934ZM65.2619 48.6036L65.5063 48.6563C65.4715 48.8175 65.435 48.9781 65.3968 49.138L65.1536 49.0798L64.9105 49.0216C64.9479 48.8654 64.9836 48.7085 65.0175 48.551L65.2619 48.6036ZM49.0798 65.1536L49.138 65.3967C48.9781 65.435 48.8176 65.4715 48.6564 65.5062L48.6037 65.2618L48.551 65.0174C48.7086 64.9835 48.8655 64.9478 49.0217 64.9104L49.0798 65.1536ZM46.6796 65.5865L46.7101 65.8347C46.5467 65.8547 46.3828 65.873 46.2184 65.8895L46.1935 65.6407L46.1685 65.392C46.3293 65.3759 46.4895 65.358 46.6492 65.3384L46.6796 65.5865ZM44.2452 65.7486L44.248 65.9986C44.1654 65.9995 44.0828 65.9999 44 65.9999C43.9172 65.9999 43.8346 65.9995 43.752 65.9986L43.7548 65.7486L43.7576 65.4986C43.8383 65.4995 43.9191 65.4999 44 65.4999C44.0809 65.4999 44.1617 65.4995 44.2424 65.4986L44.2452 65.7486ZM41.8065 65.6407L41.7816 65.8895C41.6172 65.873 41.4533 65.8547 41.2899 65.8347L41.3204 65.5865L41.3508 65.3384C41.5105 65.358 41.6707 65.3759 41.8315 65.392L41.8065 65.6407ZM39.3963 65.2618L39.3436 65.5062C39.1824 65.4715 39.0219 65.435 38.862 65.3967L38.9202 65.1536L38.9783 64.9104C39.1345 64.9478 39.2914 64.9835 39.449 65.0174L39.3963 65.2618ZM22.8464 49.0798L22.6032 49.138C22.565 48.9781 22.5285 48.8175 22.4937 48.6563L22.7381 48.6036L22.9825 48.551C23.0164 48.7085 23.0521 48.8654 23.0895 49.0216L22.8464 49.0798ZM22.4134 46.6796L22.1653 46.7101C22.1452 46.5467 22.1269 46.3828 22.1105 46.2183L22.3592 46.1934L22.608 46.1685C22.6241 46.3292 22.6419 46.4894 22.6615 46.6491L22.4134 46.6796Z" fill="#ECF7FF"/>
<g filter="url(#filter1_d_21_27360)">
<path fill-rule="evenodd" clip-rule="evenodd" d="M47.4122 46.8515L50 46.4545L44 53L42.6914 51.5724L47.4122 46.8515ZM42.2585 51.1002L41.8256 50.6279L45.274 47.1796L46.3431 47.0155L42.2585 51.1002ZM44.2049 47.3436L41.3927 50.1557L40.9599 49.6835L43.3657 47.2777L44 47.375L44.2049 47.3436ZM42.581 47.1573L40.527 49.2113L38 46.4545L42.581 47.1573ZM44 44.8182L39.5 39.9091L44 40.625L48.5 39.9091L44 44.8182ZM44 38.2727L41 35H47L44 38.2727Z" fill="url(#paint41_linear_21_27360)"/>
</g>
<defs>
<filter id="filter0_d_21_27360" x="0" y="0" width="88" height="88" filterUnits="userSpaceOnUse" color-interpolation-filters="sRGB">
<feFlood flood-opacity="0" result="BackgroundImageFix"/>
<feColorMatrix in="SourceAlpha" type="matrix" values="0 0 0 0 0 0 0 0 0 0 0 0 0 0 0 0 0 0 127 0" result="hardAlpha"/>
<feOffset/>
<feGaussianBlur stdDeviation="10"/>
<feComposite in2="hardAlpha" operator="out"/>
<feColorMatrix type="matrix" values="0 0 0 0 0.0840327 0 0 0 0 0.737666 0 0 0 0 0.0706933 0 0 0 1 0"/>
<feBlend mode="normal" in2="BackgroundImageFix" result="effect1_dropShadow_21_27360"/>
<feBlend mode="normal" in="SourceGraphic" in2="effect1_dropShadow_21_27360" result="shape"/>
</filter>
<filter id="filter1_d_21_27360" x="22" y="19" width="44" height="50" filterUnits="userSpaceOnUse" color-interpolation-filters="sRGB">
<feFlood flood-opacity="0" result="BackgroundImageFix"/>
<feColorMatrix in="SourceAlpha" type="matrix" values="0 0 0 0 0 0 0 0 0 0 0 0 0 0 0 0 0 0 127 0" result="hardAlpha"/>
<feOffset/>
<feGaussianBlur stdDeviation="8"/>
<feComposite in2="hardAlpha" operator="out"/>
<feColorMatrix type="matrix" values="0 0 0 0 0.356713 0 0 0 0 0.339529 0 0 0 0 0.554333 0 0 0 1 0"/>
<feBlend mode="normal" in2="BackgroundImageFix" result="effect1_dropShadow_21_27360"/>
<feBlend mode="normal" in="SourceGraphic" in2="effect1_dropShadow_21_27360" result="shape"/>
</filter>
<linearGradient id="paint0_linear_21_27360" x1="44" y1="20" x2="44" y2="68" gradientUnits="userSpaceOnUse">
<stop stop-color="#75BE36"/>
<stop offset="1" stop-color="#14650E"/>
</linearGradient>
<linearGradient id="paint1_linear_21_27360" x1="59" y1="24.5" x2="16.5" y2="100.5" gradientUnits="userSpaceOnUse">
<stop stop-color="white" stop-opacity="0"/>
<stop offset="1" stop-color="white"/>
</linearGradient>
<linearGradient id="paint2_linear_21_27360" x1="59" y1="24.5" x2="16.5" y2="100.5" gradientUnits="userSpaceOnUse">
<stop stop-color="white" stop-opacity="0"/>
<stop offset="1" stop-color="white"/>
</linearGradient>
<linearGradient id="paint3_linear_21_27360" x1="59" y1="24.5" x2="16.5" y2="100.5" gradientUnits="userSpaceOnUse">
<stop stop-color="white" stop-opacity="0"/>
<stop offset="1" stop-color="white"/>
</linearGradient>
<linearGradient id="paint4_linear_21_27360" x1="59" y1="24.5" x2="16.5" y2="100.5" gradientUnits="userSpaceOnUse">
<stop stop-color="white" stop-opacity="0"/>
<stop offset="1" stop-color="white"/>
</linearGradient>
<linearGradient id="paint5_linear_21_27360" x1="59" y1="24.5" x2="16.5" y2="100.5" gradientUnits="userSpaceOnUse">
<stop stop-color="white" stop-opacity="0"/>
<stop offset="1" stop-color="white"/>
</linearGradient>
<linearGradient id="paint6_linear_21_27360" x1="59" y1="24.5" x2="16.5" y2="100.5" gradientUnits="userSpaceOnUse">
<stop stop-color="white" stop-opacity="0"/>
<stop offset="1" stop-color="white"/>
</linearGradient>
<linearGradient id="paint7_linear_21_27360" x1="59" y1="24.5" x2="16.5" y2="100.5" gradientUnits="userSpaceOnUse">
<stop stop-color="white" stop-opacity="0"/>
<stop offset="1" stop-color="white"/>
</linearGradient>
<linearGradient id="paint8_linear_21_27360" x1="59" y1="24.5" x2="16.5" y2="100.5" gradientUnits="userSpaceOnUse">
<stop stop-color="white" stop-opacity="0"/>
<stop offset="1" stop-color="white"/>
</linearGradient>
<linearGradient id="paint9_linear_21_27360" x1="59" y1="24.5" x2="16.5" y2="100.5" gradientUnits="userSpaceOnUse">
<stop stop-color="white" stop-opacity="0"/>
<stop offset="1" stop-color="white"/>
</linearGradient>
<linearGradient id="paint10_linear_21_27360" x1="59" y1="24.5" x2="16.5" y2="100.5" gradientUnits="userSpaceOnUse">
<stop stop-color="white" stop-opacity="0"/>
<stop offset="1" stop-color="white"/>
</linearGradient>
<linearGradient id="paint11_linear_21_27360" x1="59" y1="24.5" x2="16.5" y2="100.5" gradientUnits="userSpaceOnUse">
<stop stop-color="white" stop-opacity="0"/>
<stop offset="1" stop-color="white"/>
</linearGradient>
<linearGradient id="paint12_linear_21_27360" x1="59" y1="24.5" x2="16.5" y2="100.5" gradientUnits="userSpaceOnUse">
<stop stop-color="white" stop-opacity="0"/>
<stop offset="1" stop-color="white"/>
</linearGradient>
<linearGradient id="paint13_linear_21_27360" x1="59" y1="24.5" x2="16.5" y2="100.5" gradientUnits="userSpaceOnUse">
<stop stop-color="white" stop-opacity="0"/>
<stop offset="1" stop-color="white"/>
</linearGradient>
<linearGradient id="paint14_linear_21_27360" x1="59" y1="24.5" x2="16.5" y2="100.5" gradientUnits="userSpaceOnUse">
<stop stop-color="white" stop-opacity="0"/>
<stop offset="1" stop-color="white"/>
</linearGradient>
<linearGradient id="paint15_linear_21_27360" x1="59" y1="24.5" x2="16.5" y2="100.5" gradientUnits="userSpaceOnUse">
<stop stop-color="white" stop-opacity="0"/>
<stop offset="1" stop-color="white"/>
</linearGradient>
<linearGradient id="paint16_linear_21_27360" x1="59" y1="24.5" x2="16.5" y2="100.5" gradientUnits="userSpaceOnUse">
<stop stop-color="white" stop-opacity="0"/>
<stop offset="1" stop-color="white"/>
</linearGradient>
<linearGradient id="paint17_linear_21_27360" x1="59" y1="24.5" x2="16.5" y2="100.5" gradientUnits="userSpaceOnUse">
<stop stop-color="white" stop-opacity="0"/>
<stop offset="1" stop-color="white"/>
</linearGradient>
<linearGradient id="paint18_linear_21_27360" x1="59" y1="24.5" x2="16.5" y2="100.5" gradientUnits="userSpaceOnUse">
<stop stop-color="white" stop-opacity="0"/>
<stop offset="1" stop-color="white"/>
</linearGradient>
<linearGradient id="paint19_linear_21_27360" x1="59" y1="24.5" x2="16.5" y2="100.5" gradientUnits="userSpaceOnUse">
<stop stop-color="white" stop-opacity="0"/>
<stop offset="1" stop-color="white"/>
</linearGradient>
<linearGradient id="paint20_linear_21_27360" x1="59" y1="24.5" x2="16.5" y2="100.5" gradientUnits="userSpaceOnUse">
<stop stop-color="white" stop-opacity="0"/>
<stop offset="1" stop-color="white"/>
</linearGradient>
<linearGradient id="paint21_linear_21_27360" x1="59" y1="24.5" x2="16.5" y2="100.5" gradientUnits="userSpaceOnUse">
<stop stop-color="white" stop-opacity="0"/>
<stop offset="1" stop-color="white"/>
</linearGradient>
<linearGradient id="paint22_linear_21_27360" x1="59" y1="24.5" x2="16.5" y2="100.5" gradientUnits="userSpaceOnUse">
<stop stop-color="white" stop-opacity="0"/>
<stop offset="1" stop-color="white"/>
</linearGradient>
<linearGradient id="paint23_linear_21_27360" x1="59" y1="24.5" x2="16.5" y2="100.5" gradientUnits="userSpaceOnUse">
<stop stop-color="white" stop-opacity="0"/>
<stop offset="1" stop-color="white"/>
</linearGradient>
<linearGradient id="paint24_linear_21_27360" x1="59" y1="24.5" x2="16.5" y2="100.5" gradientUnits="userSpaceOnUse">
<stop stop-color="white" stop-opacity="0"/>
<stop offset="1" stop-color="white"/>
</linearGradient>
<linearGradient id="paint25_linear_21_27360" x1="59" y1="24.5" x2="16.5" y2="100.5" gradientUnits="userSpaceOnUse">
<stop stop-color="white" stop-opacity="0"/>
<stop offset="1" stop-color="white"/>
</linearGradient>
<linearGradient id="paint26_linear_21_27360" x1="59" y1="24.5" x2="16.5" y2="100.5" gradientUnits="userSpaceOnUse">
<stop stop-color="white" stop-opacity="0"/>
<stop offset="1" stop-color="white"/>
</linearGradient>
<linearGradient id="paint27_linear_21_27360" x1="59" y1="24.5" x2="16.5" y2="100.5" gradientUnits="userSpaceOnUse">
<stop stop-color="white" stop-opacity="0"/>
<stop offset="1" stop-color="white"/>
</linearGradient>
<linearGradient id="paint28_linear_21_27360" x1="59" y1="24.5" x2="16.5" y2="100.5" gradientUnits="userSpaceOnUse">
<stop stop-color="white" stop-opacity="0"/>
<stop offset="1" stop-color="white"/>
</linearGradient>
<linearGradient id="paint29_linear_21_27360" x1="59" y1="24.5" x2="16.5" y2="100.5" gradientUnits="userSpaceOnUse">
<stop stop-color="white" stop-opacity="0"/>
<stop offset="1" stop-color="white"/>
</linearGradient>
<linearGradient id="paint30_linear_21_27360" x1="59" y1="24.5" x2="16.5" y2="100.5" gradientUnits="userSpaceOnUse">
<stop stop-color="white" stop-opacity="0"/>
<stop offset="1" stop-color="white"/>
</linearGradient>
<linearGradient id="paint31_linear_21_27360" x1="59" y1="24.5" x2="16.5" y2="100.5" gradientUnits="userSpaceOnUse">
<stop stop-color="white" stop-opacity="0"/>
<stop offset="1" stop-color="white"/>
</linearGradient>
<linearGradient id="paint32_linear_21_27360" x1="59" y1="24.5" x2="16.5" y2="100.5" gradientUnits="userSpaceOnUse">
<stop stop-color="white" stop-opacity="0"/>
<stop offset="1" stop-color="white"/>
</linearGradient>
<linearGradient id="paint33_linear_21_27360" x1="59" y1="24.5" x2="16.5" y2="100.5" gradientUnits="userSpaceOnUse">
<stop stop-color="white" stop-opacity="0"/>
<stop offset="1" stop-color="white"/>
</linearGradient>
<linearGradient id="paint34_linear_21_27360" x1="59" y1="24.5" x2="16.5" y2="100.5" gradientUnits="userSpaceOnUse">
<stop stop-color="white" stop-opacity="0"/>
<stop offset="1" stop-color="white"/>
</linearGradient>
<linearGradient id="paint35_linear_21_27360" x1="59" y1="24.5" x2="16.5" y2="100.5" gradientUnits="userSpaceOnUse">
<stop stop-color="white" stop-opacity="0"/>
<stop offset="1" stop-color="white"/>
</linearGradient>
<linearGradient id="paint36_linear_21_27360" x1="59" y1="24.5" x2="16.5" y2="100.5" gradientUnits="userSpaceOnUse">
<stop stop-color="white" stop-opacity="0"/>
<stop offset="1" stop-color="white"/>
</linearGradient>
<linearGradient id="paint37_linear_21_27360" x1="59" y1="24.5" x2="16.5" y2="100.5" gradientUnits="userSpaceOnUse">
<stop stop-color="white" stop-opacity="0"/>
<stop offset="1" stop-color="white"/>
</linearGradient>
<linearGradient id="paint38_linear_21_27360" x1="59" y1="24.5" x2="16.5" y2="100.5" gradientUnits="userSpaceOnUse">
<stop stop-color="white" stop-opacity="0"/>
<stop offset="1" stop-color="white"/>
</linearGradient>
<linearGradient id="paint39_linear_21_27360" x1="59" y1="24.5" x2="16.5" y2="100.5" gradientUnits="userSpaceOnUse">
<stop stop-color="white" stop-opacity="0"/>
<stop offset="1" stop-color="white"/>
</linearGradient>
<linearGradient id="paint40_linear_21_27360" x1="59" y1="24.5" x2="16.5" y2="100.5" gradientUnits="userSpaceOnUse">
<stop stop-color="white" stop-opacity="0"/>
<stop offset="1" stop-color="white"/>
</linearGradient>
<linearGradient id="paint41_linear_21_27360" x1="50" y1="44" x2="37.7475" y2="44" gradientUnits="userSpaceOnUse">
<stop stop-color="white"/>
<stop offset="0.270829" stop-color="#ECF3F7"/>
<stop offset="0.619793" stop-color="#E0E7ED"/>
<stop offset="1" stop-color="#99AAC2"/>
</linearGradient>
</defs>
</svg>
