<svg width="144" height="144" viewBox="0 0 144 144" fill="none" xmlns="http://www.w3.org/2000/svg">
<g filter="url(#filter0_d_21_27285)">
<circle cx="72" cy="72" r="24" fill="#1A2142"/>
<circle cx="72" cy="72" r="23.75" stroke="#4A525F" stroke-width="0.5"/>
</g>
<mask id="mask0_21_27285" style="mask-type:alpha" maskUnits="userSpaceOnUse" x="48" y="48" width="48" height="48">
<circle cx="72" cy="72" r="24" fill="black"/>
</mask>
<g mask="url(#mask0_21_27285)">
<circle cx="94" cy="94" r="15.75" stroke="#4A525F" stroke-width="0.5"/>
<circle cx="50" cy="94" r="15.75" stroke="#4A525F" stroke-width="0.5"/>
<circle cx="72" cy="40" r="15.75" stroke="#4A525F" stroke-width="0.5"/>
<path d="M72.9238 26L73.3012 26.328L27.3771 79.1577L26.9997 78.8297L72.9238 26Z" fill="url(#paint0_linear_21_27285)" fill-opacity="0.33"/>
<path d="M74.0559 26.9841L74.4332 27.3121L28.5091 80.1418L28.1318 79.8138L74.0559 26.9841Z" fill="url(#paint1_linear_21_27285)" fill-opacity="0.33"/>
<path d="M75.188 27.9682L75.5653 28.2962L29.6412 81.1259L29.2638 80.7978L75.188 27.9682Z" fill="url(#paint2_linear_21_27285)" fill-opacity="0.33"/>
<path d="M76.32 28.9523L76.6974 29.2803L30.7732 82.11L30.3959 81.7819L76.32 28.9523Z" fill="url(#paint3_linear_21_27285)" fill-opacity="0.33"/>
<path d="M77.4521 29.9364L77.8294 30.2644L31.9053 83.0941L31.528 82.766L77.4521 29.9364Z" fill="url(#paint4_linear_21_27285)" fill-opacity="0.33"/>
<path d="M78.5841 30.9204L78.9615 31.2485L33.0374 84.0781L32.66 83.7501L78.5841 30.9204Z" fill="url(#paint5_linear_21_27285)" fill-opacity="0.33"/>
<path d="M79.7162 31.9045L80.0936 32.2326L34.1694 85.0622L33.7921 84.7342L79.7162 31.9045Z" fill="url(#paint6_linear_21_27285)" fill-opacity="0.33"/>
<path d="M80.8483 32.8886L81.2256 33.2166L35.3015 86.0463L34.9241 85.7183L80.8483 32.8886Z" fill="url(#paint7_linear_21_27285)" fill-opacity="0.33"/>
<path d="M81.9803 33.8727L82.3577 34.2007L36.4336 87.0304L36.0562 86.7024L81.9803 33.8727Z" fill="url(#paint8_linear_21_27285)" fill-opacity="0.33"/>
<path d="M83.1124 34.8568L83.4898 35.1848L37.5656 88.0145L37.1883 87.6865L83.1124 34.8568Z" fill="url(#paint9_linear_21_27285)" fill-opacity="0.33"/>
<path d="M84.2445 35.8409L84.6218 36.1689L38.6977 88.9986L38.3203 88.6706L84.2445 35.8409Z" fill="url(#paint10_linear_21_27285)" fill-opacity="0.33"/>
<path d="M85.3765 36.825L85.7539 37.153L39.8298 89.9827L39.4524 89.6546L85.3765 36.825Z" fill="url(#paint11_linear_21_27285)" fill-opacity="0.33"/>
<path d="M86.5086 37.8091L86.886 38.1371L40.9618 90.9668L40.5845 90.6387L86.5086 37.8091Z" fill="url(#paint12_linear_21_27285)" fill-opacity="0.33"/>
<path d="M87.6407 38.7932L88.018 39.1212L42.0939 91.9508L41.7165 91.6228L87.6407 38.7932Z" fill="url(#paint13_linear_21_27285)" fill-opacity="0.33"/>
<path d="M88.7727 39.7772L89.1501 40.1053L43.226 92.9349L42.8486 92.6069L88.7727 39.7772Z" fill="url(#paint14_linear_21_27285)" fill-opacity="0.33"/>
<path d="M89.9048 40.7613L90.2821 41.0894L44.358 93.919L43.9807 93.591L89.9048 40.7613Z" fill="url(#paint15_linear_21_27285)" fill-opacity="0.33"/>
<path d="M91.0369 41.7454L91.4142 42.0734L45.4901 94.9031L45.1127 94.5751L91.0369 41.7454Z" fill="url(#paint16_linear_21_27285)" fill-opacity="0.33"/>
<path d="M92.1689 42.7295L92.5463 43.0575L46.6221 95.8872L46.2448 95.5592L92.1689 42.7295Z" fill="url(#paint17_linear_21_27285)" fill-opacity="0.33"/>
<path d="M93.301 43.7136L93.6783 44.0416L47.7542 96.8713L47.3769 96.5433L93.301 43.7136Z" fill="url(#paint18_linear_21_27285)" fill-opacity="0.33"/>
<path d="M94.4331 44.6977L94.8104 45.0257L48.8863 97.8554L48.5089 97.5274L94.4331 44.6977Z" fill="url(#paint19_linear_21_27285)" fill-opacity="0.33"/>
<path d="M95.5651 45.6818L95.9425 46.0098L50.0183 98.8395L49.641 98.5114L95.5651 45.6818Z" fill="url(#paint20_linear_21_27285)" fill-opacity="0.33"/>
<path d="M96.6972 46.6659L97.0745 46.9939L51.1504 99.8236L50.773 99.4955L96.6972 46.6659Z" fill="url(#paint21_linear_21_27285)" fill-opacity="0.33"/>
<path d="M97.8292 47.6499L98.2066 47.978L52.2825 100.808L51.9051 100.48L97.8292 47.6499Z" fill="url(#paint22_linear_21_27285)" fill-opacity="0.33"/>
<path d="M98.9613 48.634L99.3387 48.9621L53.4145 101.792L53.0372 101.464L98.9613 48.634Z" fill="url(#paint23_linear_21_27285)" fill-opacity="0.33"/>
<path d="M100.093 49.6181L100.471 49.9462L54.5466 102.776L54.1692 102.448L100.093 49.6181Z" fill="url(#paint24_linear_21_27285)" fill-opacity="0.33"/>
<path d="M101.225 50.6022L101.603 50.9302L55.6787 103.76L55.3013 103.432L101.225 50.6022Z" fill="url(#paint25_linear_21_27285)" fill-opacity="0.33"/>
<path d="M102.358 51.5863L102.735 51.9143L56.8107 104.744L56.4334 104.416L102.358 51.5863Z" fill="url(#paint26_linear_21_27285)" fill-opacity="0.33"/>
<path d="M103.49 52.5704L103.867 52.8984L57.9428 105.728L57.5654 105.4L103.49 52.5704Z" fill="url(#paint27_linear_21_27285)" fill-opacity="0.33"/>
<path d="M104.622 53.5545L104.999 53.8825L59.0749 106.712L58.6975 106.384L104.622 53.5545Z" fill="url(#paint28_linear_21_27285)" fill-opacity="0.33"/>
<path d="M105.754 54.5386L106.131 54.8666L60.2069 107.696L59.8296 107.368L105.754 54.5386Z" fill="url(#paint29_linear_21_27285)" fill-opacity="0.33"/>
<path d="M106.886 55.5227L107.263 55.8507L61.339 108.68L60.9616 108.352L106.886 55.5227Z" fill="url(#paint30_linear_21_27285)" fill-opacity="0.33"/>
<path d="M108.018 56.5067L108.395 56.8348L62.471 109.664L62.0937 109.336L108.018 56.5067Z" fill="url(#paint31_linear_21_27285)" fill-opacity="0.33"/>
<path d="M109.15 57.4908L109.527 57.8189L63.6031 110.649L63.2258 110.321L109.15 57.4908Z" fill="url(#paint32_linear_21_27285)" fill-opacity="0.33"/>
<path d="M110.282 58.4749L110.659 58.803L64.7352 111.633L64.3578 111.305L110.282 58.4749Z" fill="url(#paint33_linear_21_27285)" fill-opacity="0.33"/>
<path d="M111.414 59.459L111.791 59.787L65.8672 112.617L65.4899 112.289L111.414 59.459Z" fill="url(#paint34_linear_21_27285)" fill-opacity="0.33"/>
<path d="M112.546 60.4431L112.923 60.7711L66.9993 113.601L66.6219 113.273L112.546 60.4431Z" fill="url(#paint35_linear_21_27285)" fill-opacity="0.33"/>
<path d="M113.678 61.4272L114.055 61.7552L68.1314 114.585L67.754 114.257L113.678 61.4272Z" fill="url(#paint36_linear_21_27285)" fill-opacity="0.33"/>
<path d="M114.81 62.4113L115.188 62.7393L69.2634 115.569L68.8861 115.241L114.81 62.4113Z" fill="url(#paint37_linear_21_27285)" fill-opacity="0.33"/>
<path d="M115.942 63.3954L116.32 63.7234L70.3955 116.553L70.0181 116.225L115.942 63.3954Z" fill="url(#paint38_linear_21_27285)" fill-opacity="0.33"/>
<path d="M117.074 64.3795L117.452 64.7075L71.5276 117.537L71.1502 117.209L117.074 64.3795Z" fill="url(#paint39_linear_21_27285)" fill-opacity="0.33"/>
</g>
<path fill-rule="evenodd" clip-rule="evenodd" d="M63.8105 53.748C56.8483 56.8768 52 63.8722 52 71.9999C52 74.1944 52.3534 76.3064 53.0065 78.2819C53.1972 78.3182 53.3866 78.3578 53.5749 78.4008C52.8784 76.3958 52.5 74.242 52.5 71.9999C52.5 63.9451 57.3838 57.0309 64.3517 54.057C64.1691 53.9574 63.9887 53.8544 63.8105 53.748ZM79.6483 54.057C86.6162 57.0309 91.5 63.9451 91.5 71.9999C91.5 74.242 91.1216 76.3958 90.4251 78.4008C90.6134 78.3578 90.8028 78.3182 90.9935 78.2819C91.6466 76.3064 92 74.1944 92 71.9999C92 63.8722 87.1517 56.8768 80.1895 53.748C80.0113 53.8544 79.8309 53.9574 79.6483 54.057ZM78.4009 90.4251C76.3959 91.1215 74.2421 91.4999 72 91.4999C69.7579 91.4999 67.6041 91.1215 65.5991 90.4251C65.6421 90.6133 65.6817 90.8027 65.718 90.9934C67.6936 91.6465 69.8055 91.9999 72 91.9999C74.1945 91.9999 76.3064 91.6465 78.282 90.9934C78.3183 90.8027 78.3579 90.6133 78.4009 90.4251Z" fill="#4A525F"/>
<path fill-rule="evenodd" clip-rule="evenodd" d="M50.2514 72.2451L50.0014 72.2479C50.0005 72.1654 50 72.0827 50 71.9999C50 71.9172 50.0005 71.8345 50.0014 71.752L50.2514 71.7547L50.5013 71.7575C50.5004 71.8382 50.5 71.919 50.5 71.9999C50.5 72.0809 50.5004 72.1617 50.5013 72.2424L50.2514 72.2451ZM50.3592 69.8065L50.1105 69.7816C50.1269 69.6171 50.1452 69.4532 50.1653 69.2898L50.4134 69.3203L50.6615 69.3508C50.6419 69.5104 50.6241 69.6707 50.608 69.8314L50.3592 69.8065ZM50.7381 67.3962L50.4937 67.3436C50.5285 67.1824 50.565 67.0218 50.6032 66.8619L50.8464 66.9201L51.0895 66.9783C51.0521 67.1345 51.0164 67.2914 50.9825 67.4489L50.7381 67.3962ZM51.3858 65.0445L51.1489 64.9646C51.2015 64.8087 51.2558 64.6535 51.3118 64.4991L51.5468 64.5844L51.7818 64.6696C51.7271 64.8204 51.6741 64.9721 51.6227 65.1244L51.3858 65.0445ZM52.2945 62.7813L52.0681 62.6752C52.138 62.5261 52.2095 62.3779 52.2826 62.2306L52.5066 62.3417L52.7305 62.4529C52.659 62.5968 52.5892 62.7417 52.5209 62.8874L52.2945 62.7813ZM53.4521 60.6344L53.2391 60.5036C53.3253 60.3633 53.413 60.2239 53.5022 60.0857L53.7123 60.2212L53.9223 60.3568C53.8351 60.4919 53.7494 60.6281 53.6652 60.7653L53.4521 60.6344ZM54.8431 58.6303L54.646 58.4765C54.7473 58.3468 54.8499 58.2182 54.954 58.0908L55.1476 58.249L55.3412 58.4071C55.2395 58.5316 55.1391 58.6573 55.0402 58.7841L54.8431 58.6303ZM56.4488 56.7939L56.2701 56.6191C56.3851 56.5014 56.5015 56.3851 56.6192 56.27L56.794 56.4487L56.9688 56.6275C56.8538 56.7399 56.74 56.8537 56.6275 56.9687L56.4488 56.7939ZM58.249 55.1476L58.0909 54.954C58.2183 54.8499 58.3468 54.7472 58.4766 54.6459L58.6304 54.843L58.7842 55.0401C58.6574 55.1391 58.5317 55.2394 58.4072 55.3412L58.249 55.1476ZM60.2213 53.7122L60.0857 53.5022C60.224 53.4129 60.3633 53.3252 60.5037 53.239L60.6345 53.4521L60.7653 53.6651C60.6282 53.7493 60.492 53.8351 60.3569 53.9223L60.2213 53.7122ZM83.9143 53.5022C83.776 53.4129 83.6367 53.3252 83.4963 53.239L83.3655 53.4521L83.2347 53.6651C83.3718 53.7493 83.508 53.8351 83.6431 53.9223L83.7787 53.7122L83.9143 53.5022ZM85.3696 54.843L85.5234 54.6459C85.6532 54.7472 85.7817 54.8499 85.9091 54.954L85.751 55.1476L85.5928 55.3412C85.4683 55.2394 85.3426 55.1391 85.2158 55.0401L85.3696 54.843ZM87.206 56.4487L87.3808 56.27C87.4985 56.3851 87.6149 56.5014 87.7299 56.6191L87.5512 56.7939L87.3725 56.9687C87.26 56.8537 87.1462 56.7399 87.0312 56.6275L87.206 56.4487ZM88.8524 58.249L89.046 58.0908C89.1501 58.2182 89.2527 58.3468 89.354 58.4765L89.1569 58.6303L88.9598 58.7841C88.8609 58.6573 88.7605 58.5316 88.6588 58.4071L88.8524 58.249ZM90.2877 60.2212L90.4978 60.0857C90.587 60.2239 90.6747 60.3633 90.7609 60.5036L90.5479 60.6344L90.3348 60.7653C90.2506 60.6281 90.1649 60.4919 90.0777 60.3568L90.2877 60.2212ZM91.4934 62.3417L91.7174 62.2306C91.7905 62.3779 91.862 62.5261 91.9319 62.6752L91.7055 62.7813L91.4791 62.8874C91.4108 62.7417 91.341 62.5968 91.2695 62.4529L91.4934 62.3417ZM92.4532 64.5844L92.6882 64.4991C92.7442 64.6535 92.7985 64.8087 92.8511 64.9646L92.6142 65.0445L92.3773 65.1244C92.3259 64.9721 92.2729 64.8204 92.2182 64.6696L92.4532 64.5844ZM93.1536 66.9201L93.3968 66.8619C93.435 67.0218 93.4715 67.1824 93.5063 67.3436L93.2619 67.3962L93.0175 67.4489C92.9836 67.2914 92.9479 67.1345 92.9105 66.9783L93.1536 66.9201ZM93.5866 69.3203L93.8347 69.2898C93.8548 69.4532 93.8731 69.6171 93.8895 69.7816L93.6408 69.8065L93.392 69.8314C93.3759 69.6706 93.3581 69.5104 93.3385 69.3508L93.5866 69.3203ZM94 71.9999C94 71.9172 93.9995 71.8345 93.9986 71.752L93.7486 71.7547L93.4987 71.7575C93.4996 71.8382 93.5 71.919 93.5 71.9999C93.5 72.0809 93.4996 72.1617 93.4987 72.2424L93.7486 72.2451L93.9986 72.2479C93.9995 72.1653 94 72.0827 94 71.9999ZM93.6408 74.1934L93.8895 74.2183C93.8731 74.3828 93.8548 74.5467 93.8347 74.7101L93.5866 74.6796L93.3385 74.6491C93.3581 74.4894 93.3759 74.3292 93.392 74.1685L93.6408 74.1934ZM93.2619 76.6036L93.5063 76.6563C93.4715 76.8175 93.435 76.9781 93.3968 77.138L93.1536 77.0798L92.9105 77.0216C92.9479 76.8654 92.9836 76.7085 93.0175 76.551L93.2619 76.6036ZM77.0798 93.1536L77.138 93.3967C76.9781 93.435 76.8176 93.4715 76.6564 93.5062L76.6037 93.2618L76.551 93.0174C76.7086 92.9835 76.8655 92.9478 77.0217 92.9104L77.0798 93.1536ZM74.6796 93.5865L74.7101 93.8347C74.5467 93.8547 74.3828 93.873 74.2184 93.8895L74.1935 93.6407L74.1685 93.392C74.3293 93.3759 74.4895 93.358 74.6492 93.3384L74.6796 93.5865ZM72.2452 93.7486L72.248 93.9986C72.1654 93.9995 72.0828 93.9999 72 93.9999C71.9172 93.9999 71.8346 93.9995 71.752 93.9986L71.7548 93.7486L71.7576 93.4986C71.8383 93.4995 71.9191 93.4999 72 93.4999C72.0809 93.4999 72.1617 93.4995 72.2424 93.4986L72.2452 93.7486ZM69.8065 93.6407L69.7816 93.8895C69.6172 93.873 69.4533 93.8547 69.2899 93.8347L69.3204 93.5865L69.3508 93.3384C69.5105 93.358 69.6707 93.3759 69.8315 93.392L69.8065 93.6407ZM67.3963 93.2618L67.3436 93.5062C67.1824 93.4715 67.0219 93.435 66.862 93.3967L66.9202 93.1536L66.9783 92.9104C67.1345 92.9478 67.2914 92.9835 67.449 93.0174L67.3963 93.2618ZM50.8464 77.0798L50.6032 77.138C50.565 76.9781 50.5285 76.8175 50.4937 76.6563L50.7381 76.6036L50.9825 76.551C51.0164 76.7085 51.0521 76.8654 51.0895 77.0216L50.8464 77.0798ZM50.4134 74.6796L50.1653 74.7101C50.1452 74.5467 50.1269 74.3828 50.1105 74.2183L50.3592 74.1934L50.608 74.1685C50.6241 74.3292 50.6419 74.4894 50.6615 74.6491L50.4134 74.6796Z" fill="#4A525F"/>
<g filter="url(#filter1_d_21_27285)">
<path fill-rule="evenodd" clip-rule="evenodd" d="M75.4122 74.8515L78 74.4545L72 81L70.6914 79.5724L75.4122 74.8515ZM70.2585 79.1002L69.8256 78.6279L73.274 75.1796L74.3431 75.0155L70.2585 79.1002ZM72.2049 75.3436L69.3927 78.1557L68.9599 77.6835L71.3657 75.2777L72 75.375L72.2049 75.3436ZM70.581 75.1573L68.527 77.2113L66 74.4545L70.581 75.1573ZM72 72.8182L67.5 67.9091L72 68.625L76.5 67.9091L72 72.8182ZM72 66.2727L69 63H75L72 66.2727Z" fill="url(#paint40_linear_21_27285)"/>
</g>
<defs>
<filter id="filter0_d_21_27285" x="0" y="0" width="144" height="144" filterUnits="userSpaceOnUse" color-interpolation-filters="sRGB">
<feFlood flood-opacity="0" result="BackgroundImageFix"/>
<feColorMatrix in="SourceAlpha" type="matrix" values="0 0 0 0 0 0 0 0 0 0 0 0 0 0 0 0 0 0 127 0" result="hardAlpha"/>
<feOffset/>
<feGaussianBlur stdDeviation="24"/>
<feComposite in2="hardAlpha" operator="out"/>
<feColorMatrix type="matrix" values="0 0 0 0 0.130059 0 0 0 0 0.341012 0 0 0 0 0.891833 0 0 0 1 0"/>
<feBlend mode="normal" in2="BackgroundImageFix" result="effect1_dropShadow_21_27285"/>
<feBlend mode="normal" in="SourceGraphic" in2="effect1_dropShadow_21_27285" result="shape"/>
</filter>
<filter id="filter1_d_21_27285" x="50" y="47" width="44" height="50" filterUnits="userSpaceOnUse" color-interpolation-filters="sRGB">
<feFlood flood-opacity="0" result="BackgroundImageFix"/>
<feColorMatrix in="SourceAlpha" type="matrix" values="0 0 0 0 0 0 0 0 0 0 0 0 0 0 0 0 0 0 127 0" result="hardAlpha"/>
<feOffset/>
<feGaussianBlur stdDeviation="8"/>
<feComposite in2="hardAlpha" operator="out"/>
<feColorMatrix type="matrix" values="0 0 0 0 0.356713 0 0 0 0 0.339529 0 0 0 0 0.554333 0 0 0 1 0"/>
<feBlend mode="normal" in2="BackgroundImageFix" result="effect1_dropShadow_21_27285"/>
<feBlend mode="normal" in="SourceGraphic" in2="effect1_dropShadow_21_27285" result="shape"/>
</filter>
<linearGradient id="paint0_linear_21_27285" x1="87" y1="52.5" x2="44.5" y2="128.5" gradientUnits="userSpaceOnUse">
<stop stop-color="white" stop-opacity="0"/>
<stop offset="1" stop-color="white"/>
</linearGradient>
<linearGradient id="paint1_linear_21_27285" x1="87" y1="52.5" x2="44.5" y2="128.5" gradientUnits="userSpaceOnUse">
<stop stop-color="white" stop-opacity="0"/>
<stop offset="1" stop-color="white"/>
</linearGradient>
<linearGradient id="paint2_linear_21_27285" x1="87" y1="52.5" x2="44.5" y2="128.5" gradientUnits="userSpaceOnUse">
<stop stop-color="white" stop-opacity="0"/>
<stop offset="1" stop-color="white"/>
</linearGradient>
<linearGradient id="paint3_linear_21_27285" x1="87" y1="52.5" x2="44.5" y2="128.5" gradientUnits="userSpaceOnUse">
<stop stop-color="white" stop-opacity="0"/>
<stop offset="1" stop-color="white"/>
</linearGradient>
<linearGradient id="paint4_linear_21_27285" x1="87" y1="52.5" x2="44.5" y2="128.5" gradientUnits="userSpaceOnUse">
<stop stop-color="white" stop-opacity="0"/>
<stop offset="1" stop-color="white"/>
</linearGradient>
<linearGradient id="paint5_linear_21_27285" x1="87" y1="52.5" x2="44.5" y2="128.5" gradientUnits="userSpaceOnUse">
<stop stop-color="white" stop-opacity="0"/>
<stop offset="1" stop-color="white"/>
</linearGradient>
<linearGradient id="paint6_linear_21_27285" x1="87" y1="52.5" x2="44.5" y2="128.5" gradientUnits="userSpaceOnUse">
<stop stop-color="white" stop-opacity="0"/>
<stop offset="1" stop-color="white"/>
</linearGradient>
<linearGradient id="paint7_linear_21_27285" x1="87" y1="52.5" x2="44.5" y2="128.5" gradientUnits="userSpaceOnUse">
<stop stop-color="white" stop-opacity="0"/>
<stop offset="1" stop-color="white"/>
</linearGradient>
<linearGradient id="paint8_linear_21_27285" x1="87" y1="52.5" x2="44.5" y2="128.5" gradientUnits="userSpaceOnUse">
<stop stop-color="white" stop-opacity="0"/>
<stop offset="1" stop-color="white"/>
</linearGradient>
<linearGradient id="paint9_linear_21_27285" x1="87" y1="52.5" x2="44.5" y2="128.5" gradientUnits="userSpaceOnUse">
<stop stop-color="white" stop-opacity="0"/>
<stop offset="1" stop-color="white"/>
</linearGradient>
<linearGradient id="paint10_linear_21_27285" x1="87" y1="52.5" x2="44.5" y2="128.5" gradientUnits="userSpaceOnUse">
<stop stop-color="white" stop-opacity="0"/>
<stop offset="1" stop-color="white"/>
</linearGradient>
<linearGradient id="paint11_linear_21_27285" x1="87" y1="52.5" x2="44.5" y2="128.5" gradientUnits="userSpaceOnUse">
<stop stop-color="white" stop-opacity="0"/>
<stop offset="1" stop-color="white"/>
</linearGradient>
<linearGradient id="paint12_linear_21_27285" x1="87" y1="52.5" x2="44.5" y2="128.5" gradientUnits="userSpaceOnUse">
<stop stop-color="white" stop-opacity="0"/>
<stop offset="1" stop-color="white"/>
</linearGradient>
<linearGradient id="paint13_linear_21_27285" x1="87" y1="52.5" x2="44.5" y2="128.5" gradientUnits="userSpaceOnUse">
<stop stop-color="white" stop-opacity="0"/>
<stop offset="1" stop-color="white"/>
</linearGradient>
<linearGradient id="paint14_linear_21_27285" x1="87" y1="52.5" x2="44.5" y2="128.5" gradientUnits="userSpaceOnUse">
<stop stop-color="white" stop-opacity="0"/>
<stop offset="1" stop-color="white"/>
</linearGradient>
<linearGradient id="paint15_linear_21_27285" x1="87" y1="52.5" x2="44.5" y2="128.5" gradientUnits="userSpaceOnUse">
<stop stop-color="white" stop-opacity="0"/>
<stop offset="1" stop-color="white"/>
</linearGradient>
<linearGradient id="paint16_linear_21_27285" x1="87" y1="52.5" x2="44.5" y2="128.5" gradientUnits="userSpaceOnUse">
<stop stop-color="white" stop-opacity="0"/>
<stop offset="1" stop-color="white"/>
</linearGradient>
<linearGradient id="paint17_linear_21_27285" x1="87" y1="52.5" x2="44.5" y2="128.5" gradientUnits="userSpaceOnUse">
<stop stop-color="white" stop-opacity="0"/>
<stop offset="1" stop-color="white"/>
</linearGradient>
<linearGradient id="paint18_linear_21_27285" x1="87" y1="52.5" x2="44.5" y2="128.5" gradientUnits="userSpaceOnUse">
<stop stop-color="white" stop-opacity="0"/>
<stop offset="1" stop-color="white"/>
</linearGradient>
<linearGradient id="paint19_linear_21_27285" x1="87" y1="52.5" x2="44.5" y2="128.5" gradientUnits="userSpaceOnUse">
<stop stop-color="white" stop-opacity="0"/>
<stop offset="1" stop-color="white"/>
</linearGradient>
<linearGradient id="paint20_linear_21_27285" x1="87" y1="52.5" x2="44.5" y2="128.5" gradientUnits="userSpaceOnUse">
<stop stop-color="white" stop-opacity="0"/>
<stop offset="1" stop-color="white"/>
</linearGradient>
<linearGradient id="paint21_linear_21_27285" x1="87" y1="52.5" x2="44.5" y2="128.5" gradientUnits="userSpaceOnUse">
<stop stop-color="white" stop-opacity="0"/>
<stop offset="1" stop-color="white"/>
</linearGradient>
<linearGradient id="paint22_linear_21_27285" x1="87" y1="52.5" x2="44.5" y2="128.5" gradientUnits="userSpaceOnUse">
<stop stop-color="white" stop-opacity="0"/>
<stop offset="1" stop-color="white"/>
</linearGradient>
<linearGradient id="paint23_linear_21_27285" x1="87" y1="52.5" x2="44.5" y2="128.5" gradientUnits="userSpaceOnUse">
<stop stop-color="white" stop-opacity="0"/>
<stop offset="1" stop-color="white"/>
</linearGradient>
<linearGradient id="paint24_linear_21_27285" x1="87" y1="52.5" x2="44.5" y2="128.5" gradientUnits="userSpaceOnUse">
<stop stop-color="white" stop-opacity="0"/>
<stop offset="1" stop-color="white"/>
</linearGradient>
<linearGradient id="paint25_linear_21_27285" x1="87" y1="52.5" x2="44.5" y2="128.5" gradientUnits="userSpaceOnUse">
<stop stop-color="white" stop-opacity="0"/>
<stop offset="1" stop-color="white"/>
</linearGradient>
<linearGradient id="paint26_linear_21_27285" x1="87" y1="52.5" x2="44.5" y2="128.5" gradientUnits="userSpaceOnUse">
<stop stop-color="white" stop-opacity="0"/>
<stop offset="1" stop-color="white"/>
</linearGradient>
<linearGradient id="paint27_linear_21_27285" x1="87" y1="52.5" x2="44.5" y2="128.5" gradientUnits="userSpaceOnUse">
<stop stop-color="white" stop-opacity="0"/>
<stop offset="1" stop-color="white"/>
</linearGradient>
<linearGradient id="paint28_linear_21_27285" x1="87" y1="52.5" x2="44.5" y2="128.5" gradientUnits="userSpaceOnUse">
<stop stop-color="white" stop-opacity="0"/>
<stop offset="1" stop-color="white"/>
</linearGradient>
<linearGradient id="paint29_linear_21_27285" x1="87" y1="52.5" x2="44.5" y2="128.5" gradientUnits="userSpaceOnUse">
<stop stop-color="white" stop-opacity="0"/>
<stop offset="1" stop-color="white"/>
</linearGradient>
<linearGradient id="paint30_linear_21_27285" x1="87" y1="52.5" x2="44.5" y2="128.5" gradientUnits="userSpaceOnUse">
<stop stop-color="white" stop-opacity="0"/>
<stop offset="1" stop-color="white"/>
</linearGradient>
<linearGradient id="paint31_linear_21_27285" x1="87" y1="52.5" x2="44.5" y2="128.5" gradientUnits="userSpaceOnUse">
<stop stop-color="white" stop-opacity="0"/>
<stop offset="1" stop-color="white"/>
</linearGradient>
<linearGradient id="paint32_linear_21_27285" x1="87" y1="52.5" x2="44.5" y2="128.5" gradientUnits="userSpaceOnUse">
<stop stop-color="white" stop-opacity="0"/>
<stop offset="1" stop-color="white"/>
</linearGradient>
<linearGradient id="paint33_linear_21_27285" x1="87" y1="52.5" x2="44.5" y2="128.5" gradientUnits="userSpaceOnUse">
<stop stop-color="white" stop-opacity="0"/>
<stop offset="1" stop-color="white"/>
</linearGradient>
<linearGradient id="paint34_linear_21_27285" x1="87" y1="52.5" x2="44.5" y2="128.5" gradientUnits="userSpaceOnUse">
<stop stop-color="white" stop-opacity="0"/>
<stop offset="1" stop-color="white"/>
</linearGradient>
<linearGradient id="paint35_linear_21_27285" x1="87" y1="52.5" x2="44.5" y2="128.5" gradientUnits="userSpaceOnUse">
<stop stop-color="white" stop-opacity="0"/>
<stop offset="1" stop-color="white"/>
</linearGradient>
<linearGradient id="paint36_linear_21_27285" x1="87" y1="52.5" x2="44.5" y2="128.5" gradientUnits="userSpaceOnUse">
<stop stop-color="white" stop-opacity="0"/>
<stop offset="1" stop-color="white"/>
</linearGradient>
<linearGradient id="paint37_linear_21_27285" x1="87" y1="52.5" x2="44.5" y2="128.5" gradientUnits="userSpaceOnUse">
<stop stop-color="white" stop-opacity="0"/>
<stop offset="1" stop-color="white"/>
</linearGradient>
<linearGradient id="paint38_linear_21_27285" x1="87" y1="52.5" x2="44.5" y2="128.5" gradientUnits="userSpaceOnUse">
<stop stop-color="white" stop-opacity="0"/>
<stop offset="1" stop-color="white"/>
</linearGradient>
<linearGradient id="paint39_linear_21_27285" x1="87" y1="52.5" x2="44.5" y2="128.5" gradientUnits="userSpaceOnUse">
<stop stop-color="white" stop-opacity="0"/>
<stop offset="1" stop-color="white"/>
</linearGradient>
<linearGradient id="paint40_linear_21_27285" x1="78" y1="72" x2="65.7475" y2="72" gradientUnits="userSpaceOnUse">
<stop stop-color="white"/>
<stop offset="0.270829" stop-color="#ECF3F7"/>
<stop offset="0.619793" stop-color="#E0E7ED"/>
<stop offset="1" stop-color="#99AAC2"/>
</linearGradient>
</defs>
</svg>
