<svg width="340" height="40" viewBox="0 0 340 40" fill="none" xmlns="http://www.w3.org/2000/svg">
<g clip-path="url(#clip0_2_1792)">
<path d="M340 0H30.6L0 40H309.4L340 0Z" fill="url(#paint0_linear_2_1792)"/>
<path d="M260 40H313.763L340 0H286.237L260 40Z" fill="url(#paint1_linear_2_1792)"/>
<path d="M306.052 13.5234L300.064 18.1959L293.94 13.5234V13.5247L293.948 13.531V20.0737L299.995 24.8471L306.052 20.258V13.5234Z" fill="#ECF7FF"/>
<path opacity="0.9" d="M307.623 12.3864L306.051 13.5229V20.2575L310.998 16.459V14.1707C310.998 14.1707 310.398 10.9026 307.623 12.3864Z" fill="#ECF7FF"/>
<path opacity="0.8" d="M306.051 20.2575V28.9924H309.843C309.843 28.9924 310.922 28.8813 311 27.6513V16.459L306.051 20.2575Z" fill="#ECF7FF"/>
<path opacity="0.9" d="M293.94 13.5245L292.376 12.3943C289.602 10.9105 289 14.1774 289 14.1774V16.4656L293.94 20.0672V13.5245Z" fill="#ECF7FF"/>
<path opacity="0.7" d="M289 16.4668V27.6591C289.076 28.8904 290.157 29.0003 290.157 29.0003H293.949L293.94 20.0671L289 16.4668Z" fill="#ECF7FF"/>
</g>
<defs>
<linearGradient id="paint0_linear_2_1792" x1="340" y1="20" x2="0.00120896" y2="19.3589" gradientUnits="userSpaceOnUse">
<stop stop-color="#186911"/>
<stop offset="1" stop-color="#54A029" stop-opacity="0.22"/>
</linearGradient>
<linearGradient id="paint1_linear_2_1792" x1="300" y1="0" x2="300" y2="40" gradientUnits="userSpaceOnUse">
<stop stop-color="#75BE36"/>
<stop offset="1" stop-color="#14650E"/>
</linearGradient>
<clipPath id="clip0_2_1792">
<rect width="340" height="40" fill="white"/>
</clipPath>
</defs>
</svg>
