<svg width="340" height="40" viewBox="0 0 340 40" fill="none" xmlns="http://www.w3.org/2000/svg">
<g clip-path="url(#clip0_2_1764)">
<path d="M0 40H309.4L340 0H30.6L0 40Z" fill="url(#paint0_linear_2_1764)"/>
<path d="M0 40H53.7627L80 0H26.2373L0 40Z" fill="url(#paint1_linear_2_1764)"/>
<path d="M51 13.2491C50.1177 13.6312 49.1682 13.8889 48.1719 14.0042C49.1891 13.411 49.9691 12.4712 50.3369 11.3503C49.3855 11.9003 48.3322 12.2994 47.2102 12.5149C46.3123 11.5828 45.0325 11 43.6163 11C40.8973 11 38.6928 13.1475 38.6928 15.7967C38.6928 16.1722 38.7362 16.5381 38.8205 16.8897C34.7282 16.6895 31.0996 14.7802 28.671 11.878C28.2472 12.5861 28.0046 13.41 28.0046 14.2899C28.0046 15.9538 28.8737 17.4222 30.1949 18.2822C29.3882 18.2571 28.6286 18.0411 27.9646 17.6818C27.9641 17.7018 27.9641 17.7222 27.9641 17.7426C27.9641 20.0662 29.6615 22.0045 31.9142 22.4458C31.5011 22.555 31.066 22.6139 30.6168 22.6139C30.2992 22.6139 29.9908 22.584 29.6902 22.5275C30.3172 24.433 32.1354 25.8202 34.2897 25.8587C32.6045 27.1453 30.4819 27.9122 28.1746 27.9122C27.7775 27.9122 27.3854 27.8895 27 27.8449C29.1796 29.2065 31.7676 30 34.5479 30C43.6051 30 48.5573 22.6912 48.5573 16.3525C48.5573 16.1446 48.5529 15.9372 48.5436 15.7313C49.5053 15.0564 50.3404 14.2111 51 13.2491Z" fill="#ECF7FF"/>
</g>
<defs>
<linearGradient id="paint0_linear_2_1764" x1="-3.32649e-09" y1="20" x2="339.999" y2="20.6411" gradientUnits="userSpaceOnUse">
<stop stop-color="#186911"/>
<stop offset="1" stop-color="#54A029" stop-opacity="0.22"/>
</linearGradient>
<linearGradient id="paint1_linear_2_1764" x1="40" y1="0" x2="40" y2="40" gradientUnits="userSpaceOnUse">
<stop stop-color="#75BE36"/>
<stop offset="1" stop-color="#14650E"/>
</linearGradient>
<clipPath id="clip0_2_1764">
<rect width="340" height="40" fill="white"/>
</clipPath>
</defs>
</svg>
