<svg width="340" height="40" viewBox="0 0 340 40" fill="none" xmlns="http://www.w3.org/2000/svg">
<g clip-path="url(#clip0_747_3143)">
<path d="M0 40H309.4L340 0H30.6L0 40Z" fill="url(#paint0_radial_747_3143)"/>
<path d="M260 40H313.763L340 0H286.237L260 40Z" fill="url(#paint1_linear_747_3143)"/>
<path d="M297.901 16.1195C298.053 15.8596 297.961 15.5256 297.696 15.3744L296.25 14.5624C295.986 14.4122 295.645 14.5026 295.493 14.7624L288.797 26.2102C288.644 26.47 288.737 26.8035 289.001 26.9523L290.447 27.7682C290.712 27.9175 291.053 27.8271 291.206 27.5682L297.901 16.1195Z" fill="#ECF7FF"/>
<path d="M309.497 18.5514H304.618C305.192 19.6075 305.724 20.6018 306.099 21.3047C306.358 21.7909 306.564 22.1747 306.636 22.3039C306.713 22.4402 306.767 22.5814 306.803 22.7254H309.497C309.774 22.7254 310 22.5048 310 22.233V19.0443C310 18.772 309.774 18.5514 309.497 18.5514Z" fill="#ECF7FF"/>
<path d="M297.636 18.5514L295.195 22.7254H301.82C301.339 21.7938 300.702 20.4611 299.846 18.5514H297.636Z" fill="#ECF7FF"/>
<path d="M292.119 18.5514H286.502C286.225 18.5514 286 18.772 286 19.0438V22.2326C286 22.5043 286.225 22.7249 286.502 22.7249H289.677L292.119 18.5514Z" fill="#ECF7FF"/>
<path d="M289.975 28.3927L288.529 27.5788C288.265 27.4295 288.02 27.5515 287.985 27.8486L287.735 29.9852C287.7 30.2823 287.878 30.389 288.131 30.2206L289.998 28.9712C290.25 28.8037 290.239 28.5425 289.975 28.3927Z" fill="#ECF7FF"/>
<path d="M305.757 22.779C305.748 22.7651 305.738 22.7455 305.727 22.7259C305.593 22.4818 305.255 21.8473 304.814 21.0238C304.809 21.0128 304.804 21.0032 304.798 20.9922C304.765 20.9286 304.73 20.8649 304.695 20.7999C304.669 20.753 304.644 20.7056 304.618 20.6578C304.597 20.6166 304.574 20.5755 304.552 20.5333C304.513 20.4606 304.473 20.3874 304.433 20.3128C304.421 20.2893 304.408 20.2659 304.396 20.2429C304.351 20.1587 304.305 20.0745 304.259 19.9888C304.246 19.9644 304.233 19.94 304.219 19.9151C303.201 18.0255 301.923 15.699 301.133 14.4755C299.752 12.3318 297.908 8.75876 297.393 9.01285C296.672 9.36503 298.904 13.9008 299.642 15.6052C300.381 17.3092 303.265 23.8398 303.843 24.125C304.422 24.4092 304.645 24.2513 305.031 24.0944C305.418 23.936 306.11 23.4116 305.757 22.779Z" fill="#ECF7FF"/>
<path d="M307.405 26.1441L306.716 24.8468C306.56 24.5535 306.194 24.4339 305.901 24.5803L305.071 24.9999C304.779 25.1488 304.687 25.4962 304.867 25.7766L305.738 27.1269C305.917 27.4054 306.297 27.4968 306.579 27.3298L307.172 26.9805C307.455 26.814 307.56 26.4374 307.405 26.1441Z" fill="#ECF7FF"/>
<path d="M307.192 28.0218C306.975 28.2256 306.46 28.6687 307.083 29.5281C307.705 30.3899 309.094 30.4282 309.278 31C309.278 31 309.714 26.6255 307.192 28.0218Z" fill="#ECF7FF"/>
<path d="M0 40H53.7627L80 0H26.2373L0 40Z" fill="url(#paint2_linear_747_3143)"/>
<path d="M44.601 15.6149L33.2375 9.27445C32.6469 8.94498 32.0066 8.92815 31.4524 9.13873L41.1336 19.2286L44.601 15.6149Z" fill="#ECF7FF"/>
<path d="M48.8387 17.9798L45.5655 16.1534L41.8741 20.0006L45.5655 23.8477L48.8387 22.0213C50.3871 21.1574 50.3871 18.8437 48.8387 17.9798Z" fill="#ECF7FF"/>
<path d="M30.5661 9.75838C30.2189 10.1561 30 10.687 30 11.2954V28.7053C30 29.3137 30.2189 29.8447 30.566 30.2424L40.3932 20.0004L30.5661 9.75838Z" fill="#ECF7FF"/>
<path d="M31.4524 30.8613C32.0066 31.0718 32.6469 31.0551 33.2375 30.7256L44.601 24.3851L41.1337 20.7714L31.4524 30.8613Z" fill="#ECF7FF"/>
</g>
<defs>
<radialGradient id="paint0_radial_747_3143" cx="0" cy="0" r="1" gradientUnits="userSpaceOnUse" gradientTransform="translate(170 20) rotate(90) scale(1464 509.755)">
<stop stop-color="#54A029" stop-opacity="0.22"/>
<stop offset="0.456017" stop-color="#186911"/>
<stop offset="1" stop-color="#76EAF1"/>
</radialGradient>
<linearGradient id="paint1_linear_747_3143" x1="300" y1="0" x2="300" y2="40" gradientUnits="userSpaceOnUse">
<stop stop-color="#75BE36"/>
<stop offset="1" stop-color="#14650E"/>
</linearGradient>
<linearGradient id="paint2_linear_747_3143" x1="40" y1="0" x2="40" y2="40" gradientUnits="userSpaceOnUse">
<stop stop-color="#75BE36"/>
<stop offset="1" stop-color="#14650E"/>
</linearGradient>
<clipPath id="clip0_747_3143">
<rect width="340" height="40" fill="white"/>
</clipPath>
</defs>
</svg>
