<svg width="340" height="40" viewBox="0 0 340 40" fill="none" xmlns="http://www.w3.org/2000/svg">
<g clip-path="url(#clip0_2_1908)">
<path d="M0 40H309.4L340 0H30.6L0 40Z" fill="url(#paint0_radial_2_1908)"/>
<path d="M125.865 13.168C126.777 13.168 127.556 13.4973 128.202 14.156C128.86 14.802 129.19 15.581 129.19 16.493V23.675C129.19 24.587 128.86 25.3723 128.202 26.031C127.556 26.677 126.777 27 125.865 27H122.54V13.168H125.865ZM127.176 23.675V16.493C127.176 16.1257 127.049 15.8153 126.796 15.562C126.542 15.3087 126.232 15.182 125.865 15.182H124.554V24.986H125.865C126.232 24.986 126.542 24.8593 126.796 24.606C127.049 24.3527 127.176 24.0423 127.176 23.675ZM138.402 27.19C137.49 27.19 136.704 26.867 136.046 26.221C135.4 25.575 135.077 24.7897 135.077 23.865V16.303C135.077 15.3783 135.4 14.593 136.046 13.947C136.704 13.301 137.49 12.978 138.402 12.978C139.326 12.978 140.112 13.301 140.758 13.947C141.404 14.593 141.727 15.3783 141.727 16.303V23.865C141.727 24.7897 141.404 25.575 140.758 26.221C140.112 26.867 139.326 27.19 138.402 27.19ZM137.471 24.796C137.737 25.0493 138.047 25.176 138.402 25.176C138.756 25.176 139.06 25.0493 139.314 24.796C139.58 24.5427 139.713 24.2323 139.713 23.865V16.303C139.713 15.9357 139.58 15.6253 139.314 15.372C139.06 15.1187 138.756 14.992 138.402 14.992C138.047 14.992 137.737 15.1187 137.471 15.372C137.217 15.6253 137.091 15.9357 137.091 16.303V23.865C137.091 24.2323 137.217 24.5427 137.471 24.796ZM155.824 13.168H157.857L155.596 27H153.582L152.328 18.07L151.074 27H149.041L146.78 13.168H148.813L150.067 22.421L151.321 13.168H153.335L154.589 22.497L155.824 13.168ZM168.468 13.168H170.482V27H168.468L165.01 18.45V27H162.996V13.168H165.01L168.468 21.718V13.168ZM178.57 24.986H181.819V27H176.556V13.168H178.57V24.986ZM189.579 27.19C188.667 27.19 187.882 26.867 187.223 26.221C186.577 25.575 186.254 24.7897 186.254 23.865V16.303C186.254 15.3783 186.577 14.593 187.223 13.947C187.882 13.301 188.667 12.978 189.579 12.978C190.504 12.978 191.289 13.301 191.935 13.947C192.581 14.593 192.904 15.3783 192.904 16.303V23.865C192.904 24.7897 192.581 25.575 191.935 26.221C191.289 26.867 190.504 27.19 189.579 27.19ZM188.648 24.796C188.914 25.0493 189.225 25.176 189.579 25.176C189.934 25.176 190.238 25.0493 190.491 24.796C190.757 24.5427 190.89 24.2323 190.89 23.865V16.303C190.89 15.9357 190.757 15.6253 190.491 15.372C190.238 15.1187 189.934 14.992 189.579 14.992C189.225 14.992 188.914 15.1187 188.648 15.372C188.395 15.6253 188.268 15.9357 188.268 16.303V23.865C188.268 24.2323 188.395 24.5427 188.648 24.796ZM203.662 27L203.092 24.074H200.451L199.881 27H197.829L200.774 13.168H202.788L205.714 27H203.662ZM200.85 22.06H202.712L201.781 17.234L200.85 22.06ZM214.233 13.168C215.145 13.168 215.924 13.4973 216.57 14.156C217.229 14.802 217.558 15.581 217.558 16.493V23.675C217.558 24.587 217.229 25.3723 216.57 26.031C215.924 26.677 215.145 27 214.233 27H210.908V13.168H214.233ZM215.544 23.675V16.493C215.544 16.1257 215.418 15.8153 215.164 15.562C214.911 15.3087 214.601 15.182 214.233 15.182H212.922V24.986H214.233C214.601 24.986 214.911 24.8593 215.164 24.606C215.418 24.3527 215.544 24.0423 215.544 23.675Z" fill="#ECF7FF"/>
<path d="M260 40H313.763L340 0H286.237L260 40Z" fill="url(#paint1_linear_2_1908)"/>
<path d="M297.901 16.1195C298.053 15.8596 297.961 15.5256 297.696 15.3744L296.25 14.5624C295.986 14.4122 295.645 14.5026 295.493 14.7624L288.797 26.2102C288.644 26.47 288.737 26.8035 289.001 26.9523L290.447 27.7682C290.712 27.9175 291.053 27.8271 291.206 27.5682L297.901 16.1195Z" fill="#4B79D5"/>
<path d="M309.497 18.5514H304.618C305.192 19.6075 305.724 20.6018 306.099 21.3047C306.358 21.7909 306.564 22.1747 306.636 22.3039C306.713 22.4402 306.767 22.5814 306.803 22.7254H309.497C309.774 22.7254 310 22.5048 310 22.233V19.0443C310 18.772 309.774 18.5514 309.497 18.5514Z" fill="#4B79D5"/>
<path d="M297.636 18.5514L295.195 22.7254H301.82C301.339 21.7938 300.702 20.4611 299.846 18.5514H297.636Z" fill="#4B79D5"/>
<path d="M292.119 18.5514H286.502C286.225 18.5514 286 18.772 286 19.0438V22.2326C286 22.5043 286.225 22.7249 286.502 22.7249H289.677L292.119 18.5514Z" fill="#4B79D5"/>
<path d="M289.975 28.3927L288.529 27.5788C288.265 27.4295 288.02 27.5515 287.985 27.8486L287.735 29.9852C287.7 30.2823 287.878 30.389 288.131 30.2206L289.998 28.9712C290.25 28.8037 290.239 28.5425 289.975 28.3927Z" fill="#4B79D5"/>
<path d="M305.757 22.779C305.748 22.7651 305.738 22.7455 305.727 22.7259C305.593 22.4818 305.255 21.8473 304.814 21.0238C304.809 21.0128 304.804 21.0032 304.798 20.9922C304.765 20.9286 304.73 20.8649 304.695 20.7999C304.669 20.753 304.644 20.7056 304.618 20.6578C304.597 20.6166 304.574 20.5755 304.552 20.5333C304.513 20.4606 304.473 20.3874 304.433 20.3128C304.421 20.2893 304.408 20.2659 304.396 20.2429C304.351 20.1587 304.305 20.0745 304.259 19.9888C304.246 19.9644 304.233 19.94 304.219 19.9151C303.201 18.0255 301.923 15.699 301.133 14.4755C299.752 12.3318 297.908 8.75876 297.393 9.01285C296.672 9.36503 298.904 13.9008 299.642 15.6052C300.381 17.3092 303.265 23.8398 303.843 24.125C304.422 24.4092 304.645 24.2513 305.031 24.0944C305.418 23.936 306.11 23.4116 305.757 22.779Z" fill="#4B79D5"/>
<path d="M307.405 26.1441L306.716 24.8468C306.56 24.5535 306.194 24.4339 305.901 24.5803L305.071 24.9999C304.779 25.1488 304.687 25.4962 304.867 25.7766L305.738 27.1269C305.917 27.4054 306.297 27.4968 306.579 27.3298L307.172 26.9805C307.455 26.814 307.56 26.4374 307.405 26.1441Z" fill="#4B79D5"/>
<path d="M307.192 28.0218C306.975 28.2256 306.46 28.6687 307.083 29.5281C307.705 30.3899 309.094 30.4282 309.278 31C309.278 31 309.714 26.6255 307.192 28.0218Z" fill="#4B79D5"/>
<path d="M0 40H53.7627L80 0H26.2373L0 40Z" fill="url(#paint2_linear_2_1908)"/>
<path d="M44.601 15.6149L33.2375 9.27445C32.6469 8.94498 32.0066 8.92815 31.4524 9.13873L41.1336 19.2286L44.601 15.6149Z" fill="#4B79D5"/>
<path d="M48.8387 17.9798L45.5655 16.1534L41.8741 20.0006L45.5655 23.8477L48.8387 22.0213C50.3871 21.1574 50.3871 18.8437 48.8387 17.9798Z" fill="#4B79D5"/>
<path d="M30.5661 9.75838C30.2189 10.1561 30 10.687 30 11.2954V28.7053C30 29.3137 30.2189 29.8447 30.566 30.2424L40.3932 20.0004L30.5661 9.75838Z" fill="#4B79D5"/>
<path d="M31.4524 30.8613C32.0066 31.0718 32.6469 31.0551 33.2375 30.7256L44.601 24.3851L41.1337 20.7714L31.4524 30.8613Z" fill="#4B79D5"/>
</g>
<defs>
<radialGradient id="paint0_radial_2_1908" cx="0" cy="0" r="1" gradientUnits="userSpaceOnUse" gradientTransform="translate(170 20) rotate(90) scale(1464 509.755)">
<stop stop-color="#253596" stop-opacity="0"/>
<stop offset="0.456017" stop-color="#4A76D4"/>
<stop offset="1" stop-color="#76EAF1"/>
</radialGradient>
<linearGradient id="paint1_linear_2_1908" x1="300" y1="0" x2="300" y2="40.8417" gradientUnits="userSpaceOnUse">
<stop stop-color="white"/>
<stop offset="0.270829" stop-color="#ECF3F7"/>
<stop offset="0.619793" stop-color="#E0E7ED"/>
<stop offset="1" stop-color="#99AAC2"/>
</linearGradient>
<linearGradient id="paint2_linear_2_1908" x1="40" y1="0" x2="40" y2="40.8417" gradientUnits="userSpaceOnUse">
<stop stop-color="white"/>
<stop offset="0.270829" stop-color="#ECF3F7"/>
<stop offset="0.619793" stop-color="#E0E7ED"/>
<stop offset="1" stop-color="#99AAC2"/>
</linearGradient>
<clipPath id="clip0_2_1908">
<rect width="340" height="40" fill="white"/>
</clipPath>
</defs>
</svg>
